<svg width="480" height="93" viewBox="0 0 480 93" fill="none" xmlns="http://www.w3.org/2000/svg">
<path d="M124.324 57.6787L137.748 34.9878H142.509L155.504 57.6787H150.363L147.872 53.6483H132.004L129.259 57.6787H124.324ZM133.94 49.7448H145.984L140.081 39.8116L133.94 49.7448Z" fill="#1A1A1A"/>
<path d="M158.406 57.647V34.9878H174.544C178.289 34.9878 180.383 36.765 180.383 40.8271V44.921C180.383 49.2688 178.574 50.7762 174.322 50.7762H162.532V57.6787L158.406 57.647ZM162.516 46.6665H174.544C174.775 46.6754 175.006 46.6363 175.222 46.5518C175.438 46.4672 175.634 46.339 175.798 46.1751C175.962 46.0112 176.09 45.8152 176.175 45.5994C176.259 45.3836 176.298 45.1526 176.289 44.921V40.8271C176.304 40.4023 176.159 39.9873 175.883 39.6641C175.607 39.3409 175.22 39.1331 174.798 39.0817H162.532L162.516 46.6665Z" fill="#1A1A1A"/>
<path d="M209.644 34.9878V39.0817H189.286V43.842H208.2V47.9359H189.286V53.5689H210.533V57.6628H185.145V34.9878H209.644Z" fill="#1A1A1A"/>
<path d="M282.096 34.9878V39.0817H261.817V43.842H280.748V47.9359H261.817V53.5689H283.064V57.6628H257.676V34.9878H282.096Z" fill="#1A1A1A"/>
<path d="M291.857 57.6785H285.906L297.633 46.571L285.906 35.0034H291.825L300.505 43.7942L309.232 35.0034H315.119L303.393 46.4599L315.119 57.6943H308.978L300.505 49.4907L291.857 57.6785Z" fill="#1A1A1A"/>
<path d="M318.039 57.647V34.9878H334.161C337.906 34.9878 340 36.765 340 40.8271V44.921C340 49.2688 338.191 50.7762 333.939 50.7762H322.117V57.6787L318.039 57.647ZM322.117 46.6665H334.145C334.375 46.6732 334.604 46.6325 334.818 46.5469C335.032 46.4613 335.226 46.3328 335.388 46.1691C335.551 46.0054 335.677 45.8102 335.761 45.5955C335.845 45.3808 335.883 45.1512 335.874 44.921V40.8271C335.89 40.4047 335.747 39.9917 335.474 39.6689C335.201 39.3461 334.818 39.1367 334.399 39.0817H322.117V46.6665Z" fill="#1A1A1A"/>
<path d="M369.273 34.9878V39.0817H348.899V43.842H367.829V47.9359H348.899V53.5689H370.162V57.6628H344.773V34.9878H369.273Z" fill="#1A1A1A"/>
<path d="M379.063 49.9511V57.6787H374.953V34.9878H391.154C394.899 34.9878 396.993 36.765 396.993 40.8271V44.1118C397.116 45.5871 396.73 47.06 395.899 48.285C396.581 48.6658 397.358 50.0463 397.358 52.8708C397.358 54.4575 397.358 52.8708 397.358 56.3934V57.6787H392.884V52.9184C392.884 51.6648 392.043 49.9987 390.932 49.9987L379.063 49.9511ZM379.063 45.8572H391.154C391.384 45.8639 391.614 45.8232 391.828 45.7376C392.041 45.6521 392.236 45.5235 392.398 45.3598C392.56 45.1962 392.687 45.001 392.77 44.7863C392.854 44.5716 392.892 44.342 392.884 44.1118V40.8271C392.903 40.4038 392.761 39.9888 392.488 39.6652C392.214 39.3416 391.829 39.1332 391.408 39.0817H379.063V45.8572Z" fill="#1A1A1A"/>
<path d="M426.636 34.9878V38.685H416.401V57.7263H412.292V38.685H402.422V34.9878H426.636Z" fill="#1A1A1A"/>
<path d="M451.344 41.9545V40.2884C451.344 39.5743 450.629 39.0665 449.265 39.0665H437.031C436.364 39.0665 435.555 39.5902 435.555 40.2884V42.8431C435.555 43.4619 439.157 44.176 443.172 44.4298C452.073 45.0963 455.437 46.3974 455.437 50.1422V52.4589C455.437 56.3465 453.375 57.7905 449.265 57.7905H437.539C433.476 57.7905 431.445 56.41 431.445 52.4589V50.9515H435.476V52.3637C435.476 53.1412 435.936 53.5855 437.063 53.5855H449.297C450.804 53.5855 451.375 53.0302 451.375 52.3637V50.1264C451.375 49.5551 448.297 48.8887 443.203 48.5396C435.269 47.9684 431.477 46.572 431.477 42.8113V40.2725C431.477 36.7657 433.476 34.9409 437.063 34.9409H449.297C453.755 34.9409 455.469 36.6546 455.469 40.2884V41.9545H451.344Z" fill="#1A1A1A"/>
<path d="M242.16 57.6787H236.051L227.752 49.2847L219.421 57.6787H213.344L224.769 46.2856L213.598 34.9878H219.421L227.752 43.2866L236.051 34.9878H241.89L230.735 46.2698L242.16 57.6787Z" fill="#1A1A1A"/>
<path d="M44.6343 53.3629L56.9001 33.4488L52.3619 23.6108L25.3867 69.1831H35.2723L40.7467 61.1222H61.9619V53.3629H44.6343ZM72.6251 61.1222H61.9619V69.1831H77.5917L72.6251 61.1222ZM72.0856 41.4303L76.8459 49.6816H108.216V41.4303H72.0856ZM61.9619 23.6108L70.2132 38.0822V31.7351H111.073V23.4839L61.9619 23.6108ZM83.2406 60.9318L88.0009 69.1831H112.913V60.9318H83.2406ZM56.9001 33.4488L52.3619 23.6108L56.9001 33.4488Z" fill="#3999D5"/>
</svg>
