<svg width="100" height="100" viewBox="0 0 100 100" fill="none" xmlns="http://www.w3.org/2000/svg">
<rect width="100" height="100" rx="20" fill="white" fill-opacity="0.5"/>
<path d="M41.0375 58.925C39.5457 60.0915 38.3393 61.5826 37.5098 63.2849C36.6802 64.9873 36.2494 66.8563 36.25 68.75V72.5H28.75C26.675 72.5 25 70.825 25 68.75V66.25C25 61.4125 28.9125 57.5 33.75 57.5H36.25C38.025 57.5 39.6625 58.025 41.0375 58.925Z" fill="#1F2A6B"/>
<path d="M65 57.5C68.1066 57.5 70.625 54.9816 70.625 51.875C70.625 48.7684 68.1066 46.25 65 46.25C61.8934 46.25 59.375 48.7684 59.375 51.875C59.375 54.9816 61.8934 57.5 65 57.5Z" fill="#1F2A6B"/>
<path d="M35 57.5C38.1066 57.5 40.625 54.9816 40.625 51.875C40.625 48.7684 38.1066 46.25 35 46.25C31.8934 46.25 29.375 48.7684 29.375 51.875C29.375 54.9816 31.8934 57.5 35 57.5Z" fill="#1F2A6B"/>
<path d="M75.0004 66.25V68.75C75.0004 70.825 73.3254 72.5 71.2504 72.5H63.7504V68.75C63.7504 64.7625 61.8754 61.2125 58.9629 58.925C60.3379 58.025 61.9754 57.5 63.7504 57.5H66.2504C71.0879 57.5 75.0004 61.4125 75.0004 66.25Z" fill="#1F2A6B"/>
<path d="M50 58.75C53.797 58.75 56.875 55.672 56.875 51.875C56.875 48.078 53.797 45 50 45C46.203 45 43.125 48.078 43.125 51.875C43.125 55.672 46.203 58.75 50 58.75Z" fill="#1F2A6B"/>
<path d="M51.2491 58.7496H48.7491C43.2353 58.7496 38.7491 63.2358 38.7491 68.7496V72.4996C38.7491 74.5671 40.4316 76.2496 42.4991 76.2496H57.4991C59.5666 76.2496 61.2491 74.5671 61.2491 72.4996V68.7496C61.2491 63.2358 56.7628 58.7496 51.2491 58.7496ZM68.1241 40.8546L65.1078 41.9271C64.91 41.9974 64.6979 42.0185 64.4901 41.9885C64.2822 41.9585 64.0848 41.8783 63.9149 41.7548C63.745 41.6313 63.6078 41.4683 63.5151 41.2799C63.4224 41.0914 63.377 40.8832 63.3828 40.6733L63.4703 37.4733L61.5178 34.9358C61.3899 34.7693 61.3044 34.5742 61.2688 34.3672C61.2331 34.1603 61.2484 33.9478 61.3132 33.7481C61.3781 33.5484 61.4906 33.3674 61.641 33.2209C61.7914 33.0744 61.9752 32.9667 62.1766 32.9071L65.2478 32.0021L67.0578 29.3608C67.1765 29.1876 67.3356 29.0459 67.5214 28.9479C67.7072 28.85 67.9141 28.7988 68.1241 28.7988C68.3341 28.7988 68.5409 28.85 68.7267 28.9479C68.9125 29.0459 69.0716 29.1876 69.1903 29.3608L71.0003 32.0021L74.0716 32.9071C74.9428 33.1633 75.2841 34.2158 74.7303 34.9358L72.7778 37.4733L72.8653 40.6733C72.8709 40.8832 72.8253 41.0912 72.7325 41.2795C72.6397 41.4677 72.5024 41.6306 72.3327 41.754C72.1629 41.8774 71.9656 41.9577 71.7579 41.9878C71.5501 42.018 71.3382 41.9971 71.1403 41.9271L68.1241 40.8546ZM31.8741 40.8546L28.8578 41.9271C28.6599 41.9974 28.4479 42.0185 28.2401 41.9885C28.0322 41.9585 27.8348 41.8783 27.6649 41.7548C27.495 41.6313 27.3578 41.4683 27.2651 41.2799C27.1724 41.0914 27.127 40.8832 27.1328 40.6733L27.2203 37.4733L25.2678 34.9358C25.1399 34.7693 25.0544 34.5742 25.0188 34.3672C24.9831 34.1603 24.9984 33.9478 25.0632 33.7481C25.1281 33.5484 25.2406 33.3674 25.391 33.2209C25.5414 33.0744 25.7252 32.9667 25.9266 32.9071L28.9978 32.0021L30.8078 29.3608C30.9265 29.1876 31.0856 29.0459 31.2714 28.9479C31.4572 28.85 31.6641 28.7988 31.8741 28.7988C32.0841 28.7988 32.2909 28.85 32.4767 28.9479C32.6625 29.0459 32.8216 29.1876 32.9403 29.3608L34.7503 32.0021L37.8216 32.9071C38.6928 33.1633 39.0341 34.2158 38.4803 34.9358L36.5278 37.4733L36.6153 40.6733C36.6209 40.8832 36.5753 41.0912 36.4825 41.2795C36.3897 41.4677 36.2524 41.6306 36.0827 41.754C35.9129 41.8774 35.7156 41.9577 35.5079 41.9878C35.3001 42.018 35.0882 41.9971 34.8903 41.9271L31.8741 40.8546ZM49.9991 38.0421L46.4228 39.3133C46.1882 39.3967 45.9369 39.4216 45.6905 39.386C45.4441 39.3504 45.2101 39.2553 45.0088 39.1089C44.8074 38.9626 44.6447 38.7694 44.5348 38.546C44.4248 38.3227 44.371 38.0759 44.3778 37.8271L44.4816 34.0333L42.1666 31.0246C42.0149 30.8271 41.9136 30.5958 41.8714 30.3505C41.8292 30.1051 41.8473 29.8532 41.9242 29.6165C42.0011 29.3797 42.1345 29.1652 42.3128 28.9915C42.4912 28.8179 42.7091 28.6902 42.9478 28.6196L46.5891 27.5458L48.7353 24.4146C48.8761 24.2091 49.0647 24.041 49.285 23.9249C49.5054 23.8087 49.7506 23.748 49.9997 23.748C50.2487 23.748 50.494 23.8087 50.7143 23.9249C50.9347 24.041 51.1233 24.2091 51.2641 24.4146L53.4103 27.5458L57.0516 28.6196C57.2903 28.6902 57.5082 28.8179 57.6865 28.9915C57.8649 29.1652 57.9983 29.3797 58.0752 29.6165C58.1521 29.8532 58.1702 30.1051 58.128 30.3505C58.0858 30.5958 57.9845 30.8271 57.8328 31.0246L55.5178 34.0333L55.6216 37.8271C55.6284 38.0759 55.5746 38.3227 55.4646 38.546C55.3547 38.7694 55.192 38.9626 54.9906 39.1089C54.7892 39.2553 54.5552 39.3504 54.3089 39.386C54.0625 39.4216 53.8111 39.3967 53.5766 39.3133L49.9991 38.0421Z" fill="#1F2A6B"/>
</svg>
