<svg width="100" height="100" viewBox="0 0 100 100" fill="none" xmlns="http://www.w3.org/2000/svg">
<rect width="100" height="100" rx="20" fill="white" fill-opacity="0.5"/>
<path d="M69.6681 32.4872L51.5181 24.1247L51.2369 24.0122C50.4248 23.8058 49.574 23.8058 48.7619 24.0122L48.4806 24.1247L30.3306 32.4872C29.4733 32.8819 28.7551 33.5262 28.2701 34.3358C27.785 35.1454 27.5556 36.0826 27.6119 37.0247L28.2494 47.6747C28.6111 53.8002 30.7069 59.6966 34.2923 64.6763C37.8777 69.656 42.8049 73.5137 48.4994 75.7997C48.9766 76.0145 49.4948 76.1233 50.0181 76.1184C50.5156 76.1261 51.0086 76.0236 51.4619 75.8184C57.1633 73.5381 62.0984 69.6828 65.6908 64.7027C69.2831 59.7225 71.3844 53.8232 71.7494 47.6934L72.3869 37.0434C72.4471 36.0982 72.2195 35.157 71.7342 34.3436C71.2489 33.5303 70.5285 32.8831 69.6681 32.4872ZM59.8431 45.6122L49.8306 56.8622C49.6677 57.0486 49.4695 57.2009 49.2475 57.3103C49.0254 57.4197 48.7839 57.4841 48.5369 57.4997H48.4431C47.972 57.5032 47.5168 57.3291 47.1681 57.0122L40.2869 50.6747C39.9214 50.3365 39.7052 49.867 39.6858 49.3695C39.6665 48.8719 39.8456 48.3871 40.1837 48.0216C40.5219 47.6561 40.9914 47.4399 41.4889 47.4205C41.9865 47.4012 42.4714 47.5803 42.8369 47.9184L48.3119 52.9622L57.0306 43.1372C57.3653 42.7887 57.8216 42.5829 58.3043 42.5627C58.787 42.5424 59.2589 42.7093 59.6216 43.0285C59.9842 43.3476 60.2097 43.7945 60.251 44.2758C60.2923 44.7572 60.1462 45.2359 59.8431 45.6122Z" fill="#1F2A6B"/>
</svg>
