<svg width="100" height="100" viewBox="0 0 100 100" fill="none" xmlns="http://www.w3.org/2000/svg">
<rect width="100" height="100" rx="20" fill="white" fill-opacity="0.5"/>
<g clip-path="url(#clip0_336_3854)">
<path fill-rule="evenodd" clip-rule="evenodd" d="M57.5 25.625H51.875V20H48.125V25.625H42.5V20H38.75V25.625H35C32.5156 25.625 30.125 26.6131 28.3719 28.3709C27.5004 29.2408 26.8091 30.2741 26.3377 31.4117C25.8664 32.5493 25.6242 33.7687 25.625 35V38.75H20V42.5H25.625V48.125H20V51.875H25.625V57.5H20V61.25H25.625V65C25.6242 66.2313 25.8664 67.4507 26.3377 68.5883C26.8091 69.7259 27.5004 70.7592 28.3719 71.6291C29.2421 72.4998 30.2754 73.1904 31.4127 73.6616C32.55 74.1327 33.769 74.3752 35 74.375H38.75V80H42.5V74.375H48.125V80H51.875V74.375H57.5V80H61.25V74.375H65C67.4844 74.375 69.875 73.3869 71.6281 71.6291C72.4996 70.7592 73.1909 69.7259 73.6623 68.5883C74.1336 67.4507 74.3758 66.2313 74.375 65V61.25H80V57.5H74.375V51.875H80V48.125H74.375V42.5H80V38.75H74.375V35C74.3758 33.7687 74.1336 32.5493 73.6623 31.4117C73.1909 30.2741 72.4996 29.2408 71.6281 28.3709C70.7579 27.5002 69.7246 26.8096 68.5873 26.3384C67.45 25.8673 66.231 25.6248 65 25.625H61.25V20H57.5V25.625ZM57.5 38.75V61.25H61.25V38.75H57.5ZM38.75 45.3125V61.25H42.5V54.6875H48.125V61.25H51.875V45.3125C51.875 41.6881 48.9406 38.75 45.3125 38.75C41.6844 38.75 38.75 41.6881 38.75 45.3125ZM48.125 50.9375V45.3125C48.125 43.7591 46.8687 42.5 45.3125 42.5C43.7563 42.5 42.5 43.7591 42.5 45.3125V50.9375H48.125Z" fill="#1F2A6B"/>
</g>
<defs>
<clipPath id="clip0_336_3854">
<rect width="60" height="60" fill="white" transform="translate(20 20)"/>
</clipPath>
</defs>
</svg>
