<svg width="90" height="90" viewBox="0 0 90 90" fill="none" xmlns="http://www.w3.org/2000/svg">
<rect width="90" height="90" rx="20" fill="white" fill-opacity="0.5"/>
<g clip-path="url(#clip0_336_3875)">
<path d="M67.2 33.4719L67.0375 33.5438C63.3937 35.1656 59.6094 36.3438 55.7281 37.1187C56.8245 42.3212 56.8224 47.6953 55.7219 52.8969C59.6031 53.6688 63.4062 54.8375 67.0344 56.4531L67.1938 56.525C68.9781 53.0719 70 49.1594 70 45C70 40.8406 68.9781 36.9281 67.2 33.4719ZM38.175 55.4656C39.5562 59.8625 41.8344 64.0281 44.9969 67.7094C48.1594 64.0281 50.4406 59.8625 51.8188 55.4656C47.2906 54.8656 42.7031 54.8688 38.175 55.4656ZM52.6313 37.6062C50.1188 37.9594 47.5812 38.2 45 38.2C42.4156 38.2 39.8781 37.9562 37.3656 37.6062C36.3125 42.4875 36.3125 47.5375 37.3719 52.4187C42.4319 51.7156 47.5649 51.7156 52.625 52.4187C53.6849 47.5384 53.687 42.4875 52.6313 37.6062ZM44.9969 22.2906C41.8344 25.9719 39.5562 30.1375 38.175 34.5375C42.7033 35.1344 47.2904 35.1344 51.8188 34.5375C50.4375 30.1406 48.1594 25.9719 44.9969 22.2906ZM47.1531 20C50.8219 24.2 53.4344 28.9906 54.9531 34.05C58.5969 33.3375 62.1656 32.2531 65.5719 30.75C61.4469 24.7531 54.7906 20.6562 47.1531 20ZM24.425 30.75C27.8344 32.25 31.4031 33.3375 35.0438 34.05C36.5625 28.9906 39.175 24.2 42.8438 20C35.2063 20.6562 28.5531 24.7531 24.425 30.75ZM34.2719 37.1219C30.3906 36.3438 26.6094 35.1687 22.9688 33.5469L22.8063 33.475C21.0219 36.9281 20 40.8406 20 45C20 49.1594 21.0219 53.0719 22.8063 56.5281L22.9688 56.4563C26.5938 54.8375 30.3969 53.6688 34.2781 52.9C33.175 47.7 33.175 42.325 34.2719 37.1219ZM35.0438 55.9531C31.4 56.6625 27.8313 57.75 24.425 59.25C28.5531 65.2469 35.2063 69.3438 42.8438 70C39.175 65.8 36.5625 61.0094 35.0438 55.9531ZM54.9531 55.95C53.4375 61.0094 50.8219 65.8 47.1531 70C54.7906 69.3438 61.4469 65.2469 65.5719 59.25C62.1656 57.7469 58.5969 56.6625 54.9531 55.95Z" fill="#1F2A6B"/>
</g>
<defs>
<clipPath id="clip0_336_3875">
<rect width="50" height="50" fill="white" transform="translate(20 20)"/>
</clipPath>
</defs>
</svg>
