<svg width="100" height="100" viewBox="0 0 100 100" fill="none" xmlns="http://www.w3.org/2000/svg">
<path fill-rule="evenodd" clip-rule="evenodd" d="M47.0547 10.5792C53.2408 10.5792 59.1166 11.9072 64.4133 14.2929L61.6434 17.0599L63.6576 26.406L60.6914 29.366C56.6824 27.0376 52.0246 25.7037 47.0547 25.7037C32.0357 25.7037 19.8605 37.8789 19.8605 52.8978C19.8605 67.9167 32.0357 80.0919 47.0547 80.0919C62.0736 80.0919 74.2488 67.9167 74.2488 52.8978C74.2488 47.9484 72.9262 43.3078 70.6154 39.3103L73.5605 36.3714L82.9861 38.4027L85.7201 35.6716C88.0682 40.9337 89.3734 46.7634 89.3734 52.8978C89.3734 76.2697 70.4268 95.2164 47.0549 95.2164C23.683 95.2164 4.73633 76.2697 4.73633 52.8978C4.73633 29.5259 23.683 10.5792 47.0547 10.5792ZM47.0547 45.5154C42.9762 45.5154 39.6725 48.8191 39.6725 52.8976C39.6725 56.9763 42.9762 60.28 47.0547 60.28C51.1334 60.28 54.4371 56.9763 54.4371 52.8976C54.4387 51.7546 54.1739 50.627 53.6637 49.6042L72.0549 31.2515L81.4773 33.2822L94.9742 19.7853C95.2336 19.5259 95.3242 19.1708 95.2203 18.8187C95.1166 18.4666 94.8482 18.2175 94.4895 18.1402L84.1369 15.9091L81.9055 5.55679C81.8281 5.198 81.5789 4.92964 81.227 4.82573C80.8748 4.72202 80.5199 4.81245 80.2605 5.07202L66.7637 18.5689L68.7785 27.9181L50.3621 46.296C49.3358 45.781 48.203 45.5137 47.0547 45.5154ZM47.0547 30.3912C34.6246 30.3912 24.548 40.4677 24.548 52.8978C24.548 65.3279 34.6246 75.4044 47.0547 75.4044C59.4848 75.4044 69.5613 65.3279 69.5613 52.8978C69.5613 49.2521 68.6936 45.8093 67.1547 42.7636L58.9648 50.9363C59.071 51.5847 59.1244 52.2407 59.1244 52.8978C59.1244 59.5638 53.7205 64.9675 47.0547 64.9675C40.3889 64.9675 34.985 59.5636 34.985 52.8978C34.985 46.232 40.3887 40.8281 47.0547 40.8281C47.7314 40.8281 48.3949 40.8847 49.0412 40.9917L57.2313 32.8189C54.1752 31.2667 50.7174 30.3912 47.0547 30.3912Z" fill="#1F2A6B"/>
</svg>
