<svg width="90" height="90" viewBox="0 0 90 90" fill="none" xmlns="http://www.w3.org/2000/svg">
<rect width="90" height="90" rx="20" fill="#E8EBFA"/>
<g clip-path="url(#clip0_0_41)">
<path d="M44.3016 49.5704C43.932 49.0296 43.7629 48.3767 43.8235 47.7246C43.8841 47.0724 44.1707 46.4618 44.6336 45.9985L46.1086 44.5235C46.5717 44.0605 47.1822 43.7739 47.8342 43.7132C48.4863 43.6526 49.1391 43.8218 49.6797 44.1915L51.1914 45.2258C51.2085 45.1492 51.2323 45.0741 51.2625 45.0016C51.4641 44.5797 52.4141 42.4641 52.5797 42.193C52.83 41.784 53.1811 41.446 53.5994 41.2114C54.0177 40.9768 54.4892 40.8535 54.9687 40.8532H57.0547C57.2053 40.8543 57.3555 40.8676 57.5039 40.893C57.5232 40.7952 57.5331 40.6958 57.5336 40.5961V37.7032C57.5334 37.3358 57.4048 36.98 57.1702 36.6973C56.9355 36.4145 56.6095 36.2226 56.2484 36.1547L52.8969 35.5258C52.6507 35.4817 52.4203 35.3737 52.2288 35.2128C52.0374 35.0519 51.8914 34.8436 51.8055 34.6086C51.6471 34.1624 51.4659 33.7245 51.2625 33.2969C51.1581 33.0698 51.1149 32.8193 51.1371 32.5703C51.1593 32.3214 51.2462 32.0825 51.3891 31.8774L53.3117 29.0649C53.5188 28.7615 53.6136 28.3953 53.5796 28.0295C53.5457 27.6636 53.3852 27.3211 53.1258 27.061L51.0812 25.0165C50.8213 24.7568 50.4788 24.5961 50.1129 24.562C49.7471 24.5279 49.3808 24.6226 49.0773 24.8297L46.2648 26.754C46.0596 26.897 45.8205 26.9839 45.5713 27.0058C45.3222 27.0277 45.0716 26.984 44.8445 26.879C44.4167 26.6758 43.9786 26.4951 43.532 26.3375C43.2971 26.2511 43.0889 26.1046 42.9282 25.9127C42.7674 25.7208 42.6597 25.4902 42.6156 25.2438L41.9867 21.8938C41.9193 21.5326 41.7276 21.2065 41.445 20.9718C41.1623 20.7371 40.8065 20.6086 40.4391 20.6086H37.5469C37.1793 20.6087 36.8234 20.7371 36.5405 20.9718C36.2576 21.2065 36.0656 21.5326 35.9977 21.8938L35.3695 25.2446C35.3254 25.4911 35.2176 25.7218 35.0567 25.9136C34.8957 26.1055 34.6874 26.2519 34.4523 26.3383C34.0059 26.4957 33.5681 26.6764 33.1406 26.8797C32.9135 26.9845 32.663 27.028 32.4138 27.0061C32.1647 26.9842 31.9256 26.8975 31.7203 26.7547L28.9078 24.8305C28.6043 24.6235 28.238 24.5289 27.8722 24.563C27.5064 24.5971 27.164 24.7577 26.9039 25.0172L24.8594 27.0618C24.5999 27.3218 24.4392 27.6643 24.4051 28.0301C24.371 28.3959 24.4657 28.7621 24.6727 29.0657L26.5969 31.8782C26.7398 32.0834 26.8265 32.3225 26.8485 32.5717C26.8704 32.8208 26.8268 33.0714 26.7219 33.2985C26.5184 33.726 26.3374 34.1638 26.1797 34.6102C26.0935 34.8451 25.9472 35.0534 25.7554 35.2142C25.5636 35.375 25.3331 35.4827 25.0867 35.5266L21.7367 36.1555C21.3761 36.2237 21.0505 36.4156 20.8162 36.6982C20.5819 36.9807 20.4535 37.3361 20.4531 37.7032V40.5946C20.4532 40.9621 20.5816 41.3181 20.8163 41.601C21.0509 41.8839 21.3771 42.0759 21.7383 42.1438L25.0883 42.7719C25.3348 42.816 25.5655 42.924 25.7573 43.085C25.9491 43.2461 26.0953 43.4547 26.1813 43.6899C26.3391 44.136 26.5201 44.5736 26.7234 45.0008C26.8283 45.2279 26.872 45.4785 26.85 45.7276C26.8281 45.9768 26.7414 46.2159 26.5984 46.4211L24.6742 49.2336C24.467 49.5372 24.3724 49.9035 24.4066 50.2694C24.4408 50.6353 24.6018 50.9777 24.8617 51.2376L26.9055 53.2821C27.1655 53.5417 27.508 53.7024 27.8739 53.7364C28.2398 53.7703 28.606 53.6754 28.9094 53.468L31.7219 51.5446C31.9274 51.4019 32.1666 51.3153 32.4158 51.2934C32.6651 51.2714 32.9157 51.3149 33.143 51.4196C33.5701 51.6233 34.0077 51.8043 34.4539 51.9618C34.689 52.0481 34.8973 52.1946 35.0582 52.3864C35.2191 52.5783 35.327 52.809 35.3711 53.0555L36 56.4055C36.0679 56.7666 36.2598 57.0926 36.5425 57.3273C36.8252 57.5619 37.181 57.6904 37.5484 57.6907H40.4398C40.6472 57.6894 40.8522 57.6469 41.043 57.5657C40.9937 57.3622 40.9675 57.1539 40.9648 56.9446V54.8586C40.965 54.3887 41.0829 53.9262 41.308 53.5136C41.5331 53.101 41.858 52.7515 42.2531 52.4969C43.301 52.0228 44.3804 51.6215 45.4836 51.2961L44.3016 49.5704ZM38.993 45.0938C37.8174 45.0938 36.6682 44.7452 35.6908 44.0921C34.7134 43.439 33.9515 42.5107 33.5017 41.4246C33.0518 40.3385 32.9341 39.1435 33.1634 37.9905C33.3928 36.8375 33.9589 35.7784 34.7901 34.9472C35.6214 34.1159 36.6804 33.5498 37.8334 33.3205C38.9864 33.0912 40.1815 33.2089 41.2675 33.6587C42.3536 34.1086 43.2819 34.8704 43.935 35.8479C44.5881 36.8253 44.9367 37.9745 44.9367 39.15C44.9365 40.7263 44.3102 42.2379 43.1956 43.3524C42.0809 44.4669 40.5692 45.0938 38.993 45.0938Z" fill="#1F2A6B"/>
<path d="M68.409 54.0181L65.9918 53.5649C65.7655 53.5241 65.5538 53.4247 65.3779 53.2765C65.202 53.1283 65.0681 52.9365 64.9895 52.7204C64.8792 52.4077 64.7524 52.101 64.6098 51.8017C64.5128 51.5934 64.4721 51.3633 64.4917 51.1344C64.5113 50.9055 64.5905 50.6857 64.7215 50.497L66.1098 48.4673C66.2223 48.3026 66.2737 48.1038 66.2551 47.9052C66.2366 47.7066 66.1492 47.5208 66.0082 47.3798L64.534 45.9048C64.3931 45.7636 64.2072 45.6762 64.0086 45.6576C63.81 45.6391 63.6111 45.6906 63.4465 45.8032L61.4168 47.1915C61.2281 47.3227 61.0084 47.4021 60.7795 47.4219C60.5505 47.4416 60.3204 47.401 60.1121 47.304C59.8127 47.1615 59.506 47.0348 59.1934 46.9243C58.9772 46.8458 58.7854 46.7118 58.6372 46.536C58.489 46.3601 58.3896 46.1483 58.3488 45.922L57.8949 43.504C57.858 43.3081 57.7537 43.1312 57.6003 43.004C57.4468 42.8768 57.2537 42.8071 57.0543 42.8071H54.9684C54.769 42.8071 54.5759 42.8768 54.4224 43.004C54.2689 43.1312 54.1647 43.3081 54.1277 43.504L53.6746 45.922C53.6338 46.1484 53.5343 46.3602 53.3859 46.5361C53.2376 46.712 53.0456 46.8459 52.8293 46.9243C52.5166 47.0348 52.21 47.1615 51.9105 47.304C51.7022 47.401 51.4721 47.4416 51.2432 47.4219C51.0143 47.4021 50.7945 47.3227 50.6059 47.1915L48.577 45.804C48.4123 45.6915 48.2135 45.6401 48.0149 45.6586C47.8163 45.6772 47.6305 45.7645 47.4895 45.9056L46.0145 47.3798C45.8734 47.5208 45.7861 47.7066 45.7675 47.9052C45.749 48.1038 45.8004 48.3026 45.9129 48.4673L47.3012 50.4962C47.4322 50.6849 47.5115 50.9047 47.5311 51.1336C47.5507 51.3626 47.51 51.5926 47.4129 51.8009C47.2705 52.1005 47.144 52.4074 47.034 52.7204C46.9553 52.9366 46.8212 53.1284 46.6452 53.2766C46.4692 53.4248 46.2573 53.5243 46.0309 53.5649L43.6137 54.0181C43.4176 54.0549 43.2406 54.159 43.1132 54.3125C42.9858 54.466 42.9161 54.6592 42.916 54.8587V56.9446C42.9161 57.1441 42.9858 57.3373 43.1132 57.4908C43.2406 57.6443 43.4176 57.7485 43.6137 57.7853L46.0309 58.2384C46.2572 58.2792 46.4689 58.3786 46.6448 58.5268C46.8206 58.675 46.9546 58.8668 47.0332 59.0829C47.1435 59.3959 47.2702 59.7028 47.4129 60.0024C47.51 60.2107 47.5507 60.4408 47.5311 60.6697C47.5115 60.8986 47.4322 61.1184 47.3012 61.3071L45.9129 63.336C45.8004 63.5007 45.749 63.6995 45.7675 63.8981C45.7861 64.0967 45.8734 64.2825 46.0145 64.4235L47.4895 65.8985C47.6305 66.0396 47.8163 66.1269 48.0149 66.1455C48.2135 66.164 48.4123 66.1126 48.577 66.0001L50.6059 64.6118C50.7945 64.4806 51.0143 64.4012 51.2432 64.3815C51.4721 64.3617 51.7022 64.4024 51.9105 64.4993C52.21 64.6418 52.5166 64.7686 52.8293 64.879C53.0456 64.9574 53.2376 65.0913 53.3859 65.2672C53.5343 65.4431 53.6338 65.6549 53.6746 65.8813L54.1277 68.2993C54.1647 68.4952 54.2689 68.6721 54.4224 68.7993C54.5759 68.9265 54.769 68.9962 54.9684 68.9962H57.0543C57.2537 68.9962 57.4468 68.9265 57.6003 68.7993C57.7537 68.6721 57.858 68.4952 57.8949 68.2993L58.348 65.8813C58.3888 65.655 58.4882 65.4433 58.6364 65.2674C58.7846 65.0915 58.9764 64.9576 59.1926 64.879C59.5055 64.7686 59.8125 64.6419 60.1121 64.4993C60.3204 64.4024 60.5505 64.3617 60.7795 64.3815C61.0084 64.4012 61.2281 64.4806 61.4168 64.6118L63.4465 66.0001C63.6112 66.1126 63.81 66.164 64.0086 66.1455C64.2071 66.1269 64.393 66.0396 64.534 65.8985L66.009 64.4235C66.15 64.2827 66.2373 64.0969 66.2558 63.8985C66.2744 63.7001 66.223 63.5014 66.1105 63.3368L64.7215 61.3071C64.5904 61.1184 64.5111 60.8986 64.4915 60.6697C64.4719 60.4408 64.5127 60.2107 64.6098 60.0024C64.7524 59.7031 64.8791 59.3964 64.9895 59.0837C65.0681 58.8676 65.202 58.6758 65.3779 58.5276C65.5538 58.3794 65.7655 58.28 65.9918 58.2392L68.409 57.786C68.6051 57.7494 68.7822 57.6453 68.9096 57.4917C69.0371 57.3382 69.1068 57.1449 69.1066 56.9454V54.8595C69.1068 54.6599 69.0371 54.4665 68.9097 54.3128C68.7823 54.1592 68.6052 54.0549 68.409 54.0181ZM56.0113 60.7556C55.0513 60.7556 54.1129 60.4709 53.3146 59.9375C52.5164 59.4042 51.8943 58.6461 51.5269 57.7592C51.1595 56.8722 51.0634 55.8963 51.2507 54.9547C51.438 54.0131 51.9003 53.1483 52.5791 52.4694C53.2579 51.7906 54.1228 51.3283 55.0644 51.141C56.0059 50.9537 56.9819 51.0499 57.8688 51.4172C58.7558 51.7846 59.5138 52.4068 60.0472 53.205C60.5806 54.0032 60.8652 54.9416 60.8652 55.9017C60.8652 56.5391 60.7397 57.1703 60.4958 57.7592C60.2518 58.3481 59.8943 58.8832 59.4436 59.3339C58.9928 59.7846 58.4577 60.1422 57.8688 60.3861C57.2799 60.63 56.6488 60.7556 56.0113 60.7556Z" fill="#1F2A6B"/>
</g>
<defs>
<clipPath id="clip0_0_41">
<rect width="50" height="50" fill="white" transform="translate(20 20)"/>
</clipPath>
</defs>
</svg>
