<svg width="90" height="90" viewBox="0 0 90 90" fill="none" xmlns="http://www.w3.org/2000/svg">
<rect width="90" height="90" rx="20" fill="#E8EBFA"/>
<path d="M62.7083 37.7084H43.9583C42.5774 37.7101 41.2536 38.2594 40.2772 39.2358C39.3009 40.2122 38.7516 41.536 38.7499 42.9168V55.4168C38.7516 56.7976 39.3009 58.1214 40.2772 59.0978C41.2536 60.0742 42.5774 60.6235 43.9583 60.6251H54.4645L58.9989 65.1605C59.2174 65.3792 59.4959 65.5281 59.7991 65.5885C60.1023 65.6488 60.4165 65.6179 60.7021 65.4996C60.9877 65.3812 61.2318 65.1809 61.4035 64.9238C61.5752 64.6667 61.6667 64.3645 61.6666 64.0553V60.6251H62.7083C64.0891 60.6235 65.4129 60.0742 66.3893 59.0978C67.3657 58.1214 67.9149 56.7976 67.9166 55.4168V42.9168C67.9149 41.536 67.3657 40.2122 66.3893 39.2358C65.4129 38.2594 64.0891 37.7101 62.7083 37.7084ZM58.5416 47.6043H57.9593C57.7185 49.7551 56.7389 51.7557 55.1874 53.2647C56.0826 53.6499 57.0463 53.8505 58.0208 53.8543C58.301 53.8528 58.5707 53.9609 58.7723 54.1555C58.9739 54.3501 59.0915 54.6158 59.0999 54.8959C59.1041 55.0308 59.0812 55.1651 59.0327 55.291C58.9841 55.4169 58.9108 55.5318 58.8171 55.6288C58.7234 55.7259 58.6112 55.8033 58.4871 55.8563C58.3631 55.9093 58.2296 55.937 58.0947 55.9376C56.4296 55.933 54.7948 55.4912 53.3541 54.6564C51.9266 55.4947 50.3012 55.937 48.6458 55.9376C48.3655 55.9391 48.0958 55.831 47.8942 55.6364C47.6926 55.4418 47.575 55.176 47.5666 54.8959C47.5624 54.7611 47.5853 54.6268 47.6339 54.5009C47.6825 54.375 47.7558 54.2601 47.8495 54.1631C47.9431 54.066 48.0553 53.9886 48.1794 53.9356C48.3035 53.8826 48.4369 53.8549 48.5718 53.8543C49.5783 53.8555 50.5745 53.6521 51.4999 53.2564C50.6923 52.4883 50.0306 51.5802 49.5468 50.5762C49.4831 50.452 49.4449 50.3164 49.4346 50.1772C49.4243 50.038 49.4421 49.8982 49.4869 49.7661C49.5317 49.6339 49.6025 49.5121 49.6953 49.4079C49.7881 49.3036 49.9008 49.2191 50.0269 49.1593C50.153 49.0995 50.2898 49.0656 50.4292 49.0596C50.5686 49.0537 50.7078 49.0758 50.8384 49.1247C50.9691 49.1736 51.0887 49.2483 51.19 49.3442C51.2912 49.4402 51.3722 49.5556 51.4281 49.6834C51.8774 50.6272 52.5251 51.4629 53.327 52.1334C54.699 50.987 55.599 49.374 55.8541 47.6043H48.1249C47.8487 47.6043 47.5837 47.4945 47.3884 47.2992C47.193 47.1038 47.0833 46.8389 47.0833 46.5626C47.0833 46.2863 47.193 46.0214 47.3884 45.826C47.5837 45.6307 47.8487 45.5209 48.1249 45.5209H52.2916V43.4376C52.2916 43.1613 52.4013 42.8964 52.5967 42.701C52.792 42.5057 53.057 42.3959 53.3333 42.3959C53.6095 42.3959 53.8745 42.5057 54.0698 42.701C54.2652 42.8964 54.3749 43.1613 54.3749 43.4376V45.5209H58.5416C58.8179 45.5209 59.0828 45.6307 59.2782 45.826C59.4735 46.0214 59.5833 46.2863 59.5833 46.5626C59.5833 46.8389 59.4735 47.1038 59.2782 47.2992C59.0828 47.4945 58.8179 47.6043 58.5416 47.6043ZM36.6666 35.0178L34.9697 38.7501H37.9833C38.0583 38.6459 38.1385 38.5418 38.2197 38.4376L36.6666 35.0178Z" fill="#3B3F8F"/>
<path d="M46.0413 26.25H27.2913C25.9105 26.2517 24.5867 26.8009 23.6103 27.7773C22.6339 28.7537 22.0847 30.0775 22.083 31.4583V43.9583C22.0847 45.3392 22.6339 46.663 23.6103 47.6394C24.5867 48.6157 25.9105 49.165 27.2913 49.1667H28.333V52.5969C28.3329 52.906 28.4244 53.2082 28.5961 53.4653C28.7678 53.7224 29.0119 53.9228 29.2975 54.0411C29.5831 54.1594 29.8973 54.1904 30.2005 54.13C30.5037 54.0697 30.7822 53.9207 31.0007 53.7021L35.5351 49.1667H36.6663V42.9167C36.6685 42.2107 36.7737 41.5088 36.9788 40.8333H34.0226L32.4059 44.3896C32.2877 44.6348 32.0781 44.8239 31.8221 44.9166C31.5662 45.0092 31.2841 44.9979 31.0363 44.8852C30.7886 44.7725 30.5947 44.5672 30.4964 44.3134C30.398 44.0596 30.403 43.7773 30.5101 43.5271L35.7184 32.0688C35.8013 31.8869 35.9347 31.7327 36.1028 31.6246C36.2709 31.5165 36.4665 31.459 36.6663 31.459C36.8662 31.459 37.0618 31.5165 37.2299 31.6246C37.398 31.7327 37.5314 31.8869 37.6143 32.0688L39.8195 36.9198C41.0343 36.0756 42.4786 35.6237 43.958 35.625H51.2497V31.4583C51.248 30.0775 50.6988 28.7537 49.7224 27.7773C48.746 26.8009 47.4222 26.2517 46.0413 26.25Z" fill="#3B3F8F"/>
</svg>
