<svg width="90" height="90" viewBox="0 0 90 90" fill="none" xmlns="http://www.w3.org/2000/svg">
<rect width="90" height="90" rx="20" fill="#E8EBFA"/>
<path d="M33.0208 50.2083C33.0208 49.4873 33.2347 48.7824 33.6353 48.1828C34.0359 47.5833 34.6053 47.116 35.2715 46.84C35.9377 46.5641 36.6707 46.4919 37.3779 46.6326C38.0852 46.7732 38.7348 47.1205 39.2447 47.6303C39.7545 48.1402 40.1018 48.7898 40.2424 49.4971C40.3831 50.2043 40.3109 50.9373 40.035 51.6035C39.759 52.2697 39.2917 52.8391 38.6922 53.2397C38.0926 53.6403 37.3877 53.8542 36.6667 53.8542C35.7014 53.8487 34.7773 53.4628 34.0947 52.7803C33.4122 52.0977 33.0263 51.1736 33.0208 50.2083ZM24.6875 38.2292H65.3125V60.625C65.3125 61.8682 64.8186 63.0605 63.9396 63.9396C63.0605 64.8186 61.8682 65.3125 60.625 65.3125H29.375C28.1318 65.3125 26.9395 64.8186 26.0604 63.9396C25.1814 63.0605 24.6875 61.8682 24.6875 60.625V38.2292ZM56.7708 55.4167C56.7708 55.8311 56.9355 56.2285 57.2285 56.5215C57.5215 56.8145 57.9189 56.9792 58.3333 56.9792C58.7477 56.9792 59.1452 56.8145 59.4382 56.5215C59.7312 56.2285 59.8958 55.8311 59.8958 55.4167V49.1667C59.8958 48.7523 59.7312 48.3548 59.4382 48.0618C59.1452 47.7688 58.7477 47.6042 58.3333 47.6042C57.9189 47.6042 57.5215 47.7688 57.2285 48.0618C56.9355 48.3548 56.7708 48.7523 56.7708 49.1667V55.4167ZM51.7708 55.4167C51.7708 55.8311 51.9355 56.2285 52.2285 56.5215C52.5215 56.8145 52.9189 56.9792 53.3333 56.9792C53.7477 56.9792 54.1452 56.8145 54.4382 56.5215C54.7312 56.2285 54.8958 55.8311 54.8958 55.4167V45C54.8958 44.5856 54.7312 44.1882 54.4382 43.8951C54.1452 43.6021 53.7477 43.4375 53.3333 43.4375C52.9189 43.4375 52.5215 43.6021 52.2285 43.8951C51.9355 44.1882 51.7708 44.5856 51.7708 45V55.4167ZM46.5625 55.4167C46.5625 55.8311 46.7271 56.2285 47.0201 56.5215C47.3132 56.8145 47.7106 56.9792 48.125 56.9792C48.5394 56.9792 48.9368 56.8145 49.2299 56.5215C49.5229 56.2285 49.6875 55.8311 49.6875 55.4167V51.25C49.6875 50.8356 49.5229 50.4382 49.2299 50.1451C48.9368 49.8521 48.5394 49.6875 48.125 49.6875C47.7106 49.6875 47.3132 49.8521 47.0201 50.1451C46.7271 50.4382 46.5625 50.8356 46.5625 51.25V55.4167ZM29.8958 50.2083C29.8958 51.5475 30.2929 52.8565 31.0369 53.97C31.7809 55.0835 32.8384 55.9513 34.0756 56.4638C35.3128 56.9762 36.6742 57.1103 37.9876 56.8491C39.301 56.5878 40.5074 55.943 41.4544 54.996C42.4013 54.0491 43.0461 52.8427 43.3074 51.5293C43.5687 50.2158 43.4346 48.8545 42.9221 47.6172C42.4096 46.38 41.5418 45.3226 40.4283 44.5786C39.3149 43.8346 38.0058 43.4375 36.6667 43.4375C34.8726 43.443 33.1536 44.1581 31.885 45.4267C30.6164 46.6953 29.9013 48.4143 29.8958 50.2083ZM65.3125 29.375V35.1042H24.6875V29.375C24.6875 28.1318 25.1814 26.9395 26.0604 26.0604C26.9395 25.1814 28.1318 24.6875 29.375 24.6875H60.625C61.8682 24.6875 63.0605 25.1814 63.9396 26.0604C64.8186 26.9395 65.3125 28.1318 65.3125 29.375ZM35.1042 30.4167C35.0988 30.0039 34.9324 29.6096 34.6406 29.3178C34.3487 29.0259 33.9544 28.8596 33.5417 28.8542H31.4583C31.0439 28.8542 30.6465 29.0188 30.3535 29.3118C30.0605 29.6048 29.8958 30.0023 29.8958 30.4167C29.8958 30.8311 30.0605 31.2285 30.3535 31.5215C30.6465 31.8145 31.0439 31.9792 31.4583 31.9792H33.5417C33.9544 31.9738 34.3487 31.8074 34.6406 31.5156C34.9324 31.2237 35.0988 30.8294 35.1042 30.4167ZM41.3542 30.4167C41.3488 30.0039 41.1824 29.6096 40.8906 29.3178C40.5987 29.0259 40.2044 28.8596 39.7917 28.8542H37.7083C37.2939 28.8542 36.8965 29.0188 36.6035 29.3118C36.3105 29.6048 36.1458 30.0023 36.1458 30.4167C36.1458 30.8311 36.3105 31.2285 36.6035 31.5215C36.8965 31.8145 37.2939 31.9792 37.7083 31.9792H39.7917C40.2044 31.9738 40.5987 31.8074 40.8906 31.5156C41.1824 31.2237 41.3488 30.8294 41.3542 30.4167Z" fill="#1F2A6B"/>
</svg>
