<svg width="100" height="100" viewBox="0 0 100 100" fill="none" xmlns="http://www.w3.org/2000/svg">
<path fill-rule="evenodd" clip-rule="evenodd" d="M47.8605 28.5988C42.3852 29.1551 37.3326 31.7928 33.7461 35.9671C30.1595 40.1414 28.3129 45.5336 28.5876 51.0302C28.8622 56.5268 31.2371 61.7081 35.2219 65.5041C39.2067 69.3001 44.497 71.421 50.0005 71.4288C52.8232 71.4435 55.6207 70.8968 58.2302 69.8204C60.8397 68.7439 63.209 67.1594 65.2005 65.1588C69.212 61.132 71.4693 55.6828 71.4805 49.9988C71.4805 49.3588 71.4805 48.6188 70.6305 48.6188H65.0005C64.1505 48.6188 64.1505 49.3588 64.1505 49.9988C64.1236 53.7633 62.6356 57.3702 60.0005 60.0588C57.346 62.7066 53.7497 64.1935 50.0005 64.1935C46.2512 64.1935 42.6549 62.7066 40.0005 60.0588C37.358 57.3734 35.8627 53.7661 35.8305 49.9988C35.8384 46.2422 37.3335 42.6415 39.9889 39.9843C42.6443 37.327 46.2439 35.8293 50.0005 35.8188C50.6405 35.8188 51.3805 35.8188 51.3805 34.9688V6.58876C51.4098 6.38979 51.396 6.18683 51.3399 5.9937C51.2837 5.80056 51.1866 5.62178 51.0552 5.46954C50.9238 5.31729 50.7611 5.19515 50.5782 5.11143C50.3954 5.02771 50.1966 4.98438 49.9955 4.98438C49.7943 4.98438 49.5956 5.02771 49.4127 5.11143C49.2298 5.19515 49.0671 5.31729 48.9357 5.46954C48.8043 5.62178 48.7072 5.80056 48.6511 5.9937C48.595 6.18683 48.5811 6.38979 48.6105 6.58876V27.7488C48.6167 27.9576 48.544 28.1611 48.4068 28.3186C48.2697 28.4762 48.0781 28.5762 47.8705 28.5988H47.8605ZM88.0805 23.7088L75.7405 35.9988C75.6143 36.1372 75.4594 36.2464 75.2868 36.319C75.1141 36.3915 74.9276 36.4256 74.7405 36.4188H66.6905C66.2464 36.4367 65.8268 36.6268 65.5205 36.9488L50.8405 51.5488C50.7151 51.6748 50.566 51.775 50.4019 51.8434C50.2378 51.9119 50.0618 51.9474 49.884 51.9479C49.7062 51.9483 49.53 51.9138 49.3655 51.8462C49.2011 51.7785 49.0515 51.6792 48.9255 51.5538C48.7994 51.4284 48.6993 51.2793 48.6308 51.1152C48.5623 50.9511 48.5268 50.7751 48.5264 50.5973C48.5259 50.4195 48.5605 50.2433 48.6281 50.0788C48.6957 49.9144 48.7951 49.7648 48.9205 49.6388L63.5005 35.0788C63.6853 34.9252 63.8282 34.7272 63.9156 34.5033C64.0031 34.2794 64.0323 34.037 64.0005 33.7988V25.7988C64.0056 25.6198 64.0462 25.4437 64.12 25.2806C64.1939 25.1175 64.2994 24.9707 64.4305 24.8488L76.9105 12.4388C77.1057 12.2497 77.3524 12.1225 77.6197 12.0731C77.887 12.0237 78.1629 12.0543 78.4128 12.1611C78.6627 12.2679 78.8755 12.4462 79.0246 12.6734C79.1736 12.9007 79.2522 13.167 79.2505 13.4388V20.5588C79.2491 20.6708 79.2702 20.7819 79.3124 20.8856C79.3547 20.9894 79.4172 21.0836 79.4964 21.1628C79.5756 21.242 79.6699 21.3046 79.7736 21.3468C79.8773 21.389 79.9885 21.4101 80.1005 21.4088H87.1005C87.3765 21.3969 87.6497 21.4694 87.8835 21.6167C88.1174 21.764 88.3008 21.979 88.4094 22.2331C88.518 22.4872 88.5466 22.7683 88.4914 23.0391C88.4362 23.3099 88.2998 23.5574 88.1005 23.7488L88.0805 23.7088ZM75.0805 48.5788H93.7205C94.0865 48.5788 94.4375 48.7242 94.6963 48.983C94.9551 49.2418 95.1005 49.5928 95.1005 49.9588C95.1005 50.3248 94.9551 50.6758 94.6963 50.9346C94.4375 51.1934 94.0865 51.3388 93.7205 51.3388H86.4905C86.3761 51.328 86.2608 51.3425 86.1528 51.3814C86.0448 51.4203 85.9466 51.4826 85.8655 51.5638C85.7843 51.645 85.722 51.7431 85.6831 51.8511C85.6442 51.9592 85.6296 52.0745 85.6405 52.1888C85.1214 59.4903 82.4642 66.4774 78.0005 72.2788C73.0399 78.5918 66.096 83.0484 58.2905 84.9288C57.6505 85.0388 56.9005 84.9288 56.9005 84.0788V73.7688C56.925 73.5959 56.9982 73.4336 57.1115 73.3008C57.2248 73.168 57.3736 73.0702 57.5405 73.0188C61.1434 71.7625 64.4175 69.7119 67.1205 67.0188C71.6545 62.5117 74.2183 56.3918 74.2505 49.9988C74.2505 49.3588 74.2505 48.6188 75.1005 48.6188L75.0805 48.5788ZM51.3705 74.9988V93.5988C51.341 93.9458 51.1823 94.2691 50.9258 94.5047C50.6693 94.7402 50.3337 94.871 49.9855 94.871C49.6372 94.871 49.3016 94.7402 49.0452 94.5047C48.7887 94.2691 48.63 93.9458 48.6005 93.5988V86.5988C48.6091 86.3894 48.5373 86.1846 48.3996 86.0265C48.262 85.8684 48.0691 85.769 47.8605 85.7488C40.2328 85.238 32.9712 82.2895 27.1466 77.3382C21.322 72.3868 17.2427 65.6947 15.5105 58.2488C15.3005 57.6088 15.5105 56.9788 16.2505 56.9788H26.1505C26.3441 56.9644 26.5365 57.0202 26.6925 57.1358C26.8486 57.2515 26.9578 57.4193 27.0005 57.6088C28.6099 62.4361 31.6971 66.6348 35.8249 69.6104C39.9527 72.586 44.912 74.1877 50.0005 74.1888C50.6405 74.1888 51.3805 74.1888 51.3805 75.0388L51.3705 74.9988ZM24.8705 51.2988H6.36047C5.99447 51.2988 5.64346 51.1534 5.38466 50.8946C5.12586 50.6358 4.98047 50.2848 4.98047 49.9188C4.98047 49.5528 5.12586 49.2018 5.38466 48.943C5.64346 48.6842 5.99447 48.5388 6.36047 48.5388H13.5905C13.8205 48.5603 14.0504 48.4955 14.2353 48.3568C14.4201 48.2182 14.5468 48.0157 14.5905 47.7888C14.9704 40.1674 17.7624 32.8638 22.5632 26.9324C27.3641 21.001 33.9255 16.7485 41.3005 14.7888C41.4272 14.7658 41.5574 14.7702 41.6823 14.8019C41.8071 14.8335 41.9237 14.8916 42.0242 14.9722C42.1247 15.0527 42.2067 15.154 42.2647 15.269C42.3227 15.384 42.3554 15.5101 42.3605 15.6388V26.3588C42.3768 26.5388 42.3338 26.7193 42.2382 26.8727C42.1425 27.0262 41.9993 27.1441 41.8305 27.2088C38.4773 28.4193 35.427 30.3437 32.8905 32.8488C30.6226 35.0927 28.8215 37.7634 27.5909 40.7069C26.3603 43.6504 25.7246 46.8084 25.7205 49.9988C25.7205 50.6388 25.7205 51.3788 24.8705 51.3788V51.2988ZM60.5205 48.5388H59.1405C59.0307 48.5354 58.9223 48.5638 58.8282 48.6205C58.7342 48.6773 58.6586 48.76 58.6105 48.8588L53.3905 54.0688C48.8205 58.5688 42.0005 51.6588 46.4805 47.1988L51.0505 42.5188C51.1469 42.4679 51.2277 42.3916 51.2841 42.2982C51.3405 42.2048 51.3703 42.0979 51.3705 41.9888V39.4388C51.3563 39.218 51.2622 39.0099 51.1058 38.8534C50.9494 38.697 50.7413 38.6029 50.5205 38.5888C48.2188 38.5051 45.9456 39.1187 43.9987 40.3492C42.0518 41.5797 40.5221 43.3697 39.6099 45.4845C38.6978 47.5993 38.4458 49.9404 38.887 52.2009C39.3282 54.4614 40.4421 56.5358 42.0825 58.1525C43.723 59.7691 45.8135 60.8524 48.0803 61.2604C50.347 61.6685 52.6841 61.3822 54.7853 60.4392C56.8866 59.4962 58.6539 57.9403 59.8558 55.9756C61.0576 54.0109 61.6378 51.7289 61.5205 49.4288C61.4843 49.1903 61.3632 48.973 61.1794 48.8168C60.9957 48.6606 60.7616 48.576 60.5205 48.5788V48.5388Z" fill="#1F2A6B"/>
</svg>
