<svg width="384" height="60" viewBox="0 0 384 60" fill="none" xmlns="http://www.w3.org/2000/svg">
<path d="M26.665 39.7957H24.5472V29.006C24.5382 27.8609 24.7404 26.7268 25.1402 25.6795C25.5163 24.663 26.0553 23.7383 26.7286 22.9545C27.4 22.1673 28.1989 21.5416 29.0794 21.1132C29.9844 20.6555 30.9617 20.4214 31.9491 20.4258H41.7971C42.7878 20.4225 43.7684 20.6565 44.6774 21.1132C45.556 21.5458 46.3542 22.171 47.0283 22.9545C47.6982 23.7415 48.2368 24.6654 48.6167 25.6795C49.0082 26.7294 49.2066 27.8623 49.1991 29.006V39.7957H47.0812V29.006C47.0854 28.1958 46.9448 27.3934 46.6682 26.6492C46.4003 25.9288 46.0156 25.2746 45.5352 24.7221C45.0569 24.1617 44.4885 23.7154 43.8621 23.4087C43.2097 23.0855 42.5066 22.9225 41.7971 22.9299H31.9491C31.2468 22.9262 30.5513 23.0891 29.9053 23.4087C29.2728 23.709 28.6999 24.1559 28.2216 24.7221C27.7412 25.2746 27.3565 25.9288 27.0886 26.6492C26.812 27.3934 26.6714 28.1958 26.6756 29.006L26.665 39.7957ZM35.5918 32.173C35.5894 31.9772 35.621 31.7829 35.6846 31.6015C35.7483 31.4202 35.8428 31.2555 35.9624 31.1173C36.0806 30.9812 36.2211 30.8741 36.3758 30.8024C36.5305 30.7307 36.696 30.6958 36.8625 30.7C37.2018 30.6938 37.5293 30.8439 37.7732 31.1173C38.0071 31.4015 38.1363 31.7802 38.1332 32.173C38.1368 32.366 38.1068 32.5579 38.0449 32.7372C37.983 32.9165 37.8906 33.0794 37.7732 33.2164C37.6559 33.358 37.5142 33.4695 37.3573 33.5435C37.2004 33.6175 37.0318 33.6524 36.8625 33.646C36.6946 33.6539 36.5273 33.6195 36.3719 33.5454C36.2165 33.4712 36.0769 33.359 35.9624 33.2164C35.8416 33.0818 35.7462 32.9195 35.6824 32.7399C35.6186 32.5603 35.5877 32.3672 35.5918 32.173ZM83.1802 22.9299C82.8418 22.9283 82.5066 23.0044 82.1938 23.1537C81.8809 23.303 81.5967 23.5227 81.3575 23.8C81.1183 24.0773 80.9288 24.4067 80.8 24.7694C80.6712 25.132 80.6056 25.5206 80.607 25.9128C80.6008 26.302 80.6644 26.6884 80.7938 27.0476C80.9233 27.4068 81.1157 27.731 81.3588 27.9995C81.5946 28.281 81.8782 28.5027 82.1917 28.6506C82.5052 28.7985 82.8418 28.8694 83.1802 28.8587H97.1263C97.7581 28.8571 98.384 28.9989 98.9688 29.2761C99.5278 29.5607 100.04 29.9552 100.483 30.4422C100.927 30.937 101.286 31.5241 101.542 32.173C102.022 33.5424 102.022 35.0752 101.542 36.4447C101.286 37.0935 100.927 37.6807 100.483 38.1754C100.044 38.6843 99.5317 39.0998 98.9688 39.4029C98.3884 39.6994 97.7605 39.85 97.1263 39.8448H78.7326V37.3898H97.1263C97.4645 37.399 97.8007 37.3274 98.114 37.1796C98.4273 37.0318 98.7111 36.8109 98.9476 36.5306C99.4287 35.9694 99.6988 35.2104 99.6988 34.4193C99.6988 33.6282 99.4287 32.8692 98.9476 32.308C98.7137 32.0221 98.4309 31.7958 98.1173 31.6436C97.8037 31.4914 97.4662 31.4167 97.1263 31.4242H83.1802C82.5479 31.4318 81.9209 31.2898 81.3376 31.0069C80.7798 30.7333 80.2728 30.3373 79.8445 29.8407C79.4009 29.346 79.0417 28.7588 78.7856 28.11C78.5317 27.4495 78.4018 26.734 78.4044 26.011C78.3999 25.2758 78.5298 24.5479 78.7856 23.8751C79.0444 23.2244 79.4032 22.6338 79.8445 22.1321C80.2591 21.6016 80.7687 21.1827 81.3376 20.9046C81.9187 20.6119 82.5467 20.4655 83.1802 20.4749H101.574V22.9299H83.1802ZM147.637 28.8587C148.506 28.8523 149.358 29.1333 150.094 29.6689C150.837 30.1955 151.43 30.9639 151.799 31.8784L154.976 39.4643H152.593L149.861 32.9463C149.659 32.4641 149.343 32.0588 148.949 31.7782C148.555 31.4977 148.1 31.3535 147.637 31.3628H133.246V39.7957H131.129V20.4258H133.246V28.8587H144.079L149.829 20.4258H152.561L146.811 28.8587H147.637ZM189.55 39.7957C188.887 39.8017 188.231 39.647 187.622 39.3416C186.427 38.7404 185.473 37.6346 184.954 36.2483C184.688 35.5312 184.555 34.7577 184.562 33.9774V20.4749H186.68V33.9774C186.672 34.4148 186.741 34.8496 186.883 35.2549C187.025 35.6602 187.237 36.0275 187.506 36.3342C187.765 36.644 188.077 36.8889 188.421 37.0536C188.765 37.2182 189.135 37.2993 189.507 37.2916H207.647V39.7466L189.55 39.7957ZM235.327 31.3628C234.731 31.3672 234.139 31.2294 233.591 30.9578C232.527 30.4367 231.678 29.4608 231.219 28.2327C230.985 27.5962 230.866 26.9112 230.869 26.2196V20.4258H232.987V26.2074C232.986 26.556 233.044 26.9015 233.158 27.2239C233.273 27.5463 233.441 27.8393 233.654 28.0858C233.867 28.3323 234.119 28.5276 234.397 28.6602C234.676 28.7929 234.974 28.8604 235.274 28.8587H250.459C250.756 28.8661 251.051 28.801 251.325 28.6678C251.598 28.5345 251.845 28.3361 252.048 28.0854C252.264 27.8419 252.435 27.5496 252.549 27.2266C252.664 26.9035 252.72 26.5566 252.715 26.2074V20.4258H254.833V26.2074C254.864 26.8963 254.774 27.5854 254.568 28.2327C254.343 28.8426 254.02 29.3968 253.615 29.8653C253.213 30.3315 252.739 30.7062 252.217 30.97C251.676 31.2421 251.092 31.38 250.502 31.3751H243.958V39.808H241.84V31.3628H235.327ZM307.335 39.7957H287.215C286.534 39.8184 285.867 39.5665 285.328 39.083C284.79 38.5995 284.412 37.9143 284.26 37.1443C284.07 36.3896 284.115 35.5814 284.388 34.8612C284.658 34.119 285.146 33.5107 285.764 33.1427H285.859L304.984 25.0412C305.09 24.9753 305.181 24.8806 305.25 24.7653C305.318 24.6499 305.361 24.5172 305.376 24.3784C305.394 24.2072 305.394 24.034 305.376 23.8628C305.376 23.7646 305.249 23.6173 305.132 23.4087C305.057 23.2951 304.959 23.2059 304.845 23.15C304.732 23.094 304.608 23.0732 304.486 23.0895H284.493V20.6345H304.539C305.218 20.6269 305.879 20.8866 306.413 21.371C306.929 21.8671 307.298 22.5361 307.472 23.2859C307.641 24.0313 307.591 24.8205 307.33 25.5294C307.069 26.2383 306.613 26.8265 306.032 27.2016L305.937 27.2753L286.812 35.3767C286.706 35.4408 286.614 35.5331 286.544 35.6462C286.474 35.7592 286.428 35.8898 286.41 36.0273C286.391 36.1902 286.391 36.3554 286.41 36.5183C286.41 36.6165 286.527 36.7761 286.643 36.997C286.717 37.1148 286.817 37.2076 286.933 37.2658C287.048 37.324 287.175 37.3457 287.3 37.3285H307.419L307.335 39.7957ZM336.879 20.4258H360.038V22.8808H336.879V20.4258ZM338.997 28.8587H355.325V31.3137H339.039V33.9283C339.031 34.3784 339.106 34.8253 339.257 35.2398C339.409 35.6544 339.634 36.0273 339.918 36.3342C340.177 36.644 340.489 36.8889 340.833 37.0536C341.177 37.2182 341.547 37.2993 341.919 37.2916H360.038V39.7466H341.866C341.204 39.7526 340.547 39.5979 339.939 39.2925C338.743 38.6913 337.789 37.5855 337.271 36.1992C337.005 35.4821 336.871 34.7086 336.879 33.9283V28.8587H338.997Z" fill="#3B3F8F"/>
</svg>
