<svg width="39" height="43" viewBox="0 0 39 43" fill="none" xmlns="http://www.w3.org/2000/svg">
<path d="M36.0073 15.0327V14.0582C37.2509 13.7673 38.1891 12.6545 38.1891 11.3236C38.1891 9.78182 36.9236 8.51636 35.3745 8.51636C33.8327 8.51636 32.5673 9.78182 32.5673 11.3236C32.5673 12.6036 33.4255 13.6727 34.5964 14.0073V15.0327C34.5964 15.7309 34.0218 16.3055 33.3236 16.3055H25.4691V17.7164H33.3236C34.0348 17.7144 34.7163 17.4311 35.2191 16.9282C35.722 16.4254 36.0054 15.7439 36.0073 15.0327ZM30.6473 8.45091V7.47636C31.8909 7.18546 32.8291 6.07273 32.8291 4.74182C32.8291 3.2 31.5636 1.94182 30.0145 1.94182C28.4727 1.94182 27.2073 3.2 27.2073 4.74182C27.2073 6.02182 28.0655 7.09091 29.2364 7.42545V8.45091C29.2364 9.14909 28.6618 9.72364 27.9636 9.72364H25.4691V11.1345H27.9636C28.6748 11.1326 29.3563 10.8493 29.8591 10.3464C30.362 9.84354 30.6454 9.16206 30.6473 8.45091ZM36.0073 32.7055V31.7309C36.0054 31.0217 35.7228 30.3421 35.2213 29.8406C34.7198 29.3391 34.0401 29.0565 33.3309 29.0545H25.4764V30.4655H33.3309C34.0291 30.4655 34.6036 31.04 34.6036 31.7382V32.7636C33.4327 33.1055 32.5746 34.1745 32.5746 35.4473C32.5746 36.9891 33.84 38.2545 35.3818 38.2545C36.9309 38.2545 38.1964 36.9891 38.1964 35.4473C38.1891 34.8117 37.9698 34.1967 37.5732 33.7C37.1766 33.2033 36.6255 32.8532 36.0073 32.7055ZM29.4618 37.4036V36.4291C29.4618 34.9455 28.2618 33.7527 26.7855 33.7527H25.4764V35.1636H26.7855C27.4836 35.1636 28.0582 35.7309 28.0582 36.4364V37.4545C26.8946 37.8036 26.0364 38.8655 26.0364 40.1455C26.0364 41.6873 27.2945 42.9455 28.8364 42.9455C30.3855 42.9455 31.6509 41.6873 31.6509 40.1455C31.645 39.5095 31.4261 38.8939 31.0293 38.3969C30.6325 37.9 30.0806 37.5502 29.4618 37.4036ZM35.2945 26.1891C36.0404 26.1872 36.7552 25.89 37.2826 25.3626C37.81 24.8352 38.1072 24.1204 38.1091 23.3745C38.1091 21.8327 36.8436 20.5745 35.2945 20.5745C34 20.5745 32.9018 21.4691 32.5964 22.6764H25.4764V24.0873H32.5964C32.9091 25.2945 33.9927 26.1891 35.2945 26.1891ZM17.9127 0C14.5527 0 11.8255 2.72727 11.8255 6.14546C11.8255 6.49455 11.8836 6.84364 11.9418 7.18545C11.3018 6.95273 10.6109 6.83636 9.85455 6.83636C6.49455 6.83636 3.76728 9.56364 3.76728 12.9818C3.76728 13.3455 3.80364 13.6945 3.86909 14.0436C3.87637 14.0509 3.89091 14.0582 3.89818 14.0655C4.93091 15.1564 6.33455 15.7527 7.84728 15.7527C8.24 15.7527 8.55273 16.0655 8.55273 16.4582C8.55273 16.8509 8.24 17.1636 7.84728 17.1636C6.27637 17.1636 4.8 16.64 3.59273 15.6873C2.52247 16.1631 1.61332 16.9393 0.975583 17.9217C0.337848 18.9042 -0.00105321 20.0506 2.4588e-06 21.2218C2.4588e-06 24.0655 1.97091 26.4945 4.64 27.1345C4.05818 28.0655 3.76728 29.1055 3.76728 30.2618C3.76728 33.5636 6.49455 36.3491 9.85455 36.3491C10.16 36.3491 10.4655 36.32 10.7709 36.2764C11.1153 35.2238 11.7144 34.2727 12.515 33.5076C13.3157 32.7425 14.2929 32.1872 15.36 31.8909C14.4816 31.0476 13.8482 29.9819 13.5273 28.8073C12.8945 29.3309 12.1236 29.7091 11.2509 29.8764C11.2073 29.8836 11.1636 29.8909 11.12 29.8909C10.9454 29.8881 10.7779 29.8209 10.6497 29.7022C10.5216 29.5835 10.4417 29.4217 10.4255 29.2478C10.4093 29.0738 10.4578 28.9 10.5618 28.7597C10.6658 28.6194 10.818 28.5224 10.9891 28.4873C11.4617 28.3972 11.9115 28.2139 12.3124 27.9479C12.7132 27.6819 13.057 27.3386 13.3236 26.9382C13.3527 26.8291 13.4036 26.7345 13.4836 26.6545C13.8691 25.9564 14.0364 25.1273 13.8909 24.2618C13.8601 24.0767 13.904 23.8868 14.0131 23.734C14.1222 23.5813 14.2876 23.4781 14.4727 23.4473C14.6579 23.4164 14.8477 23.4604 15.0005 23.5695C15.1533 23.6786 15.2564 23.8439 15.2873 24.0291C15.4909 25.2364 15.2655 26.4 14.72 27.3818C14.9164 30.1964 17.2436 32.3636 20.1236 32.3636C20.5164 32.3636 20.8291 32.6764 20.8291 33.0691C20.8291 33.4618 20.5164 33.7745 20.1236 33.7745C19.046 33.7771 17.9826 33.5281 17.0182 33.0473C14.4582 33.1345 12.4 34.9745 11.9345 37.4182C12.4436 40.2691 14.9236 42.4364 17.92 42.4364C21.28 42.4364 24.0655 39.7091 24.0655 36.3491V20.8145C23.8909 20.8291 23.7164 20.8509 23.5491 20.8509C22.6182 20.8509 21.7018 20.6036 20.8727 20.1309C19.9065 19.5707 19.1407 18.721 18.6836 17.7018C17.8691 18.1745 16.9527 18.4218 15.9927 18.4218C15.8982 18.4218 15.8036 18.4218 15.7091 18.4145C15.3164 18.3927 15.0182 18.0655 15.04 17.6727C15.0618 17.28 15.3964 16.9891 15.7818 17.0036C16.8294 17.0575 17.8561 16.697 18.64 16C19.0317 15.6517 19.3494 15.2282 19.5743 14.7547C19.7992 14.2812 19.9266 13.7673 19.9491 13.2436C19.9709 12.8509 20.3127 12.5527 20.6909 12.5745C21.0764 12.5964 21.3818 12.9236 21.36 13.3164C21.2986 14.6178 20.7632 15.8517 19.8545 16.7855C20.1673 17.68 20.7636 18.4291 21.5855 18.9018C22.3418 19.3382 23.2073 19.4982 24.0727 19.3818V6.14546C24.0582 2.72 21.2727 0 17.9127 0Z" fill="currentColor"/>
</svg>
