<svg width="42" height="42" viewBox="0 0 42 42" fill="none" xmlns="http://www.w3.org/2000/svg">
<path d="M40.7647 11.7317V27.7905C40.7647 30.854 38.2694 33.3493 35.2059 33.3493H34.8971L33.3529 31.8052C34.5512 29.8658 35.2059 27.6176 35.2059 25.3199C35.2059 22.0093 33.9212 18.9087 31.5865 16.5864C29.2518 14.2517 26.1512 12.967 22.8529 12.967C19.5547 12.967 16.4541 14.2517 14.1194 16.5864C12.9666 17.729 12.0529 19.0897 11.4315 20.5892C10.8101 22.0886 10.4934 23.6968 10.5 25.3199C10.5 28.3093 11.55 31.1382 13.4647 33.3493H6.79411C3.73058 33.3493 1.23529 30.854 1.23529 27.7905V6.79051C1.23529 3.72698 3.73058 1.23169 6.79411 1.23169H14.1441C15.3794 1.23169 16.6147 1.66404 17.6029 2.45463L21.7659 5.77757C22.0871 6.03698 22.4947 6.17287 22.9147 6.17287H35.2059C38.2694 6.17287 40.7647 8.66816 40.7647 11.7317Z" fill="currentColor"/>
<path d="M36.5301 37.6061L30.933 32.009C32.5007 30.1307 33.3566 27.7602 33.3505 25.3137C33.3544 23.9354 33.0849 22.5699 32.5575 21.2964C32.0302 20.0229 31.2555 18.8666 30.2783 17.8945C28.292 15.9082 25.6546 14.8137 22.853 14.8137C20.0513 14.8137 17.4152 15.9082 15.4288 17.8945C14.4515 18.8666 13.6768 20.0228 13.1494 21.2963C12.6221 22.5699 12.3526 23.9353 12.3567 25.3137C12.3567 28.1166 13.4487 30.7503 15.398 32.6995C15.4437 32.7477 15.5017 32.8021 15.5647 32.8552C17.5183 34.7535 20.1352 35.8149 22.8591 35.8137C24.6957 35.8132 26.4994 35.3265 28.0869 34.403L33.9113 40.2274C34.0831 40.3999 34.2873 40.5367 34.5121 40.6301C34.7369 40.7234 34.9779 40.7715 35.2213 40.7715C35.4648 40.7715 35.7058 40.7234 35.9306 40.6301C36.1554 40.5367 36.3596 40.3999 36.5314 40.2274C36.8787 39.8796 37.0736 39.4081 37.0734 38.9165C37.0732 38.425 36.8778 37.9537 36.5301 37.6061ZM18.1094 30.161C18.0747 30.1269 18.0384 30.0943 18.0007 30.0634C16.7533 28.7979 16.0566 27.0907 16.0626 25.3137C16.0626 23.5003 16.7679 21.7956 18.0489 20.5146C19.3361 19.2274 21.042 18.5196 22.853 18.5196C24.6639 18.5196 26.3711 19.2274 27.6583 20.5146C28.2902 21.1435 28.7912 21.8914 29.1321 22.7152C29.4731 23.539 29.6473 24.4222 29.6446 25.3137C29.6498 27.0905 28.9532 28.7975 27.7064 30.0634C27.6657 30.0975 27.6262 30.1329 27.5878 30.1697C27.4453 30.3111 27.2952 30.4447 27.1382 30.5699C25.8484 31.6286 24.2124 32.1726 22.5454 32.0972C20.8784 32.0217 19.2983 31.332 18.1094 30.161Z" fill="currentColor"/>
</svg>
