<svg width="42" height="43" viewBox="0 0 42 43" fill="none" xmlns="http://www.w3.org/2000/svg">
<g clip-path="url(#clip0_371_504)">
<path d="M26.0223 7.90821H33.0241L25.6547 0.670166V7.54112C25.6547 7.74341 25.8195 7.90821 26.0223 7.90821Z" fill="currentColor"/>
<path d="M26.0223 10.2176C24.5465 10.2176 23.3457 9.01696 23.3457 7.54115V0H4.14458C1.76887 0 -0.163757 1.93263 -0.163757 4.30828V35.1042C-0.163757 37.4799 1.76887 39.4125 4.14458 39.4125H29.398C31.774 39.4125 33.7063 37.4799 33.7063 35.1042V10.2175L26.0223 10.2176ZM23.3829 29.8673H8.51062C7.87294 29.8673 7.35596 29.3503 7.35596 28.7126C7.35596 28.0749 7.87294 27.5579 8.51062 27.5579H23.3829C24.0209 27.5579 24.5376 28.0749 24.5376 28.7126C24.5376 29.3503 24.0209 29.8673 23.3829 29.8673ZM7.35596 24.094C7.35596 23.4563 7.87294 22.9393 8.51062 22.9393H21.7821C22.4201 22.9393 22.9368 23.4563 22.9368 24.094C22.9368 24.7316 22.4195 25.2486 21.7821 25.2486H8.51062C7.87294 25.2486 7.35596 24.7316 7.35596 24.094ZM24.7871 20.63H8.51062C7.87294 20.63 7.35596 20.113 7.35596 19.4753C7.35596 18.8376 7.87294 18.3206 8.51062 18.3206H24.7871C25.4248 18.3206 25.9417 18.8376 25.9417 19.4753C25.9417 20.113 25.4248 20.63 24.7871 20.63Z" fill="currentColor"/>
</g>
<defs>
<clipPath id="clip0_371_504">
<rect width="42" height="42.04" fill="white"/>
</clipPath>
</defs>
</svg>
