<svg width="42" height="42" viewBox="0 0 42 42" fill="none" xmlns="http://www.w3.org/2000/svg">
<g clip-path="url(#clip0_371_521)">
<path d="M13.0234 35.581C13.0616 36.0314 13.0816 36.4854 13.0816 36.9423V38.7067C13.0816 40.5189 14.5507 41.988 16.3629 41.988H25.6371C27.4493 41.988 28.9184 40.5189 28.9184 38.7067V36.9166C28.9184 36.4697 28.9388 36.0242 28.9777 35.5809H13.0233L13.0234 35.581ZM19.3594 23.2031C17.285 22.5137 15.7841 20.5559 15.7841 18.2531C15.7841 15.3771 18.1239 13.0373 21 13.0373C23.8761 13.0373 26.2159 15.3771 26.2159 18.2531C26.2159 20.556 24.7151 22.5138 22.6406 23.2031V32.2998H29.6295C30.2958 30.1748 31.4174 28.1795 32.9423 26.4532C35.5123 23.5435 36.9277 19.8012 36.9277 15.9158C36.9277 11.6555 35.267 7.65176 32.2516 4.64228C29.2362 1.6328 25.2322 -0.0207869 20.9684 -0.0119275C16.778 -0.00380638 12.8185 1.63108 9.81955 4.5915C6.82008 7.55242 5.13475 11.4904 5.07396 15.6802C5.01556 19.7095 6.46612 23.5756 9.15846 26.5662C10.6476 28.2204 11.7424 30.1778 12.3916 32.2998H19.3593V23.2031H19.3594Z" fill="currentColor"/>
<path d="M21 20.1878C22.0667 20.1878 22.9345 19.3199 22.9345 18.2531C22.9345 17.1864 22.0666 16.3186 21 16.3186C19.9333 16.3186 19.0654 17.1864 19.0654 18.2531C19.0654 19.3199 19.9333 20.1878 21 20.1878Z" fill="currentColor"/>
</g>
<defs>
<clipPath id="clip0_371_521">
<rect width="42" height="42" fill="white"/>
</clipPath>
</defs>
</svg>
