<svg width="42" height="42" viewBox="0 0 42 42" fill="none" xmlns="http://www.w3.org/2000/svg">
<path d="M1.3125 38.0625H40.6875V40.6875H1.3125V38.0625ZM7.21875 15.75C6.69661 15.75 6.19585 15.9574 5.82663 16.3267C5.45742 16.6959 5.25 17.1966 5.25 17.7188V35.4375H13.125V17.7188C13.125 17.1966 12.9176 16.6959 12.5484 16.3267C12.1792 15.9574 11.6784 15.75 11.1562 15.75H7.21875ZM19.0312 26.25C18.5091 26.25 18.0083 26.4574 17.6391 26.8267C17.2699 27.1959 17.0625 27.6966 17.0625 28.2188V35.4375H24.9375V28.2188C24.9375 27.6966 24.7301 27.1959 24.3609 26.8267C23.9917 26.4574 23.4909 26.25 22.9688 26.25H19.0312ZM30.8438 30.1875C30.3216 30.1875 29.8208 30.3949 29.4516 30.7642C29.0824 31.1334 28.875 31.6341 28.875 32.1563V35.4375H36.75V32.1563C36.75 31.6341 36.5426 31.1334 36.1734 30.7642C35.8042 30.3949 35.3034 30.1875 34.7812 30.1875H30.8438ZM17.4563 18.48C17.8925 19.9318 18.6857 21.2511 19.7633 22.3172C20.841 23.3834 22.1686 24.1624 23.625 24.5831C24.48 24.8193 25.363 24.9385 26.25 24.9375C28.6867 24.9375 31.0236 23.9696 32.7465 22.2466C34.4695 20.5236 35.4375 18.1867 35.4375 15.75C35.4375 15.4019 35.2992 15.0681 35.0531 14.8219C34.8069 14.5758 34.4731 14.4375 34.125 14.4375H29.5312C29.0091 14.4375 28.5083 14.2301 28.1391 13.8609C27.7699 13.4917 27.5625 12.9909 27.5625 12.4688V7.87502C27.5625 7.52692 27.4242 7.19308 27.1781 6.94694C26.9319 6.7008 26.5981 6.56252 26.25 6.56252C24.8796 6.55981 23.526 6.86368 22.2883 7.45188C21.0506 8.04007 19.9602 8.89768 19.0969 9.96189C18.1512 11.1412 17.5075 12.5334 17.2216 14.0178C16.9357 15.5021 17.0163 17.0338 17.4563 18.48Z" fill="currentColor"/>
<path d="M31.5 11.8125H39.375C39.7231 11.8125 40.0569 11.6742 40.3031 11.4281C40.5492 11.1819 40.6875 10.8481 40.6875 10.5C40.6875 8.06332 39.7195 5.72645 37.9965 4.00346C36.2736 2.28047 33.9367 1.3125 31.5 1.3125C31.1519 1.3125 30.8181 1.45078 30.5719 1.69692C30.3258 1.94306 30.1875 2.2769 30.1875 2.625V9.85688C30.1875 11.2219 30.7781 11.8125 31.5 11.8125ZM1.3125 1.3125H19.6875V3.9375H1.3125V1.3125ZM1.3125 6.5625H13.125V9.1875H1.3125V6.5625Z" fill="currentColor"/>
</svg>
