<svg width="18" height="18" viewBox="0 0 18 18" fill="none" xmlns="http://www.w3.org/2000/svg">
<path d="M7.47785 4.18273L7.92954 5.43711C8.17738 6.12477 8.57387 6.74929 9.09074 7.26616C9.60761 7.78303 10.2321 8.17951 10.9198 8.42736L12.1742 8.87904C12.1989 8.88813 12.2203 8.90459 12.2354 8.92622C12.2505 8.94785 12.2586 8.9736 12.2586 8.99998C12.2586 9.02636 12.2505 9.05211 12.2354 9.07374C12.2203 9.09537 12.1989 9.11183 12.1742 9.12092L10.9198 9.57261C10.2321 9.82045 9.60761 10.2169 9.09074 10.7338C8.57387 11.2507 8.17738 11.8752 7.92954 12.5629L7.47785 13.8172C7.46877 13.842 7.4523 13.8634 7.43067 13.8785C7.40904 13.8936 7.3833 13.9017 7.35691 13.9017C7.33053 13.9017 7.30479 13.8936 7.28316 13.8785C7.26153 13.8634 7.24506 13.842 7.23598 13.8172L6.78429 12.5629C6.53645 11.8752 6.13996 11.2507 5.62309 10.7338C5.10622 10.2169 4.4817 9.82045 3.79404 9.57261L2.53966 9.12092C2.5149 9.11183 2.49351 9.09537 2.47841 9.07374C2.4633 9.05211 2.4552 9.02636 2.4552 8.99998C2.4552 8.9736 2.4633 8.94785 2.47841 8.92622C2.49351 8.90459 2.5149 8.88813 2.53966 8.87904L3.79404 8.42736C4.4817 8.17951 5.10622 7.78303 5.62309 7.26616C6.13996 6.74929 6.53645 6.12477 6.78429 5.43711L7.23598 4.18273C7.24481 4.15771 7.26118 4.13605 7.28284 4.12072C7.3045 4.1054 7.33038 4.09717 7.35691 4.09717C7.38345 4.09717 7.40933 4.1054 7.43099 4.12072C7.45265 4.13605 7.46902 4.15771 7.47785 4.18273ZM13.1242 1.16829L13.3532 1.80336C13.4788 2.15153 13.6796 2.46773 13.9413 2.72945C14.203 2.99118 14.5192 3.192 14.8674 3.31761L15.5025 3.54654C15.5151 3.55112 15.5259 3.55946 15.5336 3.57043C15.5413 3.5814 15.5454 3.59447 15.5454 3.60786C15.5454 3.62124 15.5413 3.63431 15.5336 3.64528C15.5259 3.65625 15.5151 3.66459 15.5025 3.66917L14.8674 3.89811C14.5192 4.02372 14.203 4.22453 13.9413 4.48626C13.6796 4.74798 13.4788 5.06418 13.3532 5.41235L13.1242 6.04742C13.1196 6.06 13.1113 6.07087 13.1003 6.07855C13.0894 6.08623 13.0763 6.09034 13.0629 6.09034C13.0495 6.09034 13.0365 6.08623 13.0255 6.07855C13.0145 6.07087 13.0062 6.06 13.0016 6.04742L12.7727 5.41235C12.6471 5.06418 12.4462 4.74798 12.1845 4.48626C11.9228 4.22453 11.6066 4.02372 11.2584 3.89811L10.6234 3.66917C10.6108 3.66459 10.5999 3.65625 10.5922 3.64528C10.5845 3.63431 10.5804 3.62124 10.5804 3.60786C10.5804 3.59447 10.5845 3.5814 10.5922 3.57043C10.5999 3.55946 10.6108 3.55112 10.6234 3.54654L11.2584 3.31761C11.6066 3.192 11.9228 2.99118 12.1845 2.72945C12.4462 2.46773 12.6471 2.15153 12.7727 1.80336L13.0016 1.16829C13.0062 1.15571 13.0145 1.14484 13.0255 1.13716C13.0365 1.12949 13.0495 1.12537 13.0629 1.12537C13.0763 1.12537 13.0894 1.12949 13.1003 1.13716C13.1113 1.14484 13.1196 1.15571 13.1242 1.16829ZM13.1242 11.9531L13.3532 12.5882C13.4788 12.9363 13.6796 13.2525 13.9413 13.5143C14.203 13.776 14.5192 13.9768 14.8674 14.1024L15.5025 14.3314C15.5151 14.3359 15.5259 14.3443 15.5336 14.3552C15.5413 14.3662 15.5454 14.3793 15.5454 14.3927C15.5454 14.4061 15.5413 14.4191 15.5336 14.4301C15.5259 14.4411 15.5151 14.4494 15.5025 14.454L14.8674 14.6829C14.5192 14.8085 14.203 15.0093 13.9413 15.2711C13.6796 15.5328 13.4788 15.849 13.3532 16.1972L13.1242 16.8322C13.1196 16.8448 13.1113 16.8557 13.1003 16.8634C13.0894 16.871 13.0763 16.8752 13.0629 16.8752C13.0495 16.8752 13.0365 16.871 13.0255 16.8634C13.0145 16.8557 13.0062 16.8448 13.0016 16.8322L12.7727 16.1972C12.6471 15.849 12.4462 15.5328 12.1845 15.2711C11.9228 15.0093 11.6066 14.8085 11.2584 14.6829L10.6234 14.454C10.6108 14.4494 10.5999 14.4411 10.5922 14.4301C10.5845 14.4191 10.5804 14.4061 10.5804 14.3927C10.5804 14.3793 10.5845 14.3662 10.5922 14.3552C10.5999 14.3443 10.6108 14.3359 10.6234 14.3314L11.2584 14.1024C11.6066 13.9768 11.9228 13.776 12.1845 13.5143C12.4462 13.2525 12.6471 12.9363 12.7727 12.5882L13.0016 11.9531C13.0224 11.8957 13.104 11.8957 13.1242 11.9531Z" fill="url(#paint0_linear_345_6242)"/>
<defs>
<linearGradient id="paint0_linear_345_6242" x1="2.4552" y1="9.00026" x2="15.5454" y2="9.00026" gradientUnits="userSpaceOnUse">
<stop stop-color="#3A4A8A"/>
<stop offset="1" stop-color="#5C6AA5"/>
</linearGradient>
</defs>
</svg>