<?xml version="1.0" encoding="UTF-8"?>
<svg xmlns="http://www.w3.org/2000/svg" xmlns:xlink="http://www.w3.org/1999/xlink" viewBox="0 0 5000 4987.66">
  <defs>
    <style>
      .cls-1 {
        fill: url(#linear-gradient-13);
      }

      .cls-2 {
        fill: url(#linear-gradient-22);
      }

      .cls-2, .cls-3, .cls-4, .cls-5, .cls-6, .cls-7, .cls-8, .cls-9, .cls-10, .cls-11, .cls-12, .cls-13, .cls-14, .cls-15, .cls-16, .cls-17, .cls-18, .cls-19, .cls-20 {
        opacity: .69;
      }

      .cls-21 {
        fill: url(#linear-gradient-42);
      }

      .cls-22 {
        fill: url(#linear-gradient-46);
      }

      .cls-3 {
        fill: url(#linear-gradient-33);
      }

      .cls-23 {
        fill: url(#linear-gradient-2);
      }

      .cls-23, .cls-24, .cls-25, .cls-26, .cls-27, .cls-28 {
        opacity: .25;
      }

      .cls-4 {
        fill: url(#linear-gradient-29);
      }

      .cls-29 {
        fill: url(#linear-gradient-43);
      }

      .cls-5, .cls-30 {
        fill: #c6d5f7;
      }

      .cls-31 {
        fill: url(#linear-gradient-12);
      }

      .cls-32 {
        fill: url(#linear-gradient-40);
      }

      .cls-6 {
        fill: url(#linear-gradient-26);
      }

      .cls-33 {
        fill: #e6ebfe;
      }

      .cls-7 {
        fill: url(#linear-gradient-31);
      }

      .cls-34 {
        fill: url(#linear-gradient-37);
      }

      .cls-35 {
        fill: url(#linear-gradient-3);
      }

      .cls-35, .cls-36 {
        opacity: .35;
      }

      .cls-37 {
        fill: url(#linear-gradient-39);
      }

      .cls-24 {
        fill: url(#linear-gradient-34);
      }

      .cls-8 {
        fill: url(#linear-gradient-32);
      }

      .cls-38 {
        fill: url(#linear-gradient-4);
      }

      .cls-39 {
        fill: url(#radial-gradient-5);
      }

      .cls-40 {
        fill: url(#linear-gradient-35);
      }

      .cls-41 {
        fill: #a5b7f2;
      }

      .cls-42 {
        fill: url(#radial-gradient);
      }

      .cls-43 {
        fill: url(#radial-gradient-3);
      }

      .cls-9 {
        fill: url(#linear-gradient-28);
      }

      .cls-44 {
        fill: url(#linear-gradient-44);
      }

      .cls-45 {
        fill: url(#linear-gradient-5);
      }

      .cls-10 {
        fill: url(#linear-gradient-30);
      }

      .cls-46 {
        fill: url(#linear-gradient-38);
      }

      .cls-11 {
        fill: url(#linear-gradient-24);
      }

      .cls-47 {
        isolation: isolate;
      }

      .cls-12 {
        fill: url(#linear-gradient-15);
      }

      .cls-48 {
        fill: url(#linear-gradient-8);
      }

      .cls-48, .cls-49, .cls-50 {
        opacity: .5;
      }

      .cls-13 {
        fill: url(#linear-gradient-23);
      }

      .cls-14 {
        fill: url(#linear-gradient-18);
      }

      .cls-49 {
        fill: url(#linear-gradient-10);
      }

      .cls-51 {
        fill: url(#radial-gradient-2);
      }

      .cls-15 {
        fill: url(#linear-gradient-25);
      }

      .cls-52 {
        fill: url(#radial-gradient-4);
      }

      .cls-25 {
        fill: url(#linear-gradient-6);
      }

      .cls-53 {
        fill: url(#linear-gradient-7);
      }

      .cls-54 {
        fill: #a9beff;
      }

      .cls-26 {
        fill: url(#linear-gradient-20);
      }

      .cls-55 {
        fill: url(#linear-gradient-9);
      }

      .cls-16 {
        fill: url(#linear-gradient-16);
      }

      .cls-27 {
        fill: url(#linear-gradient-11);
      }

      .cls-56 {
        fill: url(#linear-gradient-36);
      }

      .cls-57 {
        fill: url(#linear-gradient-21);
      }

      .cls-58 {
        fill: url(#linear-gradient-45);
      }

      .cls-59 {
        fill: #eff3fe;
      }

      .cls-60 {
        fill: #64ffc3;
      }

      .cls-17 {
        fill: url(#linear-gradient-19);
      }

      .cls-61 {
        fill: url(#linear-gradient-41);
      }

      .cls-18 {
        fill: url(#linear-gradient-27);
      }

      .cls-28 {
        fill: url(#linear-gradient);
      }

      .cls-19 {
        fill: url(#linear-gradient-14);
      }

      .cls-20 {
        fill: url(#linear-gradient-17);
      }

      .cls-62 {
        fill: none;
        stroke: #00ffa3;
        stroke-miterlimit: 10;
        stroke-width: 10.29px;
      }

      .cls-50 {
        mix-blend-mode: multiply;
      }
    </style>
    <linearGradient id="linear-gradient" x1="2500" y1="72.72" x2="2500" y2="4971.61" gradientUnits="userSpaceOnUse">
      <stop offset="0" stop-color="#eff3fe"/>
      <stop offset="1" stop-color="#81adfd"/>
    </linearGradient>
    <linearGradient id="linear-gradient-2" x1="1455.24" y1="717.74" x2="2771.74" y2="2955.79" gradientUnits="userSpaceOnUse">
      <stop offset="0" stop-color="#f1f7ff"/>
      <stop offset="1" stop-color="#81adfd"/>
    </linearGradient>
    <linearGradient id="linear-gradient-3" x1="1837.11" y1="1366.91" x2="2672.42" y2="2786.94" xlink:href="#linear-gradient-2"/>
    <linearGradient id="linear-gradient-4" x1="2572.06" y1="1954.82" x2="2681.77" y2="3417.6" gradientTransform="translate(4005.35 6091.31) rotate(-162.79)" gradientUnits="userSpaceOnUse">
      <stop offset="0" stop-color="#81adfd"/>
      <stop offset=".2" stop-color="#acc6fd"/>
      <stop offset=".5" stop-color="#e7e9fd"/>
      <stop offset=".55" stop-color="#dadffb"/>
      <stop offset=".66" stop-color="#bac7f8"/>
      <stop offset=".8" stop-color="#859ff4"/>
      <stop offset=".97" stop-color="#3e68ed"/>
      <stop offset="1" stop-color="#2f5dec"/>
    </linearGradient>
    <linearGradient id="linear-gradient-5" x1="363.16" y1="2560.33" x2="4291.67" y2="2525.35" gradientTransform="translate(910.68 -609.39) rotate(17.21)" xlink:href="#linear-gradient-4"/>
    <radialGradient id="radial-gradient" cx="2942.26" cy="3649.36" fx="2942.26" fy="3649.36" r="321.47" gradientUnits="userSpaceOnUse">
      <stop offset="0" stop-color="#e7e9fd"/>
      <stop offset=".09" stop-color="#c9d7fd"/>
      <stop offset=".2" stop-color="#aac5fd"/>
      <stop offset=".31" stop-color="#93b7fd"/>
      <stop offset=".42" stop-color="#85affd"/>
      <stop offset=".51" stop-color="#81adfd"/>
      <stop offset=".64" stop-color="#6996f8"/>
      <stop offset="1" stop-color="#2f5dec"/>
    </radialGradient>
    <radialGradient id="radial-gradient-2" cx="853.42" cy="1978.72" fx="853.42" fy="1978.72" r="208.6" xlink:href="#radial-gradient"/>
    <radialGradient id="radial-gradient-3" cx="884.46" cy="2838.88" fx="884.46" fy="2838.88" r="200.13" xlink:href="#radial-gradient"/>
    <radialGradient id="radial-gradient-4" cx="4046.02" cy="3043.71" fx="4046.02" fy="3043.71" r="281.02" xlink:href="#radial-gradient"/>
    <linearGradient id="linear-gradient-6" x1="2419.17" y1="4110.17" x2="2573.72" y2="4337.13" xlink:href="#linear-gradient"/>
    <linearGradient id="linear-gradient-7" x1="2581.24" y1="4309.3" x2="2405.35" y2="4019.14" gradientTransform="translate(764.41) skewX(-11)" gradientUnits="userSpaceOnUse">
      <stop offset="0" stop-color="#2f5dec"/>
      <stop offset="1" stop-color="#81adfd"/>
    </linearGradient>
    <linearGradient id="linear-gradient-8" x1="4118.34" y1="1959.53" x2="4434.06" y2="2398.36" xlink:href="#linear-gradient"/>
    <linearGradient id="linear-gradient-9" x1="4400.21" y1="2362.19" x2="4001.13" y2="1719.89" gradientTransform="translate(746.26) skewX(-21.24)" xlink:href="#linear-gradient-7"/>
    <linearGradient id="linear-gradient-10" x1="3099.72" y1="715.45" x2="3249.63" y2="1063.45" xlink:href="#linear-gradient"/>
    <linearGradient id="linear-gradient-11" x1="3640.82" y1="1131.04" x2="2153.8" y2="536.23" xlink:href="#linear-gradient-2"/>
    <linearGradient id="linear-gradient-12" x1="3071.72" y1="877.29" x2="2937.16" y2="667.04" gradientTransform="translate(328.54) skewX(-11)" xlink:href="#linear-gradient-7"/>
    <linearGradient id="linear-gradient-13" x1="2926.25" y1="1012.7" x2="2767.42" y2="764.53" gradientTransform="translate(657.09) skewX(-21.24)" xlink:href="#linear-gradient-7"/>
    <linearGradient id="linear-gradient-14" x1="1144.98" y1="1898.86" x2="588.72" y2="1207.44" gradientTransform="translate(1133.72) skewX(-21.24)" xlink:href="#linear-gradient-2"/>
    <linearGradient id="linear-gradient-15" x1="1131.98" y1="1947.3" x2="575.72" y2="1255.88" gradientTransform="translate(1133.72) skewX(-21.24)" xlink:href="#linear-gradient-2"/>
    <linearGradient id="linear-gradient-16" x1="1350.27" y1="1866.47" x2="891.87" y2="1296.68" gradientTransform="translate(1133.72) skewX(-21.24)" xlink:href="#linear-gradient-2"/>
    <linearGradient id="linear-gradient-17" x1="1172.42" y1="1637.68" x2="887.88" y2="1284" gradientTransform="translate(1133.72) skewX(-21.24)" xlink:href="#linear-gradient-2"/>
    <linearGradient id="linear-gradient-18" x1="1734.83" y1="2625.19" x2="486.47" y2="1073.49" gradientTransform="translate(1133.72) skewX(-21.24)" xlink:href="#linear-gradient-2"/>
    <linearGradient id="linear-gradient-19" x1="1319.64" y1="1933.23" x2="678.3" y2="1136.06" gradientTransform="translate(1133.72) skewX(-21.24)" xlink:href="#linear-gradient-2"/>
    <linearGradient id="linear-gradient-20" x1="886.91" y1="1177.69" x2="996.55" y2="1566.39" xlink:href="#linear-gradient"/>
    <linearGradient id="linear-gradient-21" x1="436.49" y1="1623.08" x2="-163.36" y2="1093.21" gradientTransform="translate(1312.66) skewX(-21.24)" gradientUnits="userSpaceOnUse">
      <stop offset="0" stop-color="#2f5dec"/>
      <stop offset=".27" stop-color="#406eef"/>
      <stop offset=".8" stop-color="#6e9af9"/>
      <stop offset="1" stop-color="#81adfd"/>
    </linearGradient>
    <linearGradient id="linear-gradient-22" x1="4622.43" y1="3040.49" x2="4066.18" y2="2349.07" gradientTransform="translate(1133.72) skewX(-21.24)" xlink:href="#linear-gradient-2"/>
    <linearGradient id="linear-gradient-23" x1="4609.43" y1="3088.92" x2="4053.17" y2="2397.51" gradientTransform="translate(1133.72) skewX(-21.24)" xlink:href="#linear-gradient-2"/>
    <linearGradient id="linear-gradient-24" x1="4827.73" y1="3008.1" x2="4369.32" y2="2438.3" gradientTransform="translate(1133.72) skewX(-21.24)" xlink:href="#linear-gradient-2"/>
    <linearGradient id="linear-gradient-25" x1="4649.87" y1="2779.3" x2="4365.33" y2="2425.62" gradientTransform="translate(1133.72) skewX(-21.24)" xlink:href="#linear-gradient-2"/>
    <linearGradient id="linear-gradient-26" x1="5212.29" y1="3766.82" x2="3963.92" y2="2215.12" gradientTransform="translate(1133.72) skewX(-21.24)" xlink:href="#linear-gradient-2"/>
    <linearGradient id="linear-gradient-27" x1="4797.09" y1="3074.86" x2="4155.76" y2="2277.68" gradientTransform="translate(1133.72) skewX(-21.24)" xlink:href="#linear-gradient-2"/>
    <linearGradient id="linear-gradient-28" x1="1043.73" y1="3805.6" x2="487.47" y2="3114.19" gradientTransform="translate(1133.72) skewX(-21.24)" xlink:href="#linear-gradient-2"/>
    <linearGradient id="linear-gradient-29" x1="1030.73" y1="3854.04" x2="474.47" y2="3162.62" gradientTransform="translate(1133.72) skewX(-21.24)" xlink:href="#linear-gradient-2"/>
    <linearGradient id="linear-gradient-30" x1="1249.02" y1="3773.22" x2="790.61" y2="3203.42" gradientTransform="translate(1133.72) skewX(-21.24)" xlink:href="#linear-gradient-2"/>
    <linearGradient id="linear-gradient-31" x1="1071.17" y1="3544.42" x2="786.63" y2="3190.74" gradientTransform="translate(1133.72) skewX(-21.24)" xlink:href="#linear-gradient-2"/>
    <linearGradient id="linear-gradient-32" x1="1633.58" y1="4531.94" x2="385.22" y2="2980.23" gradientTransform="translate(1133.72) skewX(-21.24)" xlink:href="#linear-gradient-2"/>
    <linearGradient id="linear-gradient-33" x1="1218.39" y1="3839.97" x2="577.05" y2="3042.8" gradientTransform="translate(1133.72) skewX(-21.24)" xlink:href="#linear-gradient-2"/>
    <linearGradient id="linear-gradient-34" x1="1573.26" y1="3808.73" x2="1860.63" y2="4233.84" xlink:href="#linear-gradient"/>
    <radialGradient id="radial-gradient-5" cx="1605.76" cy="3813.51" fx="1605.76" fy="3813.51" r="251.33" xlink:href="#radial-gradient"/>
    <linearGradient id="linear-gradient-35" x1="2675.95" y1="4170.11" x2="2295.95" y2="3794.99" gradientTransform="translate(746.26) skewX(-21.24)" xlink:href="#linear-gradient-7"/>
    <linearGradient id="linear-gradient-36" x1="2263.04" y1="4148.7" x2="1917.25" y2="3807.34" gradientTransform="translate(373.13) skewX(-11)" xlink:href="#linear-gradient-7"/>
    <linearGradient id="linear-gradient-37" x1="2873.64" y1="1823.21" x2="3017.67" y2="1515.76" gradientTransform="matrix(1,0,0,1,0,0)" xlink:href="#linear-gradient-7"/>
    <linearGradient id="linear-gradient-38" x1="2790.58" y1="2389.58" x2="2960.63" y2="1923.32" gradientTransform="matrix(1,0,0,1,0,0)" xlink:href="#linear-gradient-7"/>
    <linearGradient id="linear-gradient-39" x1="2617.83" y1="2418.35" x2="2992.4" y2="1561.68" gradientUnits="userSpaceOnUse">
      <stop offset="0" stop-color="#2f5dec"/>
      <stop offset=".47" stop-color="#305eec"/>
      <stop offset=".64" stop-color="#3765ed"/>
      <stop offset=".76" stop-color="#4370f0"/>
      <stop offset=".85" stop-color="#5481f3"/>
      <stop offset=".94" stop-color="#6a96f8"/>
      <stop offset="1" stop-color="#81adfd"/>
    </linearGradient>
    <linearGradient id="linear-gradient-40" x1="1077.78" y1="2069.65" x2="3175.33" y2="2069.65" gradientTransform="matrix(1,0,0,1,0,0)" xlink:href="#linear-gradient-7"/>
    <linearGradient id="linear-gradient-41" x1="2089.68" y1="2766.71" x2="2177.45" y2="1729.97" gradientTransform="matrix(1,0,0,1,0,0)" xlink:href="#linear-gradient-7"/>
    <linearGradient id="linear-gradient-42" x1="2548.16" y1="1774.56" x2="1445.59" y2="2663.19" gradientTransform="matrix(1,0,0,1,0,0)" xlink:href="#linear-gradient-7"/>
    <linearGradient id="linear-gradient-43" x1="2227.43" y1="2627.96" x2="1825.17" y2="2631.62" gradientTransform="matrix(1,0,0,1,0,0)" xlink:href="#linear-gradient-7"/>
    <linearGradient id="linear-gradient-44" x1="2207.24" y1="1597.26" x2="2629.62" y2="1887.99" gradientTransform="matrix(1,0,0,1,0,0)" xlink:href="#linear-gradient-7"/>
    <linearGradient id="linear-gradient-45" x1="2022.56" y1="2636.77" x2="2068.27" y2="2292.15" gradientTransform="matrix(1,0,0,1,0,0)" xlink:href="#linear-gradient-7"/>
    <linearGradient id="linear-gradient-46" x1="2244.78" y1="2383.37" x2="1989.7" y2="1894.92" gradientTransform="matrix(1,0,0,1,0,0)" xlink:href="#linear-gradient-7"/>
  </defs>
  <g class="cls-47">
    <g id="Layer_2">
      <g id="Cybersecurity_in_Cloud_Computing">
        <g id="Cybersecurity_in_Cloud_Computing-2" data-name="Cybersecurity_in_Cloud_Computing">
          <g id="Circle_background">
            <g>
              <path class="cls-28" d="M6.17,2493.83c0-547.85,176.66-1054.43,476.11-1465.91C849.1,523.89,1400.18,162.59,2036.53,42.99,2186.7,14.76,2341.63,0,2500,0c1377.3,0,2493.83,1116.53,2493.83,2493.83,0,595.11-208.45,1141.53-556.31,1570.23-457.23,563.48-1155.32,923.6-1937.52,923.6-252.48,0-496.2-37.52-725.88-107.29-639.53-194.27-1170.26-638.56-1478.36-1219.07C110.89,3312.99,6.17,2915.64,6.17,2493.83Z"/>
              <circle class="cls-23" cx="2500" cy="2493.83" r="1674.67"/>
              <circle class="cls-35" cx="2500" cy="2493.83" r="1062.57"/>
            </g>
            <g>
              <path class="cls-54" d="M2500,4174.67c-3.41,0-6.17-2.76-6.17-6.17s2.76-6.17,6.17-6.17c601.22,0,1158.43-325.63,1454.17-849.81,1.68-2.97,5.43-4.02,8.41-2.34,2.97,1.67,4.02,5.44,2.34,8.41-143.98,255.19-353.13,469.47-604.86,619.67-127.33,75.98-264.11,134.69-406.53,174.51-146.93,41.07-299.52,61.9-453.53,61.9Z"/>
              <path class="cls-54" d="M3931.27,1630.04c-2.08,0-4.11-1.05-5.28-2.96-132.04-216.76-314.92-403.6-528.88-540.3-2.87-1.83-3.71-5.65-1.88-8.52,1.83-2.87,5.65-3.71,8.52-1.88,215.54,137.71,399.77,325.92,532.78,544.28,1.77,2.91.85,6.71-2.06,8.48-1,.61-2.11.9-3.2.9Z"/>
              <g>
                <path class="cls-54" d="M4993.7,2525.71h-.06c-3.41-.03-6.14-2.82-6.11-6.23.09-8.54.13-17.09.13-25.65,0-3.41,2.76-6.17,6.17-6.17s6.17,2.76,6.17,6.17c0,8.6-.04,17.2-.13,25.78-.03,3.39-2.79,6.11-6.17,6.11Z"/>
                <path class="cls-54" d="M3768.54,4647.55c-2.11,0-4.16-1.08-5.32-3.03-1.74-2.93-.77-6.72,2.17-8.45,14.59-8.64,29.29-17.55,43.69-26.47,2.9-1.79,6.7-.9,8.5,1.99,1.8,2.9.9,6.7-1.99,8.5-14.47,8.97-29.24,17.92-43.9,26.6-.99.58-2.07.86-3.14.86ZM3855.57,4593.59c-2.02,0-4-.99-5.18-2.81-1.86-2.86-1.04-6.68,1.82-8.54,14.19-9.2,28.51-18.7,42.55-28.23,2.82-1.92,6.66-1.18,8.57,1.64,1.91,2.82,1.18,6.66-1.64,8.57-14.12,9.58-28.51,19.12-42.76,28.37-1.04.67-2.2.99-3.35.99ZM3940.3,4536.11c-1.93,0-3.84-.91-5.04-2.6-1.97-2.78-1.31-6.63,1.47-8.6,13.86-9.83,27.78-19.9,41.37-29.96,2.73-2.02,6.6-1.45,8.63,1.29,2.03,2.74,1.45,6.6-1.29,8.63-13.66,10.1-27.64,20.23-41.57,30.1-1.08.77-2.33,1.14-3.56,1.14ZM4022.62,4475.21c-1.85,0-3.67-.83-4.89-2.4-2.08-2.7-1.58-6.57,1.11-8.66,13.47-10.4,26.96-21.04,40.11-31.63,2.66-2.14,6.54-1.72,8.68.94,2.14,2.66,1.72,6.54-.94,8.68-13.22,10.64-26.78,21.33-40.31,31.78-1.12.87-2.45,1.29-3.77,1.29ZM4102.38,4410.99c-1.76,0-3.51-.75-4.73-2.2-2.19-2.61-1.85-6.5.76-8.69,12.98-10.89,26.03-22.08,38.79-33.24,2.57-2.25,6.46-1.98,8.71.58,2.24,2.57,1.98,6.46-.58,8.71-12.82,11.22-25.94,22.46-38.98,33.4-1.16.97-2.57,1.44-3.96,1.44ZM4179.46,4343.55c-1.68,0-3.34-.68-4.56-2.01-2.3-2.52-2.12-6.42.4-8.72,12.53-11.42,25.11-23.13,37.4-34.8,2.47-2.34,6.37-2.24,8.72.22,2.35,2.47,2.25,6.38-.23,8.73-12.35,11.73-25,23.5-37.59,34.97-1.18,1.08-2.67,1.61-4.15,1.61ZM4253.73,4273.02c-1.59,0-3.18-.61-4.39-1.83-2.4-2.42-2.38-6.33.05-8.73,12.07-11.94,24.16-24.15,35.95-36.3,2.37-2.44,6.28-2.5,8.72-.13,2.45,2.37,2.51,6.28.13,8.73-11.85,12.21-24,24.48-36.13,36.48-1.2,1.19-2.77,1.78-4.34,1.78ZM4325.07,4199.52c-1.51,0-3.02-.55-4.2-1.66-2.49-2.32-2.63-6.23-.31-8.72,11.56-12.4,23.15-25.1,34.45-37.74,2.27-2.54,6.17-2.76,8.71-.49,2.54,2.27,2.76,6.17.49,8.71-11.36,12.7-23,25.46-34.61,37.92-1.22,1.3-2.86,1.96-4.52,1.96ZM4393.35,4123.15c-1.42,0-2.85-.49-4.02-1.49-2.59-2.22-2.88-6.11-.66-8.7,11.04-12.86,22.1-26.02,32.88-39.12,2.16-2.63,6.05-3.01,8.69-.84,2.63,2.17,3.01,6.05.84,8.69-10.83,13.16-21.95,26.38-33.04,39.31-1.22,1.42-2.95,2.15-4.68,2.15ZM4458.46,4044.06c-1.34,0-2.69-.43-3.82-1.33-2.67-2.11-3.13-5.99-1.02-8.67,10.49-13.29,21.01-26.89,31.25-40.43,2.06-2.72,5.93-3.25,8.65-1.2,2.72,2.06,3.25,5.93,1.2,8.65-10.3,13.61-20.87,27.28-31.41,40.63-1.22,1.54-3.02,2.35-4.85,2.35ZM4520.29,3962.36c-1.26,0-2.53-.38-3.62-1.18-2.76-2-3.37-5.86-1.37-8.62,9.92-13.67,19.87-27.7,29.58-41.68,1.94-2.8,5.79-3.49,8.59-1.55,2.8,1.94,3.49,5.79,1.55,8.59-9.75,14.05-19.75,28.14-29.72,41.89-1.21,1.66-3.09,2.55-5,2.55ZM4578.72,3878.2c-1.17,0-2.36-.33-3.41-1.03-2.84-1.89-3.61-5.72-1.73-8.56,9.39-14.13,18.75-28.55,27.84-42.86,1.83-2.88,5.64-3.73,8.52-1.9,2.88,1.83,3.73,5.64,1.9,8.52-9.13,14.38-18.55,28.87-27.98,43.07-1.19,1.79-3.15,2.76-5.15,2.76ZM4633.66,3791.69c-1.09,0-2.19-.29-3.2-.9-2.91-1.77-3.84-5.56-2.07-8.48,8.8-14.51,17.57-29.3,26.06-43.97,1.71-2.95,5.48-3.96,8.43-2.25,2.95,1.71,3.96,5.48,2.25,8.43-8.53,14.74-17.34,29.61-26.19,44.19-1.16,1.91-3.2,2.97-5.28,2.97ZM4685.01,3703c-1.01,0-2.03-.25-2.98-.77-2.98-1.65-4.07-5.4-2.42-8.38,8.22-14.9,16.37-30.05,24.23-45.01,1.59-3.02,5.31-4.18,8.33-2.6,3.02,1.58,4.18,5.32,2.6,8.33-7.9,15.04-16.09,30.26-24.35,45.24-1.12,2.04-3.23,3.19-5.41,3.19ZM4732.66,3612.27c-.93,0-1.87-.21-2.75-.65-3.05-1.52-4.29-5.23-2.77-8.28,7.58-15.19,15.11-30.66,22.36-45.98,1.46-3.08,5.14-4.4,8.22-2.93,3.08,1.46,4.4,5.14,2.93,8.22-7.29,15.39-14.85,30.94-22.47,46.21-1.08,2.16-3.26,3.42-5.53,3.42ZM4776.53,3519.62c-.84,0-1.7-.17-2.52-.54-3.11-1.4-4.5-5.05-3.1-8.16,6.92-15.43,13.8-31.2,20.45-46.86,1.33-3.14,4.96-4.6,8.09-3.27,3.14,1.33,4.6,4.95,3.27,8.09-6.68,15.75-13.59,31.59-20.55,47.1-1.03,2.29-3.28,3.65-5.63,3.65ZM4816.55,3425.25c-.76,0-1.54-.14-2.29-.44-3.17-1.27-4.7-4.86-3.44-8.02,6.31-15.79,12.53-31.82,18.47-47.64,1.2-3.19,4.76-4.8,7.95-3.61,3.19,1.2,4.81,4.76,3.6,7.95-5.98,15.9-12.22,32.01-18.56,47.87-.97,2.41-3.28,3.88-5.73,3.88ZM4852.6,3329.37c-.68,0-1.37-.11-2.05-.35-3.21-1.13-4.9-4.66-3.77-7.87,5.64-16,11.19-32.27,16.49-48.36,1.07-3.24,4.56-4.99,7.79-3.93,3.24,1.07,5,4.56,3.93,7.79-5.33,16.17-10.9,32.52-16.57,48.6-.89,2.54-3.28,4.12-5.82,4.12ZM4884.65,3232.07c-.6,0-1.21-.09-1.81-.27-3.26-1-5.09-4.45-4.09-7.71,4.97-16.21,9.84-32.7,14.47-49,.93-3.28,4.34-5.19,7.62-4.25,3.28.93,5.18,4.35,4.25,7.62-4.66,16.39-9.55,32.96-14.55,49.25-.81,2.66-3.26,4.36-5.9,4.36ZM4912.65,3133.53c-.52,0-1.04-.07-1.57-.2-3.3-.86-5.27-4.24-4.41-7.53,4.29-16.36,8.47-33.04,12.43-49.56.8-3.32,4.15-5.36,7.44-4.56,3.31.79,5.36,4.13,4.56,7.44-3.98,16.61-8.19,33.37-12.49,49.81-.73,2.77-3.23,4.61-5.97,4.61ZM4936.55,3033.91c-.44,0-.88-.05-1.32-.14-3.33-.73-5.44-4.01-4.71-7.34,3.62-16.6,7.11-33.44,10.37-50.03.66-3.34,3.89-5.53,7.25-4.87,3.34.66,5.52,3.9,4.86,7.25-3.28,16.68-6.79,33.6-10.42,50.28-.63,2.89-3.18,4.86-6.02,4.86ZM4956.31,2933.39c-.36,0-.71-.03-1.07-.09-3.36-.59-5.6-3.79-5.01-7.14,2.92-16.66,5.71-33.62,8.3-50.42.52-3.37,3.66-5.69,7.04-5.16,3.37.52,5.68,3.67,5.16,7.04-2.6,16.88-5.41,33.93-8.34,50.67-.53,3-3.13,5.11-6.07,5.11ZM4971.91,2832.13c-.27,0-.55-.02-.82-.05-3.38-.45-5.75-3.55-5.3-6.93,2.24-16.8,4.33-33.87,6.22-50.72.38-3.39,3.44-5.82,6.82-5.44,3.39.38,5.82,3.44,5.44,6.82-1.9,16.94-4.01,34.09-6.25,50.97-.41,3.1-3.06,5.36-6.11,5.36ZM4983.34,2730.32c-.19,0-.38,0-.57-.03-3.39-.31-5.89-3.31-5.58-6.71,1.55-16.88,2.94-34.02,4.14-50.94.24-3.4,3.19-6,6.59-5.72,3.4.24,5.96,3.19,5.72,6.59-1.21,17-2.61,34.22-4.16,51.19-.29,3.2-2.98,5.61-6.14,5.61ZM4990.6,2628.12c-.11,0-.21,0-.32,0-3.4-.17-6.02-3.07-5.85-6.47.86-16.96,1.55-34.14,2.06-51.06.1-3.41,3.01-6.11,6.36-5.98,3.41.1,6.08,2.95,5.98,6.36-.52,17.01-1.21,34.27-2.08,51.31-.17,3.3-2.89,5.86-6.16,5.86Z"/>
                <path class="cls-54" d="M3701.97,4685.59c-2.18,0-4.29-1.15-5.41-3.19-1.65-2.99-.56-6.74,2.42-8.38,7.49-4.13,14.96-8.29,22.4-12.5,2.97-1.68,6.73-.62,8.41,2.34,1.68,2.97.63,6.73-2.34,8.41-7.48,4.22-14.98,8.41-22.51,12.56-.94.52-1.97.77-2.97.77Z"/>
              </g>
              <g>
                <path class="cls-54" d="M1370.35,4723.91c-.94,0-1.9-.22-2.79-.67-7.66-3.9-15.3-7.84-22.91-11.81-3.02-1.58-4.19-5.31-2.61-8.33s5.31-4.19,8.33-2.61c7.58,3.96,15.18,7.87,22.8,11.75,3.04,1.55,4.25,5.26,2.7,8.3-1.09,2.14-3.26,3.37-5.51,3.37Z"/>
                <path class="cls-54" d="M1302.68,4688.14c-1,0-2.02-.25-2.96-.76-14.8-8.11-29.75-16.51-44.45-24.97-2.95-1.7-3.97-5.47-2.27-8.43,1.7-2.95,5.47-3.97,8.43-2.27,14.62,8.41,29.5,16.77,44.23,24.84,2.99,1.64,4.08,5.39,2.44,8.38-1.12,2.05-3.24,3.21-5.42,3.21ZM1214.53,4637.44c-1.08,0-2.18-.29-3.18-.89-14.49-8.73-29.09-17.73-43.39-26.76-2.88-1.82-3.75-5.63-1.93-8.51,1.82-2.88,5.63-3.75,8.51-1.93,14.23,8.98,28.75,17.93,43.17,26.62,2.92,1.76,3.86,5.55,2.1,8.47-1.16,1.92-3.2,2.99-5.29,2.99ZM1128.52,4583.18c-1.17,0-2.35-.33-3.39-1.02-14.16-9.34-28.38-18.93-42.26-28.5-2.81-1.93-3.51-5.78-1.58-8.58,1.93-2.8,5.78-3.51,8.58-1.58,13.81,9.52,27.96,19.06,42.05,28.36,2.84,1.88,3.63,5.71,1.75,8.55-1.19,1.8-3.15,2.77-5.16,2.77ZM1044.81,4525.47c-1.25,0-2.51-.38-3.6-1.16-13.7-9.86-27.52-20.02-41.06-30.19-2.73-2.05-3.28-5.92-1.23-8.64,2.05-2.72,5.91-3.28,8.64-1.23,13.48,10.12,27.22,20.23,40.86,30.04,2.77,1.99,3.39,5.85,1.4,8.61-1.21,1.68-3.1,2.57-5.01,2.57ZM963.51,4464.42c-1.33,0-2.67-.43-3.8-1.31-13.32-10.43-26.71-21.14-39.8-31.83-2.64-2.16-3.03-6.04-.88-8.68,2.15-2.64,6.04-3.03,8.68-.88,13.02,10.63,26.35,21.29,39.6,31.68,2.68,2.1,3.15,5.98,1.05,8.66-1.22,1.55-3.03,2.37-4.86,2.37ZM884.76,4400.12c-1.41,0-2.83-.48-4-1.47-12.87-10.95-25.81-22.19-38.47-33.42-2.55-2.26-2.79-6.16-.52-8.71s6.16-2.78,8.71-.52c12.6,11.17,25.48,22.36,38.29,33.25,2.6,2.21,2.91,6.1.7,8.7-1.22,1.43-2.96,2.17-4.7,2.17ZM808.69,4332.68c-1.5,0-3-.54-4.19-1.64-12.4-11.45-24.88-23.21-37.08-34.95-2.46-2.36-2.53-6.27-.17-8.72,2.36-2.45,6.27-2.54,8.73-.17,12.15,11.68,24.56,23.38,36.9,34.77,2.5,2.31,2.66,6.22.35,8.72-1.22,1.32-2.87,1.98-4.53,1.98ZM735.41,4262.22c-1.58,0-3.16-.6-4.37-1.81-11.97-11.99-23.96-24.24-35.64-36.42-2.36-2.46-2.28-6.37.18-8.72,2.46-2.36,6.36-2.28,8.73.18,11.62,12.12,23.55,24.31,35.46,36.24,2.41,2.41,2.41,6.32,0,8.73-1.2,1.2-2.78,1.8-4.36,1.8ZM665.06,4188.86c-1.67,0-3.32-.67-4.54-1.99-11.43-12.41-22.91-25.14-34.13-37.83-2.26-2.55-2.02-6.45.54-8.71,2.55-2.26,6.45-2.02,8.71.53,11.17,12.63,22.59,25.29,33.97,37.64,2.31,2.51,2.15,6.41-.36,8.72-1.19,1.09-2.68,1.63-4.18,1.63ZM597.74,4112.71c-1.75,0-3.49-.74-4.71-2.18-10.96-12.92-21.92-26.1-32.57-39.18-2.15-2.64-1.75-6.53.89-8.68,2.64-2.15,6.53-1.75,8.68.89,10.6,13.02,21.5,26.13,32.41,38.99,2.2,2.6,1.89,6.49-.71,8.7-1.16.98-2.58,1.47-3.99,1.47ZM533.56,4033.89c-1.84,0-3.65-.81-4.87-2.37-10.41-13.33-20.82-26.94-30.95-40.47-2.04-2.73-1.49-6.59,1.24-8.64,2.73-2.04,6.59-1.49,8.64,1.24,10.08,13.46,20.44,27,30.8,40.26,2.1,2.69,1.62,6.56-1.06,8.66-1.13.88-2.47,1.31-3.79,1.31ZM472.63,3952.55c-1.92,0-3.81-.89-5.02-2.57-9.85-13.72-19.7-27.75-29.28-41.68-1.93-2.81-1.22-6.65,1.59-8.58,2.81-1.93,6.65-1.22,8.58,1.59,9.53,13.87,19.34,27.82,29.14,41.48,1.99,2.77,1.35,6.62-1.41,8.61-1.09.78-2.35,1.16-3.59,1.16ZM415.07,3868.8c-2.01,0-3.98-.98-5.16-2.78-9.3-14.13-18.57-28.55-27.56-42.84-1.81-2.88-.95-6.7,1.94-8.51,2.88-1.82,6.69-.95,8.51,1.94,8.95,14.22,18.17,28.56,27.42,42.63,1.87,2.85,1.08,6.67-1.76,8.55-1.05.69-2.22,1.02-3.39,1.02ZM360.96,3782.79c-2.1,0-4.14-1.07-5.3-2.99-8.72-14.51-17.4-29.29-25.79-43.92-1.7-2.95-.67-6.73,2.28-8.42,2.96-1.7,6.73-.67,8.42,2.28,8.35,14.56,16.98,29.26,25.66,43.7,1.76,2.92.81,6.71-2.11,8.47-1,.6-2.09.88-3.17.88ZM310.4,3694.63c-2.18,0-4.3-1.16-5.42-3.21l-3.24-5.94c-6.99-12.87-13.97-25.99-20.74-39.01-1.57-3.02-.4-6.75,2.62-8.32,3.02-1.57,6.75-.4,8.32,2.63,6.74,12.95,13.68,26,20.64,38.81l3.22,5.91c1.64,2.99.54,6.74-2.45,8.37-.94.51-1.95.76-2.96.76ZM263.48,3604.49c-2.27,0-4.46-1.26-5.54-3.44-7.5-15.15-14.94-30.59-22.12-45.88-1.45-3.09-.12-6.76,2.96-8.21,3.08-1.45,6.76-.12,8.21,2.96,7.15,15.22,14.55,30.58,22.01,45.66,1.51,3.05.26,6.76-2.79,8.27-.88.44-1.81.64-2.73.64ZM220.28,3512.51c-2.36,0-4.62-1.37-5.64-3.67-6.86-15.42-13.66-31.15-20.22-46.75-1.32-3.14.15-6.76,3.3-8.08,3.14-1.32,6.76.15,8.08,3.3,6.53,15.53,13.3,31.18,20.12,46.52,1.39,3.11-.02,6.76-3.13,8.15-.82.36-1.67.53-2.51.53ZM180.9,3418.83c-2.46,0-4.78-1.48-5.74-3.9-6.23-15.7-12.38-31.7-18.29-47.53-1.19-3.19.43-6.75,3.63-7.94,3.19-1.19,6.75.43,7.94,3.62,5.88,15.76,12,31.68,18.2,47.3,1.26,3.17-.29,6.75-3.46,8.01-.75.3-1.52.44-2.27.44ZM145.39,3323.63c-2.55,0-4.94-1.59-5.82-4.14-5.57-15.92-11.06-32.16-16.32-48.24-1.06-3.24.71-6.73,3.95-7.78,3.25-1.06,6.72.71,7.78,3.95,5.23,16.01,10.7,32.16,16.24,48.01,1.13,3.22-.57,6.74-3.79,7.86-.67.24-1.36.35-2.04.35ZM113.82,3227.06c-2.65,0-5.09-1.72-5.9-4.38-4.91-16.15-9.73-32.59-14.32-48.87-.93-3.28.98-6.69,4.26-7.62,3.29-.92,6.69.98,7.61,4.26,4.57,16.2,9.37,32.56,14.25,48.63.99,3.26-.85,6.71-4.11,7.7-.6.18-1.2.27-1.8.27ZM86.24,3129.28c-2.74,0-5.25-1.84-5.97-4.62-4.26-16.38-8.4-33-12.31-49.41-.79-3.32,1.26-6.64,4.57-7.43,3.32-.79,6.64,1.26,7.43,4.57,3.89,16.33,8.01,32.87,12.24,49.17.86,3.3-1.12,6.67-4.42,7.53-.52.14-1.04.2-1.56.2ZM62.7,3030.46c-2.84,0-5.4-1.98-6.03-4.87-3.57-16.5-7.03-33.28-10.27-49.87-.65-3.34,1.53-6.59,4.87-7.24,3.36-.65,6.59,1.53,7.24,4.87,3.22,16.51,6.66,33.21,10.22,49.63.72,3.33-1.39,6.62-4.72,7.34-.44.1-.88.14-1.31.14ZM43.23,2930.77c-2.94,0-5.55-2.12-6.07-5.11-2.9-16.63-5.66-33.54-8.22-50.25-.52-3.37,1.8-6.52,5.17-7.03,3.35-.52,6.52,1.8,7.03,5.17,2.55,16.63,5.3,33.45,8.18,50,.58,3.36-1.66,6.55-5.02,7.14-.36.06-.71.09-1.07.09ZM27.85,2830.37c-3.05,0-5.7-2.26-6.11-5.36-2.22-16.76-4.29-33.76-6.17-50.53-.38-3.39,2.06-6.44,5.45-6.82,3.39-.39,6.44,2.06,6.82,5.45,1.86,16.69,3.93,33.61,6.13,50.28.45,3.38-1.93,6.48-5.31,6.93-.27.04-.55.05-.82.05ZM16.58,2729.44c-3.15,0-5.85-2.41-6.14-5.61-1.53-16.8-2.92-33.87-4.11-50.73-.24-3.4,2.32-6.35,5.72-6.59,3.39-.28,6.35,2.32,6.59,5.72,1.19,16.78,2.56,33.77,4.09,50.49.31,3.39-2.19,6.4-5.59,6.71-.19.02-.38.03-.57.03ZM9.4,2628.15c-3.27,0-5.99-2.56-6.16-5.86-.85-16.84-1.55-33.95-2.06-50.85-.1-3.41,2.57-6.25,5.98-6.36,3.4-.01,6.25,2.57,6.36,5.98.51,16.82,1.2,33.84,2.05,50.61.17,3.4-2.45,6.3-5.85,6.47-.11,0-.21,0-.32,0Z"/>
                <path class="cls-54" d="M6.3,2525.71c-3.38,0-6.14-2.72-6.17-6.11-.09-8.58-.13-17.17-.13-25.78,0-3.41,2.76-6.17,6.17-6.17s6.17,2.76,6.17,6.17c0,8.56.04,17.11.13,25.65.03,3.41-2.7,6.2-6.11,6.23h-.06Z"/>
              </g>
            </g>
          </g>
          <g id="Circle_line">
            <g id="Circle_line-2" data-name="Circle_line">
              <path class="cls-38" d="M388.95,2330.76c8.56-27.63,21.84-53.36,39.6-77.17,1.19,30.8,7.51,62.6,18.65,95.19v.02c118.7,347.03,784.55,782.61,1654.24,1051.95,869.71,269.34,1665.2,286.33,1959.24,67.11,27.63-20.58,50.82-43.24,69.21-68,1.19,29.68-2.39,58.41-10.95,86.04-112.14,362.1-1038.03,397.04-2068.05,78.06-1030-318.98-1774.09-871.09-1661.95-1233.19Z"/>
              <path class="cls-45" d="M388.95,2330.76l50.54-163.21c2.49-8.06,5.39-15.95,8.69-23.69,144.69-339.77,1052.25-366.26,2059.34-54.38,1007.1,311.89,1740.84,846.67,1668.18,1208.75-1.65,8.25-3.72,16.4-6.22,24.45l-50.54,163.21c8.56-27.63,12.14-56.36,10.95-86.04-1.18-30.81-7.5-62.62-18.66-95.21-118.68-347.04-784.54-782.59-1654.25-1051.93-869.69-269.33-1665.18-286.33-1959.24-67.13v.02c-27.61,20.59-50.81,43.25-69.19,67.98-17.75,23.81-31.04,49.54-39.6,77.17Z"/>
            </g>
            <circle class="cls-42" cx="3121.8" cy="3670.4" r="156.58"/>
            <circle class="cls-51" cx="962.22" cy="1967.47" r="99.8"/>
            <g id="User_icon">
              <circle class="cls-43" cx="887.35" cy="2910.52" r="184.51"/>
              <g>
                <circle class="cls-59" cx="887.35" cy="2835.93" r="56.13"/>
                <path class="cls-59" d="M887.35,2909.55h0c37.39,0,67.75,30.36,67.75,67.75v24.31h-135.51v-24.31c0-37.39,30.36-67.75,67.75-67.75Z"/>
              </g>
            </g>
            <g>
              <circle class="cls-52" cx="3945.6" cy="2929.58" r="159.41"/>
              <circle class="cls-60" cx="3893.77" cy="2853.81" r="21.68"/>
            </g>
          </g>
          <g id="Cloud_icon">
            <path class="cls-25" d="M2719.52,4195.28c-4.17,21.44-13.85,41.54-27.28,58.81-5.89,7.57-12.49,14.6-19.67,20.96-23.96,21.24-54.3,35.07-85.54,36.92-2.38.14-4.76.21-7.14.21h-255.87c-22.22,0-41.52-6.83-56.3-18.5-9.74-7.69-17.52-17.49-22.87-28.83-7.96-16.84-10.57-37.06-6.34-58.81,8.3-42.72,40.7-79.56,80.36-96.38,30.62-76.96,109.93-134.88,191.52-134.88,70.85,0,123,43.67,135.96,105.56,52.39,10.05,84.28,57.69,73.15,114.94Z"/>
            <path class="cls-53" d="M2688.3,4159.95c-4.17,21.44-13.85,41.54-27.28,58.81-5.89,7.57-12.49,14.6-19.67,20.96-23.96,21.24-54.3,35.07-85.54,36.92-2.38.14-4.76.21-7.14.21h-255.87c-22.22,0-41.52-6.83-56.3-18.5-9.74-7.69-17.52-17.49-22.87-28.83-7.96-16.84-10.57-37.06-6.34-58.81,8.3-42.72,40.7-79.56,80.36-96.38,30.62-76.96,109.93-134.88,191.52-134.88,70.85,0,123,43.67,135.96,105.56,52.39,10.05,84.28,57.69,73.15,114.94Z"/>
          </g>
          <g id="Data_icon">
            <path class="cls-48" d="M4307.01,2350.96h-353.14c-25.73,0-42.54-20.86-37.54-46.59l96.54-496.67c5-25.73,29.92-46.59,55.65-46.59h353.14c25.73,0,42.54,20.86,37.54,46.59l-96.54,496.67c-5,25.73-29.92,46.59-55.65,46.59Z"/>
            <g>
              <path class="cls-55" d="M4263.65,2297.06h-353.14c-25.73,0-42.54-20.86-37.54-46.59l96.54-496.67c5-25.73,29.92-46.59,55.65-46.59h353.14c25.73,0,42.54,20.86,37.54,46.59l-96.54,496.67c-5,25.73-29.92,46.59-55.65,46.59Z"/>
              <path class="cls-60" d="M4086.05,1843.32c-2.91,14.99-17.43,27.15-32.43,27.15s-24.79-12.15-21.87-27.15c2.91-14.99,17.43-27.15,32.43-27.15s24.79,12.15,21.87,27.15Z"/>
              <path class="cls-59" d="M4294.73,1854.13h-155.27c-7.42,0-12.27-6.02-10.82-13.44h0c1.44-7.42,8.63-13.44,16.05-13.44h155.27c7.42,0,12.27,6.02,10.82,13.44h0c-1.44,7.42-8.63,13.44-16.05,13.44Z"/>
              <path class="cls-59" d="M4205.43,1903.9h-75.64c-7.42,0-12.27-6.02-10.82-13.44h0c1.44-7.42,8.63-13.44,16.05-13.44h75.64c7.42,0,12.27,6.02,10.82,13.44h0c-1.44,7.42-8.63,13.44-16.05,13.44Z"/>
              <path class="cls-60" d="M4060.12,1976.69c-2.91,14.99-17.43,27.15-32.43,27.15s-24.79-12.15-21.87-27.15,17.43-27.15,32.43-27.15,24.79,12.15,21.87,27.15Z"/>
              <path class="cls-59" d="M4268.81,1987.5h-155.27c-7.42,0-12.27-6.02-10.82-13.44h0c1.44-7.42,8.63-13.44,16.05-13.44h155.27c7.42,0,12.27,6.02,10.82,13.44h0c-1.44,7.42-8.63,13.44-16.05,13.44Z"/>
              <path class="cls-59" d="M4179.51,2037.27h-75.64c-7.42,0-12.27-6.02-10.82-13.44h0c1.44-7.42,8.63-13.44,16.05-13.44h75.64c7.42,0,12.27,6.02,10.82,13.44h0c-1.44,7.42-8.63,13.44-16.05,13.44Z"/>
              <path class="cls-60" d="M4034.2,2110.06c-2.91,14.99-17.43,27.15-32.43,27.15s-24.79-12.15-21.87-27.15c2.91-14.99,17.43-27.15,32.43-27.15s24.79,12.15,21.87,27.15Z"/>
              <path class="cls-59" d="M4242.88,2120.88h-155.27c-7.42,0-12.27-6.02-10.82-13.44h0c1.44-7.42,8.63-13.44,16.05-13.44h155.27c7.42,0,12.27,6.02,10.82,13.44h0c-1.44,7.42-8.63,13.44-16.05,13.44Z"/>
              <path class="cls-59" d="M4153.58,2170.64h-75.64c-7.42,0-12.27-6.02-10.82-13.44h0c1.44-7.42,8.63-13.44,16.05-13.44h75.64c7.42,0,12.27,6.02,10.82,13.44h0c-1.44,7.42-8.63,13.44-16.05,13.44Z"/>
            </g>
          </g>
          <g id="Lock_Key_icon">
            <path class="cls-49" d="M3310.48,789.43h-11.22l8.23-42.35c8.37-43.04-19.84-78.06-62.89-78.06h-44.98c-43.04,0-84.87,35.02-93.23,78.06l-8.23,42.35h-11.22c-14.3,0-28.14,11.59-30.92,25.89l-36.3,186.73c-2.78,14.3,6.56,25.89,20.85,25.89h223.55c14.3,0,28.14-11.59,30.92-25.89l36.3-186.73c2.78-14.3-6.56-25.89-20.85-25.89ZM3135.77,747.07c5.22-26.84,31.3-48.67,58.14-48.67h44.98c26.84,0,44.43,21.84,39.21,48.67l-8.23,42.35h-142.33l8.23-42.35Z"/>
            <path class="cls-27" d="M3032.78,889.57h-830.49c-86.01,0-142.18-69.72-125.46-155.74h0c16.72-86.01,100-155.74,186.01-155.74h830.49c86.01,0,142.18,69.72,125.46,155.74h0c-16.72,86.01-100,155.74-186.01,155.74Z"/>
            <g>
              <polygon class="cls-41" points="2381.57 698.63 2325.28 721.7 2340.27 665.2 2306.53 665.2 2299.55 721.7 2252.24 698.63 2234.48 730.49 2285.94 746.06 2238.55 786.72 2260.23 808.59 2305.02 759.77 2330.83 808.59 2361.01 786.72 2329.42 746.06 2386.93 730.49 2381.57 698.63"/>
              <polygon class="cls-41" points="2569 698.63 2512.72 721.7 2527.7 665.2 2493.97 665.2 2486.99 721.7 2439.67 698.63 2421.92 730.49 2473.38 746.06 2425.98 786.72 2447.66 808.59 2492.45 759.77 2518.26 808.59 2548.44 786.72 2516.86 746.06 2574.37 730.49 2569 698.63"/>
              <polygon class="cls-41" points="2756.44 698.63 2700.15 721.7 2715.14 665.2 2681.4 665.2 2674.42 721.7 2627.11 698.63 2609.35 730.49 2660.81 746.06 2613.42 786.72 2635.1 808.59 2679.89 759.77 2705.7 808.59 2735.88 786.72 2704.29 746.06 2761.8 730.49 2756.44 698.63"/>
              <polygon class="cls-41" points="2949.24 730.49 2943.87 698.63 2887.59 721.7 2902.57 665.2 2868.83 665.2 2861.85 721.7 2814.54 698.63 2796.79 730.49 2848.25 746.06 2800.85 786.72 2822.53 808.59 2867.32 759.77 2893.13 808.59 2923.31 786.72 2891.73 746.06 2949.24 730.49"/>
            </g>
            <g>
              <path class="cls-31" d="M3182.21,891.37h-44.98c-43.04,0-71.25-35.02-62.89-78.06l15.99-82.28c8.37-43.04,50.19-78.06,93.23-78.06h44.98c43.04,0,71.25,35.02,62.89,78.06l-15.99,82.28c-8.37,43.04-50.19,78.06-93.23,78.06ZM3177.86,682.35c-26.84,0-52.92,21.84-58.14,48.67l-15.99,82.28c-5.22,26.84,12.37,48.67,39.21,48.67h44.98c26.84,0,52.92-21.84,58.14-48.67l15.99-82.28c5.22-26.84-12.37-48.67-39.21-48.67h-44.98Z"/>
              <path class="cls-1" d="M3248.07,1011.88h-223.55c-14.3,0-23.63-11.59-20.85-25.89l36.3-186.73c2.78-14.3,16.62-25.89,30.92-25.89h223.55c14.3,0,23.63,11.59,20.85,25.89l-36.3,186.73c-2.78,14.3-16.62,25.89-30.92,25.89Z"/>
              <path class="cls-59" d="M3197.86,868.45c3.62-18.61-8.53-33.69-27.14-33.69s-36.62,15.08-40.24,33.69c-2.14,11.03,1.28,20.79,8.28,26.94l-24.23,55.11h67.38l-2.8-55.11c9.39-6.15,16.61-15.91,18.75-26.94Z"/>
            </g>
            <path class="cls-60" d="M3284.57,815.79c-2.04,10.48-12.18,18.97-22.66,18.97s-17.32-8.49-15.28-18.97,12.18-18.97,22.66-18.97,17.32,8.49,15.28,18.97Z"/>
          </g>
          <g id="Decor_object">
            <g id="Tick_icon">
              <g class="cls-36">
                <path class="cls-19" d="M1441.19,1422.88h-221.87c-11.18,0-18.48-9.06-16.3-20.24h0c2.17-11.18,13-20.24,24.17-20.24h221.87c11.18,0,18.48,9.06,16.3,20.24h0c-2.17,11.18-13,20.24-24.17,20.24Z"/>
                <path class="cls-12" d="M1424.64,1508.05h-221.87c-11.18,0-18.48-9.06-16.3-20.24h0c2.17-11.18,13-20.24,24.17-20.24h221.87c11.18,0,18.48,9.06,16.3,20.24h0c-2.17,11.18-13,20.24-24.17,20.24Z"/>
                <path class="cls-16" d="M1682.21,1508.05h-170.38c-11.18,0-18.48-9.06-16.3-20.24h0c2.17-11.18,13-20.24,24.17-20.24h170.38c11.18,0,18.48,9.06,16.3,20.24h0c-2.17,11.18-13,20.24-24.17,20.24Z"/>
                <path class="cls-20" d="M1607.26,1422.88h-78.87c-11.18,0-18.48-9.06-16.3-20.24h0c2.17-11.18,13-20.24,24.17-20.24h78.87c11.18,0,18.48,9.06,16.3,20.24h0c-2.17,11.18-13,20.24-24.17,20.24Z"/>
                <path class="cls-14" d="M1364.84,1337.7h-128.96c-11.18,0-18.48-9.06-16.3-20.24h0c2.17-11.18,13-20.24,24.17-20.24h128.96c11.18,0,18.48,9.06,16.3,20.24h0c-2.17,11.18-13,20.24-24.17,20.24Z"/>
                <path class="cls-17" d="M1457.75,1337.7h-31.79c-11.18,0-18.48-9.06-16.3-20.24h0c2.17-11.18,13-20.24,24.17-20.24h31.79c11.18,0,18.48,9.06,16.3,20.24h0c-2.17,11.18-13,20.24-24.17,20.24Z"/>
              </g>
              <g>
                <path class="cls-26" d="M1024.41,1554.86h-248.13c-39.23,0-64.85-31.8-57.22-71.03l48.23-248.13c7.63-39.23,45.61-71.03,84.84-71.03h248.13c39.23,0,64.85,31.8,57.22,71.03l-48.23,248.13c-7.63,39.23-45.61,71.03-84.84,71.03Z"/>
                <g>
                  <path class="cls-57" d="M962.72,1493.16h-248.13c-39.23,0-64.85-31.8-57.22-71.03l48.23-248.13c7.63-39.23,45.61-71.03,84.84-71.03h248.13c39.23,0,64.85,31.8,57.22,71.03l-48.23,248.13c-7.63,39.23-45.61,71.03-84.84,71.03Z"/>
                  <path class="cls-60" d="M838.65,1379.51c-.72,0-1.44-.04-2.16-.11-5.9-.58-11.33-3.51-15.05-8.13l-39.04-48.46c-7.66-9.5-6.16-23.41,3.34-31.07,9.51-7.66,23.42-6.16,31.07,3.35l24.91,30.92,124.49-104.23c9.36-7.83,23.29-6.6,31.13,2.76,7.83,9.36,6.6,23.29-2.76,31.13l-141.76,118.69c-3.99,3.34-9.02,5.15-14.18,5.15Z"/>
                </g>
              </g>
            </g>
            <g class="cls-36">
              <path class="cls-2" d="M4474.83,2564.5h-221.87c-11.18,0-18.48-9.06-16.3-20.24h0c2.17-11.18,13-20.24,24.17-20.24h221.87c11.18,0,18.48,9.06,16.3,20.24h0c-2.17,11.18-13,20.24-24.17,20.24Z"/>
              <path class="cls-13" d="M4458.27,2649.68h-221.87c-11.18,0-18.48-9.06-16.3-20.24h0c2.17-11.18,13-20.24,24.17-20.24h221.87c11.18,0,18.48,9.06,16.3,20.24h0c-2.17,11.18-13,20.24-24.17,20.24Z"/>
              <path class="cls-11" d="M4715.84,2649.68h-170.38c-11.18,0-18.48-9.06-16.3-20.24h0c2.17-11.18,13-20.24,24.17-20.24h170.38c11.18,0,18.48,9.06,16.3,20.24h0c-2.17,11.18-13,20.24-24.17,20.24Z"/>
              <path class="cls-15" d="M4640.89,2564.5h-78.87c-11.18,0-18.48-9.06-16.3-20.24h0c2.17-11.18,13-20.24,24.17-20.24h78.87c11.18,0,18.48,9.06,16.3,20.24h0c-2.17,11.18-13,20.24-24.17,20.24Z"/>
              <path class="cls-6" d="M4398.47,2479.33h-128.96c-11.18,0-18.48-9.06-16.3-20.24h0c2.17-11.18,13-20.24,24.17-20.24h128.96c11.18,0,18.48,9.06,16.3,20.24h0c-2.17,11.18-13,20.24-24.17,20.24Z"/>
              <path class="cls-18" d="M4491.38,2479.33h-31.79c-11.18,0-18.48-9.06-16.3-20.24h0c2.17-11.18,13-20.24,24.17-20.24h31.79c11.18,0,18.48,9.06,16.3,20.24h0c-2.17,11.18-13,20.24-24.17,20.24Z"/>
            </g>
            <g class="cls-36">
              <path class="cls-9" d="M598.68,3329.62h-221.87c-11.18,0-18.48-9.06-16.3-20.24h0c2.17-11.18,13-20.24,24.17-20.24h221.87c11.18,0,18.48,9.06,16.3,20.24h0c-2.17,11.18-13,20.24-24.17,20.24Z"/>
              <path class="cls-4" d="M582.12,3414.8h-221.87c-11.18,0-18.48-9.06-16.3-20.24h0c2.17-11.18,13-20.24,24.17-20.24h221.87c11.18,0,18.48,9.06,16.3,20.24h0c-2.17,11.18-13,20.24-24.17,20.24Z"/>
              <path class="cls-10" d="M839.69,3414.8h-170.38c-11.18,0-18.48-9.06-16.3-20.24h0c2.17-11.18,13-20.24,24.17-20.24h170.38c11.18,0,18.48,9.06,16.3,20.24h0c-2.17,11.18-13,20.24-24.17,20.24Z"/>
              <path class="cls-7" d="M764.74,3329.62h-78.87c-11.18,0-18.48-9.06-16.3-20.24h0c2.17-11.18,13-20.24,24.17-20.24h78.87c11.18,0,18.48,9.06,16.3,20.24h0c-2.17,11.18-13,20.24-24.17,20.24Z"/>
              <path class="cls-8" d="M522.32,3244.44h-128.96c-11.18,0-18.48-9.06-16.3-20.24h0c2.17-11.18,13-20.24,24.17-20.24h128.96c11.18,0,18.48,9.06,16.3,20.24h0c-2.17,11.18-13,20.24-24.17,20.24Z"/>
              <path class="cls-3" d="M615.23,3244.44h-31.79c-11.18,0-18.48-9.06-16.3-20.24h0c2.17-11.18,13-20.24,24.17-20.24h31.79c11.18,0,18.48,9.06,16.3,20.24h0c-2.17,11.18-13,20.24-24.17,20.24Z"/>
            </g>
            <g>
              <path class="cls-30" d="M949,3576.27h-.29l-23.49,10.3,2.12-10.89,27.27-12.36h9.86l-19.91,102.43h-12.95l17.39-89.48Z"/>
              <path class="cls-30" d="M1011.5,3667.37c-7.56,0-13.6-2.08-18.14-6.26-4.54-4.17-7.39-10.18-8.56-18.03-1.17-7.85-.69-17.27,1.45-28.26,2.16-11.09,5.34-20.55,9.57-28.4,4.22-7.85,9.42-13.88,15.59-18.1,6.17-4.22,13.03-6.33,20.58-6.33s13.55,2.11,17.98,6.33c4.43,4.22,7.25,10.25,8.48,18.1,1.22,7.85.75,17.32-1.4,28.4s-5.34,20.41-9.61,28.26c-4.27,7.85-9.44,13.86-15.5,18.03-6.06,4.17-12.87,6.26-20.42,6.26ZM1013.38,3656.92c5.3,0,9.9-1.72,13.81-5.15,3.9-3.43,7.2-8.29,9.9-14.57,2.69-6.28,4.88-13.73,6.56-22.37s2.43-16.26,2.18-22.59-1.65-11.21-4.22-14.64c-2.57-3.43-6.46-5.15-11.66-5.15s-9.92,1.72-13.88,5.15c-3.96,3.44-7.28,8.32-9.98,14.64-2.7,6.33-4.9,13.86-6.6,22.59-1.68,8.63-2.39,16.09-2.14,22.37.25,6.28,1.68,11.14,4.31,14.57,2.62,3.44,6.53,5.15,11.73,5.15Z"/>
              <path class="cls-30" d="M1105.88,3576.27h-.29l-23.49,10.3,2.12-10.89,27.27-12.36h9.86l-19.91,102.43h-12.95l17.39-89.48Z"/>
              <path class="cls-30" d="M1168.38,3667.37c-7.56,0-13.6-2.08-18.14-6.26-4.54-4.17-7.39-10.18-8.56-18.03-1.17-7.85-.69-17.27,1.45-28.26,2.16-11.09,5.34-20.55,9.57-28.4,4.22-7.85,9.42-13.88,15.59-18.1,6.17-4.22,13.03-6.33,20.58-6.33s13.55,2.11,17.98,6.33c4.43,4.22,7.25,10.25,8.48,18.1,1.22,7.85.75,17.32-1.4,28.4-2.14,10.99-5.34,20.41-9.61,28.26-4.27,7.85-9.44,13.86-15.5,18.03-6.06,4.17-12.87,6.26-20.42,6.26ZM1170.27,3656.92c5.3,0,9.9-1.72,13.81-5.15,3.9-3.43,7.2-8.29,9.9-14.57,2.69-6.28,4.88-13.73,6.56-22.37,1.7-8.73,2.43-16.26,2.18-22.59-.24-6.33-1.65-11.21-4.22-14.64-2.57-3.43-6.46-5.15-11.66-5.15s-9.92,1.72-13.88,5.15c-3.96,3.44-7.28,8.32-9.98,14.64-2.7,6.33-4.9,13.86-6.6,22.59-1.68,8.63-2.39,16.09-2.14,22.37.25,6.28,1.68,11.14,4.31,14.57,2.62,3.44,6.53,5.15,11.73,5.15Z"/>
              <path class="cls-30" d="M1262.77,3576.27h-.29l-23.49,10.3,2.12-10.89,27.27-12.36h9.86l-19.91,102.43h-12.95l17.39-89.48Z"/>
              <path class="cls-30" d="M1325.27,3667.37c-7.56,0-13.6-2.08-18.14-6.26-4.54-4.17-7.39-10.18-8.56-18.03-1.17-7.85-.69-17.27,1.45-28.26,2.16-11.09,5.34-20.55,9.57-28.4,4.22-7.85,9.42-13.88,15.59-18.1,6.17-4.22,13.03-6.33,20.58-6.33s13.55,2.11,17.98,6.33c4.43,4.22,7.25,10.25,8.48,18.1,1.22,7.85.75,17.32-1.4,28.4-2.14,10.99-5.34,20.41-9.61,28.26-4.27,7.85-9.44,13.86-15.5,18.03-6.06,4.17-12.87,6.26-20.42,6.26ZM1327.15,3656.92c5.3,0,9.9-1.72,13.81-5.15,3.9-3.43,7.2-8.29,9.9-14.57,2.69-6.28,4.88-13.73,6.56-22.37s2.43-16.26,2.18-22.59-1.65-11.21-4.22-14.64c-2.57-3.43-6.46-5.15-11.66-5.15s-9.92,1.72-13.88,5.15c-3.96,3.44-7.28,8.32-9.98,14.64-2.7,6.33-4.9,13.86-6.6,22.59-1.68,8.63-2.39,16.09-2.14,22.37.25,6.28,1.68,11.14,4.31,14.57,2.62,3.44,6.53,5.15,11.73,5.15Z"/>
              <path class="cls-30" d="M914.67,3752.87h-.29l-23.49,10.3,2.12-10.89,27.27-12.36h9.86l-19.91,102.43h-12.95l17.39-89.48Z"/>
              <path class="cls-30" d="M977.17,3843.97c-7.56,0-13.6-2.08-18.14-6.26-4.54-4.17-7.39-10.18-8.56-18.03-1.17-7.85-.69-17.27,1.45-28.26,2.16-11.09,5.34-20.55,9.57-28.4,4.22-7.85,9.42-13.88,15.59-18.1,6.17-4.22,13.03-6.33,20.58-6.33s13.55,2.11,17.98,6.33c4.43,4.22,7.25,10.25,8.48,18.1,1.22,7.85.75,17.32-1.4,28.4-2.14,10.99-5.34,20.41-9.61,28.26-4.27,7.85-9.44,13.86-15.5,18.03-6.06,4.17-12.87,6.26-20.42,6.26ZM979.06,3833.52c5.3,0,9.9-1.72,13.81-5.15,3.9-3.43,7.2-8.29,9.9-14.57,2.69-6.28,4.88-13.73,6.56-22.37,1.7-8.73,2.43-16.26,2.18-22.59-.24-6.33-1.65-11.21-4.22-14.64-2.57-3.43-6.46-5.15-11.66-5.15s-9.92,1.72-13.88,5.15c-3.96,3.44-7.28,8.32-9.98,14.64-2.7,6.33-4.9,13.86-6.6,22.59s-2.39,16.09-2.14,22.37c.25,6.28,1.68,11.14,4.31,14.57,2.62,3.44,6.53,5.15,11.73,5.15Z"/>
              <path class="cls-30" d="M1071.55,3752.87h-.29l-23.49,10.3,2.12-10.89,27.27-12.36h9.86l-19.91,102.43h-12.95l17.39-89.48Z"/>
              <path class="cls-30" d="M1134.05,3843.97c-7.56,0-13.6-2.08-18.14-6.26-4.54-4.17-7.39-10.18-8.56-18.03-1.17-7.85-.69-17.27,1.45-28.26,2.16-11.09,5.34-20.55,9.57-28.4,4.22-7.85,9.42-13.88,15.59-18.1,6.17-4.22,13.03-6.33,20.58-6.33s13.55,2.11,17.98,6.33c4.43,4.22,7.25,10.25,8.48,18.1,1.22,7.85.75,17.32-1.4,28.4s-5.34,20.41-9.61,28.26c-4.27,7.85-9.44,13.86-15.5,18.03-6.06,4.17-12.87,6.26-20.42,6.26ZM1135.94,3833.52c5.3,0,9.9-1.72,13.81-5.15,3.9-3.43,7.2-8.29,9.9-14.57,2.69-6.28,4.88-13.73,6.56-22.37s2.43-16.26,2.18-22.59c-.24-6.33-1.65-11.21-4.22-14.64-2.57-3.43-6.46-5.15-11.66-5.15s-9.92,1.72-13.88,5.15c-3.96,3.44-7.28,8.32-9.98,14.64-2.7,6.33-4.9,13.86-6.6,22.59-1.68,8.63-2.39,16.09-2.14,22.37.25,6.28,1.68,11.14,4.31,14.57,2.62,3.44,6.53,5.15,11.73,5.15Z"/>
              <path class="cls-30" d="M1228.44,3752.87h-.29l-23.49,10.3,2.12-10.89,27.27-12.36h9.86l-19.91,102.43h-12.95l17.39-89.48Z"/>
              <path class="cls-30" d="M1290.94,3843.97c-7.56,0-13.6-2.08-18.14-6.26-4.54-4.17-7.39-10.18-8.56-18.03-1.17-7.85-.69-17.27,1.45-28.26,2.16-11.09,5.34-20.55,9.57-28.4,4.22-7.85,9.42-13.88,15.59-18.1,6.17-4.22,13.03-6.33,20.58-6.33s13.55,2.11,17.98,6.33c4.43,4.22,7.25,10.25,8.48,18.1,1.22,7.85.75,17.32-1.4,28.4-2.14,10.99-5.34,20.41-9.61,28.26-4.27,7.85-9.44,13.86-15.5,18.03-6.06,4.17-12.87,6.26-20.42,6.26ZM1292.82,3833.52c5.3,0,9.9-1.72,13.81-5.15,3.9-3.43,7.2-8.29,9.9-14.57,2.69-6.28,4.88-13.73,6.56-22.37,1.7-8.73,2.43-16.26,2.18-22.59-.24-6.33-1.65-11.21-4.22-14.64-2.57-3.43-6.46-5.15-11.66-5.15s-9.92,1.72-13.88,5.15c-3.96,3.44-7.28,8.32-9.98,14.64-2.7,6.33-4.9,13.86-6.6,22.59s-2.39,16.09-2.14,22.37c.25,6.28,1.68,11.14,4.31,14.57,2.62,3.44,6.53,5.15,11.73,5.15Z"/>
              <path class="cls-30" d="M1385.32,3752.87h-.29l-23.49,10.3,2.12-10.89,27.27-12.36h9.86l-19.91,102.43h-12.95l17.39-89.48Z"/>
              <path class="cls-30" d="M880.34,3929.48h-.29l-23.49,10.3,2.12-10.89,27.27-12.36h9.86l-19.91,102.43h-12.95l17.39-89.48Z"/>
              <path class="cls-30" d="M942.84,4020.57c-7.56,0-13.6-2.08-18.14-6.26-4.54-4.17-7.39-10.18-8.56-18.03-1.17-7.85-.69-17.27,1.45-28.26s5.34-20.55,9.57-28.4c4.22-7.85,9.42-13.88,15.59-18.1,6.17-4.22,13.03-6.33,20.58-6.33s13.55,2.11,17.98,6.33c4.43,4.22,7.25,10.25,8.48,18.1,1.22,7.85.75,17.32-1.4,28.4-2.14,10.99-5.34,20.41-9.61,28.26-4.27,7.85-9.44,13.86-15.5,18.03-6.06,4.17-12.87,6.26-20.42,6.26ZM944.73,4010.12c5.3,0,9.9-1.72,13.81-5.15,3.9-3.43,7.2-8.29,9.9-14.57,2.69-6.28,4.88-13.73,6.56-22.37,1.7-8.73,2.43-16.26,2.18-22.59s-1.65-11.21-4.22-14.64c-2.57-3.43-6.46-5.15-11.66-5.15s-9.92,1.72-13.88,5.15c-3.96,3.44-7.28,8.32-9.98,14.64-2.7,6.33-4.9,13.86-6.6,22.59-1.68,8.63-2.39,16.09-2.14,22.37.25,6.28,1.68,11.14,4.31,14.57,2.62,3.44,6.53,5.15,11.73,5.15Z"/>
              <path class="cls-30" d="M1037.23,3929.48h-.29l-23.49,10.3,2.12-10.89,27.27-12.36h9.86l-19.91,102.43h-12.95l17.39-89.48Z"/>
              <path class="cls-30" d="M1099.73,4020.57c-7.56,0-13.6-2.08-18.14-6.26-4.54-4.17-7.39-10.18-8.56-18.03-1.17-7.85-.69-17.27,1.45-28.26,2.16-11.09,5.34-20.55,9.57-28.4,4.22-7.85,9.42-13.88,15.59-18.1,6.17-4.22,13.03-6.33,20.58-6.33s13.55,2.11,17.98,6.33c4.43,4.22,7.25,10.25,8.48,18.1,1.22,7.85.75,17.32-1.4,28.4-2.14,10.99-5.34,20.41-9.61,28.26-4.27,7.85-9.44,13.86-15.5,18.03-6.06,4.17-12.87,6.26-20.42,6.26ZM1101.61,4010.12c5.3,0,9.9-1.72,13.81-5.15,3.9-3.43,7.2-8.29,9.9-14.57,2.69-6.28,4.88-13.73,6.56-22.37s2.43-16.26,2.18-22.59-1.65-11.21-4.22-14.64c-2.57-3.43-6.46-5.15-11.66-5.15s-9.92,1.72-13.88,5.15c-3.96,3.44-7.28,8.32-9.98,14.64-2.7,6.33-4.9,13.86-6.6,22.59-1.68,8.63-2.39,16.09-2.14,22.37.25,6.28,1.68,11.14,4.31,14.57,2.62,3.44,6.53,5.15,11.73,5.15Z"/>
              <path class="cls-30" d="M1194.11,3929.48h-.29l-23.49,10.3,2.12-10.89,27.27-12.36h9.86l-19.91,102.43h-12.95l17.39-89.48Z"/>
              <path class="cls-30" d="M1256.61,4020.57c-7.56,0-13.6-2.08-18.14-6.26-4.54-4.17-7.39-10.18-8.56-18.03-1.17-7.85-.69-17.27,1.45-28.26s5.34-20.55,9.57-28.4c4.22-7.85,9.42-13.88,15.59-18.1,6.17-4.22,13.03-6.33,20.58-6.33s13.55,2.11,17.98,6.33c4.43,4.22,7.25,10.25,8.48,18.1,1.22,7.85.75,17.32-1.4,28.4s-5.34,20.41-9.61,28.26c-4.27,7.85-9.44,13.86-15.5,18.03-6.06,4.17-12.87,6.26-20.42,6.26ZM1258.49,4010.12c5.3,0,9.9-1.72,13.81-5.15,3.9-3.43,7.2-8.29,9.9-14.57,2.69-6.28,4.88-13.73,6.56-22.37,1.7-8.73,2.43-16.26,2.18-22.59s-1.65-11.21-4.22-14.64c-2.57-3.43-6.46-5.15-11.66-5.15s-9.92,1.72-13.88,5.15c-3.96,3.44-7.28,8.32-9.98,14.64-2.7,6.33-4.9,13.86-6.6,22.59-1.68,8.63-2.39,16.09-2.14,22.37.25,6.28,1.68,11.14,4.31,14.57,2.62,3.44,6.53,5.15,11.73,5.15Z"/>
              <path class="cls-30" d="M1350.99,3929.48h-.29l-23.49,10.3,2.12-10.89,27.27-12.36h9.86l-19.91,102.43h-12.95l17.39-89.48Z"/>
              <path class="cls-30" d="M1413.49,4020.57c-7.56,0-13.6-2.08-18.14-6.26-4.54-4.17-7.39-10.18-8.56-18.03-1.17-7.85-.69-17.27,1.45-28.26s5.34-20.55,9.57-28.4c4.22-7.85,9.42-13.88,15.59-18.1,6.17-4.22,13.03-6.33,20.58-6.33s13.55,2.11,17.98,6.33c4.43,4.22,7.25,10.25,8.48,18.1,1.22,7.85.75,17.32-1.4,28.4-2.14,10.99-5.34,20.41-9.61,28.26-4.27,7.85-9.44,13.86-15.5,18.03-6.06,4.17-12.87,6.26-20.42,6.26ZM1415.37,4010.12c5.3,0,9.9-1.72,13.81-5.15,3.9-3.43,7.2-8.29,9.9-14.57,2.69-6.28,4.88-13.73,6.56-22.37,1.7-8.73,2.43-16.26,2.18-22.59s-1.65-11.21-4.22-14.64c-2.57-3.43-6.46-5.15-11.66-5.15s-9.92,1.72-13.88,5.15c-3.96,3.44-7.28,8.32-9.98,14.64-2.7,6.33-4.9,13.86-6.6,22.59-1.68,8.63-2.39,16.09-2.14,22.37.25,6.28,1.68,11.14,4.31,14.57,2.62,3.44,6.53,5.15,11.73,5.15Z"/>
            </g>
            <g>
              <path class="cls-30" d="M3561.68,521.88h-.29l-23.49,10.3,2.12-10.89,27.27-12.36h9.86l-19.91,102.43h-12.95l17.39-89.48Z"/>
              <path class="cls-30" d="M3624.18,612.98c-7.56,0-13.6-2.08-18.14-6.26-4.54-4.17-7.39-10.18-8.56-18.03-1.17-7.85-.69-17.27,1.44-28.26s5.34-20.55,9.57-28.4c4.22-7.85,9.42-13.88,15.59-18.1s13.03-6.33,20.58-6.33,13.55,2.11,17.98,6.33c4.43,4.22,7.25,10.25,8.48,18.1,1.22,7.85.75,17.32-1.4,28.4-2.14,10.99-5.34,20.41-9.61,28.26-4.27,7.85-9.44,13.86-15.5,18.03-6.06,4.17-12.87,6.26-20.42,6.26ZM3626.07,602.53c5.3,0,9.9-1.72,13.81-5.15,3.9-3.43,7.2-8.29,9.9-14.57,2.69-6.28,4.88-13.73,6.56-22.37,1.7-8.73,2.43-16.26,2.18-22.59-.24-6.33-1.65-11.21-4.22-14.64-2.57-3.43-6.46-5.15-11.66-5.15s-9.92,1.72-13.88,5.15c-3.96,3.44-7.28,8.32-9.98,14.64-2.7,6.33-4.9,13.86-6.6,22.59-1.68,8.63-2.39,16.09-2.14,22.37.25,6.28,1.68,11.14,4.31,14.57,2.62,3.44,6.53,5.15,11.73,5.15Z"/>
              <path class="cls-30" d="M3718.56,521.88h-.29l-23.49,10.3,2.12-10.89,27.27-12.36h9.86l-19.91,102.43h-12.95l17.39-89.48Z"/>
              <path class="cls-30" d="M3781.06,612.98c-7.56,0-13.6-2.08-18.14-6.26-4.54-4.17-7.39-10.18-8.56-18.03-1.17-7.85-.69-17.27,1.45-28.26,2.16-11.09,5.34-20.55,9.57-28.4,4.22-7.85,9.42-13.88,15.59-18.1,6.17-4.22,13.03-6.33,20.58-6.33s13.55,2.11,17.97,6.33c4.43,4.22,7.25,10.25,8.48,18.1,1.22,7.85.75,17.32-1.4,28.4-2.14,10.99-5.34,20.41-9.61,28.26-4.27,7.85-9.44,13.86-15.5,18.03-6.06,4.17-12.87,6.26-20.42,6.26ZM3782.95,602.53c5.3,0,9.9-1.72,13.81-5.15,3.91-3.43,7.2-8.29,9.9-14.57,2.69-6.28,4.88-13.73,6.56-22.37s2.42-16.26,2.18-22.59c-.24-6.33-1.65-11.21-4.22-14.64-2.57-3.43-6.46-5.15-11.65-5.15s-9.93,1.72-13.88,5.15c-3.96,3.44-7.28,8.32-9.98,14.64-2.7,6.33-4.9,13.86-6.6,22.59-1.68,8.63-2.39,16.09-2.14,22.37.25,6.28,1.68,11.14,4.31,14.57,2.62,3.44,6.53,5.15,11.73,5.15Z"/>
              <path class="cls-30" d="M3875.45,521.88h-.3l-23.49,10.3,2.12-10.89,27.27-12.36h9.86l-19.91,102.43h-12.95l17.39-89.48Z"/>
              <path class="cls-30" d="M3937.95,612.98c-7.56,0-13.6-2.08-18.14-6.26-4.54-4.17-7.39-10.18-8.56-18.03-1.17-7.85-.69-17.27,1.45-28.26,2.16-11.09,5.34-20.55,9.57-28.4,4.22-7.85,9.42-13.88,15.59-18.1,6.17-4.22,13.03-6.33,20.58-6.33s13.55,2.11,17.97,6.33c4.43,4.22,7.25,10.25,8.48,18.1,1.22,7.85.75,17.32-1.4,28.4-2.14,10.99-5.34,20.41-9.61,28.26-4.27,7.85-9.44,13.86-15.5,18.03-6.06,4.17-12.87,6.26-20.42,6.26ZM3939.83,602.53c5.3,0,9.9-1.72,13.81-5.15,3.91-3.43,7.2-8.29,9.9-14.57,2.69-6.28,4.88-13.73,6.56-22.37,1.7-8.73,2.42-16.26,2.18-22.59-.24-6.33-1.65-11.21-4.22-14.64-2.57-3.43-6.46-5.15-11.65-5.15s-9.93,1.72-13.88,5.15c-3.96,3.44-7.28,8.32-9.98,14.64-2.7,6.33-4.9,13.86-6.6,22.59-1.68,8.63-2.39,16.09-2.14,22.37.25,6.28,1.68,11.14,4.31,14.57,2.62,3.44,6.53,5.15,11.73,5.15Z"/>
              <path class="cls-30" d="M3527.35,698.48h-.29l-23.49,10.3,2.12-10.89,27.27-12.36h9.86l-19.91,102.43h-12.95l17.39-89.48Z"/>
              <path class="cls-30" d="M3589.85,789.58c-7.56,0-13.6-2.08-18.14-6.26-4.54-4.17-7.39-10.18-8.56-18.03-1.17-7.85-.69-17.27,1.44-28.26,2.16-11.09,5.34-20.55,9.57-28.4,4.22-7.85,9.42-13.88,15.59-18.1s13.03-6.33,20.58-6.33,13.55,2.11,17.98,6.33c4.43,4.22,7.25,10.25,8.48,18.1,1.22,7.85.75,17.32-1.4,28.4-2.14,10.99-5.34,20.41-9.61,28.26-4.27,7.85-9.44,13.86-15.5,18.03-6.06,4.17-12.87,6.26-20.42,6.26ZM3591.74,779.13c5.3,0,9.9-1.72,13.81-5.15,3.9-3.43,7.2-8.29,9.9-14.57,2.69-6.28,4.88-13.73,6.56-22.37,1.7-8.73,2.43-16.26,2.18-22.59-.24-6.33-1.65-11.21-4.22-14.64-2.57-3.43-6.46-5.15-11.66-5.15s-9.92,1.72-13.88,5.15c-3.96,3.44-7.28,8.32-9.98,14.64-2.7,6.33-4.9,13.86-6.6,22.59-1.68,8.63-2.39,16.09-2.14,22.37.25,6.28,1.68,11.14,4.31,14.57,2.62,3.44,6.53,5.15,11.73,5.15Z"/>
              <path class="cls-30" d="M3684.23,698.48h-.29l-23.49,10.3,2.12-10.89,27.27-12.36h9.86l-19.91,102.43h-12.95l17.39-89.48Z"/>
              <path class="cls-30" d="M3746.74,789.58c-7.56,0-13.6-2.08-18.14-6.26-4.54-4.17-7.39-10.18-8.56-18.03-1.17-7.85-.69-17.27,1.45-28.26,2.16-11.09,5.34-20.55,9.57-28.4,4.22-7.85,9.42-13.88,15.59-18.1,6.17-4.22,13.03-6.33,20.58-6.33s13.55,2.11,17.97,6.33c4.43,4.22,7.25,10.25,8.48,18.1,1.22,7.85.75,17.32-1.4,28.4-2.14,10.99-5.34,20.41-9.61,28.26-4.27,7.85-9.44,13.86-15.5,18.03-6.06,4.17-12.87,6.26-20.42,6.26ZM3748.62,779.13c5.3,0,9.9-1.72,13.81-5.15,3.91-3.43,7.2-8.29,9.9-14.57,2.69-6.28,4.88-13.73,6.56-22.37,1.7-8.73,2.42-16.26,2.18-22.59-.24-6.33-1.65-11.21-4.22-14.64-2.57-3.43-6.46-5.15-11.65-5.15s-9.93,1.72-13.88,5.15c-3.96,3.44-7.28,8.32-9.98,14.64-2.7,6.33-4.9,13.86-6.6,22.59-1.68,8.63-2.39,16.09-2.14,22.37.25,6.28,1.68,11.14,4.31,14.57,2.62,3.44,6.53,5.15,11.73,5.15Z"/>
              <path class="cls-30" d="M3841.12,698.48h-.3l-23.49,10.3,2.12-10.89,27.27-12.36h9.86l-19.91,102.43h-12.95l17.39-89.48Z"/>
              <path class="cls-30" d="M3903.62,789.58c-7.56,0-13.6-2.08-18.14-6.26-4.54-4.17-7.39-10.18-8.56-18.03-1.17-7.85-.69-17.27,1.45-28.26,2.16-11.09,5.34-20.55,9.57-28.4,4.22-7.85,9.42-13.88,15.59-18.1,6.17-4.22,13.03-6.33,20.58-6.33s13.55,2.11,17.97,6.33c4.43,4.22,7.25,10.25,8.48,18.1,1.22,7.85.75,17.32-1.4,28.4-2.14,10.99-5.34,20.41-9.61,28.26-4.27,7.85-9.44,13.86-15.5,18.03-6.06,4.17-12.87,6.26-20.42,6.26ZM3905.5,779.13c5.3,0,9.9-1.72,13.81-5.15,3.91-3.43,7.2-8.29,9.9-14.57,2.69-6.28,4.88-13.73,6.56-22.37,1.7-8.73,2.42-16.26,2.18-22.59-.24-6.33-1.65-11.21-4.22-14.64-2.57-3.43-6.46-5.15-11.65-5.15s-9.93,1.72-13.88,5.15c-3.96,3.44-7.28,8.32-9.98,14.64-2.7,6.33-4.9,13.86-6.6,22.59-1.68,8.63-2.39,16.09-2.14,22.37.25,6.28,1.68,11.14,4.31,14.57,2.62,3.44,6.53,5.15,11.73,5.15Z"/>
              <path class="cls-30" d="M3998,698.48h-.3l-23.49,10.3,2.12-10.89,27.27-12.36h9.86l-19.91,102.43h-12.95l17.39-89.48Z"/>
              <path class="cls-30" d="M3493.02,875.09h-.29l-23.49,10.3,2.12-10.89,27.27-12.36h9.86l-19.91,102.43h-12.95l17.39-89.48Z"/>
              <path class="cls-30" d="M3555.52,966.19c-7.56,0-13.6-2.08-18.14-6.26-4.54-4.17-7.39-10.18-8.56-18.03-1.17-7.85-.69-17.27,1.44-28.26,2.16-11.09,5.34-20.55,9.57-28.4,4.22-7.85,9.42-13.88,15.59-18.1s13.03-6.33,20.58-6.33,13.55,2.11,17.98,6.33c4.43,4.22,7.25,10.25,8.48,18.1,1.22,7.85.75,17.32-1.4,28.4-2.14,10.99-5.34,20.41-9.61,28.26-4.27,7.85-9.44,13.86-15.5,18.03-6.06,4.17-12.87,6.26-20.42,6.26ZM3557.41,955.74c5.3,0,9.9-1.72,13.81-5.15,3.9-3.43,7.2-8.29,9.9-14.57,2.69-6.28,4.88-13.73,6.56-22.37,1.7-8.73,2.43-16.26,2.18-22.59-.24-6.33-1.65-11.21-4.22-14.64-2.57-3.43-6.46-5.15-11.66-5.15s-9.92,1.72-13.88,5.15c-3.96,3.44-7.28,8.32-9.98,14.64-2.7,6.33-4.9,13.86-6.6,22.59-1.68,8.63-2.39,16.09-2.14,22.37.25,6.28,1.68,11.14,4.31,14.57,2.62,3.44,6.53,5.15,11.73,5.15Z"/>
              <path class="cls-30" d="M3649.91,875.09h-.29l-23.49,10.3,2.12-10.89,27.27-12.36h9.86l-19.91,102.43h-12.95l17.39-89.48Z"/>
              <path class="cls-30" d="M3712.41,966.19c-7.56,0-13.6-2.08-18.14-6.26-4.54-4.17-7.39-10.18-8.56-18.03-1.17-7.85-.69-17.27,1.45-28.26,2.16-11.09,5.34-20.55,9.57-28.4,4.22-7.85,9.42-13.88,15.59-18.1,6.17-4.22,13.03-6.33,20.58-6.33s13.55,2.11,17.97,6.33c4.43,4.22,7.25,10.25,8.48,18.1,1.22,7.85.75,17.32-1.4,28.4-2.14,10.99-5.34,20.41-9.61,28.26-4.27,7.85-9.44,13.86-15.5,18.03-6.06,4.17-12.87,6.26-20.42,6.26ZM3714.29,955.74c5.3,0,9.9-1.72,13.81-5.15,3.91-3.43,7.2-8.29,9.9-14.57,2.69-6.28,4.88-13.73,6.56-22.37,1.7-8.73,2.42-16.26,2.18-22.59-.24-6.33-1.65-11.21-4.22-14.64-2.57-3.43-6.46-5.15-11.65-5.15s-9.93,1.72-13.88,5.15c-3.96,3.44-7.28,8.32-9.98,14.64-2.7,6.33-4.9,13.86-6.6,22.59-1.68,8.63-2.39,16.09-2.14,22.37.25,6.28,1.68,11.14,4.31,14.57,2.62,3.44,6.53,5.15,11.73,5.15Z"/>
              <path class="cls-30" d="M3806.79,875.09h-.3l-23.49,10.3,2.12-10.89,27.27-12.36h9.86l-19.91,102.43h-12.95l17.39-89.48Z"/>
              <path class="cls-30" d="M3869.29,966.19c-7.56,0-13.6-2.08-18.14-6.26-4.54-4.17-7.39-10.18-8.56-18.03-1.17-7.85-.69-17.27,1.45-28.26,2.16-11.09,5.34-20.55,9.57-28.4,4.22-7.85,9.42-13.88,15.59-18.1,6.17-4.22,13.03-6.33,20.58-6.33s13.55,2.11,17.97,6.33c4.43,4.22,7.25,10.25,8.48,18.1,1.22,7.85.75,17.32-1.4,28.4-2.14,10.99-5.34,20.41-9.61,28.26-4.27,7.85-9.44,13.86-15.5,18.03-6.06,4.17-12.87,6.26-20.42,6.26ZM3871.17,955.74c5.3,0,9.9-1.72,13.81-5.15,3.91-3.43,7.2-8.29,9.9-14.57,2.69-6.28,4.88-13.73,6.56-22.37,1.7-8.73,2.42-16.26,2.18-22.59-.24-6.33-1.65-11.21-4.22-14.64-2.57-3.43-6.46-5.15-11.65-5.15s-9.93,1.72-13.88,5.15c-3.96,3.44-7.28,8.32-9.98,14.64s-4.9,13.86-6.6,22.59c-1.68,8.63-2.39,16.09-2.14,22.37.25,6.28,1.68,11.14,4.31,14.57,2.62,3.44,6.53,5.15,11.73,5.15Z"/>
              <path class="cls-30" d="M3963.67,875.09h-.3l-23.49,10.3,2.12-10.89,27.27-12.36h9.86l-19.91,102.43h-12.95l17.39-89.48Z"/>
              <path class="cls-30" d="M4026.17,966.19c-7.56,0-13.6-2.08-18.14-6.26-4.54-4.17-7.39-10.18-8.56-18.03-1.17-7.85-.69-17.27,1.44-28.26s5.34-20.55,9.57-28.4c4.22-7.85,9.42-13.88,15.59-18.1,6.17-4.22,13.03-6.33,20.58-6.33s13.55,2.11,17.98,6.33c4.43,4.22,7.25,10.25,8.48,18.1,1.22,7.85.75,17.32-1.4,28.4-2.14,10.99-5.34,20.41-9.61,28.26-4.27,7.85-9.44,13.86-15.5,18.03-6.06,4.17-12.87,6.26-20.42,6.26ZM4028.06,955.74c5.3,0,9.9-1.72,13.81-5.15,3.9-3.43,7.2-8.29,9.9-14.57,2.69-6.28,4.88-13.73,6.56-22.37,1.7-8.73,2.43-16.26,2.18-22.59-.24-6.33-1.65-11.21-4.22-14.64-2.57-3.43-6.46-5.15-11.66-5.15s-9.92,1.72-13.88,5.15c-3.96,3.44-7.28,8.32-9.98,14.64-2.7,6.33-4.9,13.86-6.6,22.59-1.68,8.63-2.39,16.09-2.14,22.37.25,6.28,1.68,11.14,4.31,14.57,2.62,3.44,6.53,5.15,11.73,5.15Z"/>
            </g>
          </g>
          <g id="Setting_icon">
            <path class="cls-24" d="M1787.51,4197.45h-263.2c-41.61,0-68.79-33.73-60.7-75.34l51.16-263.2c8.09-41.61,48.38-75.34,89.99-75.34h263.2c41.61,0,68.79,33.73,60.7,75.34l-51.16,263.2c-8.09,41.61-48.38,75.34-89.99,75.34Z"/>
            <circle class="cls-39" cx="1688.55" cy="3916.96" r="125.68"/>
            <g>
              <path class="cls-40" d="M1743.88,4139.13h-263.2c-41.61,0-68.79-33.73-60.7-75.34l51.16-263.2c8.09-41.61,48.38-75.34,89.99-75.34h263.2c41.61,0,68.79,33.73,60.7,75.34l-51.16,263.2c-8.09,41.61-48.38,75.34-89.99,75.34Z"/>
              <path class="cls-59" d="M1692.76,3803.77l5.21,32.3c8.17,3.68,12.29,5.54,20.46,9.22l33.82-14.72q8.7,10.8,17.42,21.62l-20.73,30.96c1.95,8.88,2.94,13.37,4.89,22.25l30.06,11.49q-2.97,15.27-5.94,30.58l-34.53,11.49c-5.41,8.88-8.14,13.37-13.54,22.25l8.7,30.96q-12.9,10.8-25.82,21.62l-28.1-14.72c-9.6,3.68-14.45,5.54-24.05,9.22l-17.76,32.3h-30.58l-5.21-32.3c-8.17-3.68-12.29-5.54-20.46-9.22l-33.82,14.72q-8.7-10.8-17.42-21.62l20.73-30.96c-1.95-8.88-2.94-13.37-4.89-22.25l-30.06-11.49q2.97-15.27,5.94-30.58l34.53-11.49c5.41-8.88,8.14-13.37,13.54-22.25l-8.7-30.96q12.9-10.8,25.82-21.62l28.1,14.72c9.6-3.68,14.45-5.54,24.05-9.22l17.76-32.3h30.58Z"/>
              <path class="cls-56" d="M1594.73,3932.18c6.2-31.91,37.1-57.78,69.01-57.78s52.75,25.87,46.55,57.78c-6.2,31.91-37.1,57.78-69.01,57.78s-52.75-25.87-46.55-57.78Z"/>
              <path class="cls-60" d="M1852.94,3782.33c-2.3,11.84-13.77,21.45-25.62,21.45s-19.58-9.6-17.28-21.45c2.3-11.84,13.77-21.45,25.62-21.45s19.58,9.6,17.28,21.45Z"/>
            </g>
          </g>
          <g id="Cloud">
            <g>
              <path class="cls-34" d="M3361.87,2019.72l-522.27-190.29-197.2-375.86-101.64-158.23-.08-.12,417.66,193.11c77.34,30.16,148.19,76.19,207.41,135.54,87.4,87.61,147.2,199.53,179.23,318.55,4.3,15.92,7.88,31.97,11.46,48.05l5.43,29.25Z"/>
              <path class="cls-46" d="M3676.21,2593.37c-7.3,45.52-18.72,90.49-34.06,134.02-57.14,162.24-168.78,304.65-325.98,382.09-82.4,40.59-171.5,58.32-263.05,51.73-108.08-7.8-216.11-16.31-324.17-24.48-256.39-19.36-513.37-35.03-769.47-58.07-21.02-1.89-41.28-5.35-60.76-10.22-21.06-5.27-41.22-12.22-60.39-20.67l-.06-.02-.31-.14c-3.21-1.4-6.42-2.88-9.57-4.38-80.06-38.08-142.49-102.71-183.53-181-.29-.53-.58-1.09-.86-1.63,164.44,12.32,328.9,24.68,493.36,37.03,12.08.91,24.13,1.81,36.2,2.76,1.09.08,2.18.16,3.29.25,122.54,9.32,245.08,19.09,367.67,27.58.41.02.84.06,1.25.08,93.9,6.64,185.5-12.67,269.29-55.62,154.36-79.15,263.84-220.02,320.18-380.61,15.22-43.32,26.56-88.08,33.86-133.46,6.42-52.89,8.64-105.48,3.06-158.58-17.57-167.26-108.55-317.59-256.84-391.49-1.81-1.28-3.62-2.49-5.43-3.7,128.59,60.62,312.42,152.69,442.26,210.37,28.14,12.51,57.6,20.73,85,35.32,34.43,18.35,65.97,41.26,94.23,68.17,59.16,56.32,101.08,129.33,125.36,206.98,27.21,87.07,30.38,177.67,19.48,267.7Z"/>
              <path class="cls-37" d="M3642.15,2727.39c-57.14,162.24-168.78,304.65-325.98,382.09-82.4,40.59-171.5,58.32-263.05,51.73-108.08-7.8-216.11-16.31-324.17-24.48-256.39-19.36-513.37-35.03-769.47-58.07-21.02-1.89-41.28-5.35-60.76-10.22l-60.39-20.67-.06-.02-.31-.14-9.57-4.38-538.26-245.18,2.34-.8c45.91,26.31,98.39,43.49,156.62,48.71,65.21,5.84,130.48,11.21,195.77,16.27-.29-.53-.58-1.09-.86-1.63,164.44,12.32,328.9,24.68,493.36,37.03,12.08.91,24.13,1.81,36.2,2.76,1.09.08,2.18.16,3.29.25,15,1.09,29.99,2.2,44.99,3.33,107.56,8.06,215.08,16.6,322.69,24.25.41.02.84.06,1.25.08,93.9,6.64,185.5-12.67,269.29-55.62,154.36-79.15,263.84-220.02,320.18-380.61h1.17l.25.12,505.5,235.2Z"/>
              <path class="cls-32" d="M3169.09,2358.6c-7.3,45.38-18.64,90.14-33.86,133.46-56.34,160.59-165.82,301.46-320.18,380.61-83.78,42.95-175.38,62.27-269.29,55.62-.41-.02-.84-.06-1.25-.08-107.6-7.65-215.12-16.19-322.69-24.25-15-1.13-29.99-2.24-44.99-3.33-1.11-.08-2.2-.16-3.29-.25-176.16-12.92-352.56-24.46-528.7-38.16-65.29-5.06-130.56-10.43-195.77-16.27-58.23-5.22-110.71-22.4-156.62-48.71-135.72-77.74-214.18-235.24-214.67-399.64-.66-211.75,111.49-424.04,293.56-534.68,21.93-13.33,44.72-24.6,68.19-34.93,47.37-123.42,112.68-237.22,201.49-335.69,86.17-95.59,192.04-174.81,310.82-225.16,119.37-50.6,252.01-70.21,380.35-48.9,131.36,21.83,252.42,88.27,342.66,186.02,84.73,91.76,141.09,206.79,169.29,328.04,3.97,17.03,7.14,34.15,10.31,51.32,21.25,6.91,41.55,15.24,60.87,24.91,148.29,73.91,239.27,224.24,256.84,391.49,5.57,53.09,3.35,105.69-3.06,158.58Z"/>
              <path class="cls-62" d="M3169.09,2358.6c-7.3,45.38-18.64,90.14-33.86,133.46-56.34,160.59-165.82,301.46-320.18,380.61-83.78,42.95-175.38,62.27-269.29,55.62-.41-.02-.84-.06-1.25-.08-107.6-7.65-215.12-16.19-322.69-24.25-15-1.13-29.99-2.24-44.99-3.33-1.11-.08-2.2-.16-3.29-.25-176.16-12.92-352.56-24.46-528.7-38.16-65.29-5.06-130.56-10.43-195.77-16.27-58.23-5.22-110.71-22.4-156.62-48.71-135.72-77.74-214.18-235.24-214.67-399.64-.66-211.75,111.49-424.04,293.56-534.68,21.93-13.33,44.72-24.6,68.19-34.93,47.37-123.42,112.68-237.22,201.49-335.69,86.17-95.59,192.04-174.81,310.82-225.16,119.37-50.6,252.01-70.21,380.35-48.9,131.36,21.83,252.42,88.27,342.66,186.02,84.73,91.76,141.09,206.79,169.29,328.04,3.97,17.03,7.14,34.15,10.31,51.32,21.25,6.91,41.55,15.24,60.87,24.91,148.29,73.91,239.27,224.24,256.84,391.49,5.57,53.09,3.35,105.69-3.06,158.58Z"/>
              <path class="cls-61" d="M2581.9,2826.72c-9.56,0-19.27-.34-28.88-1.02,0,0-1.62-.11-1.75-.12-69.64-4.95-140.53-10.38-209.09-15.62-37.55-2.87-75.11-5.75-112.67-8.56-15.04-1.13-30.12-2.25-45.21-3.35l-3.24-.24c-68.87-5.05-138.84-9.96-206.51-14.72-105.54-7.41-214.67-15.08-321.73-23.4-70.28-5.45-133.91-10.74-194.56-16.17-41.46-3.72-80.04-15.67-114.67-35.51-48.59-27.83-89.44-71.39-118.16-125.97-29.11-55.33-44.6-119.21-44.8-184.74-.27-87.64,22.48-176.12,65.79-255.86,43.62-80.32,105.29-146.23,178.34-190.63,16.07-9.77,33.93-18.88,56.2-28.68l39.24-17.26,15.36-40.02c45.24-117.86,106.42-220.03,181.84-303.66,79.17-87.83,174.12-156.76,274.58-199.35,76-32.22,157.59-49.25,235.96-49.25,29.54,0,58.94,2.4,87.39,7.12,107.75,17.9,208.59,72.71,283.94,154.32,69.26,75.01,119.29,172.37,144.69,281.57,3.48,14.91,6.46,31.06,9.34,46.69l11.11,60.21,58.22,18.94c16.16,5.26,31.86,11.68,46.64,19.08,111.06,55.36,185.99,171.31,200.58,310.26,4.18,39.78,3.31,83.46-2.64,133.45-6.35,38.73-16.11,76.99-29.03,113.75-50.96,145.25-146.87,260.01-270.07,323.19-58.99,30.24-121.64,45.57-186.22,45.57Z"/>
              <g class="cls-50">
                <path class="cls-5" d="M1666.32,2294.37h-221.87c-11.18,0-18.48-9.06-16.3-20.24h0c2.17-11.18,13-20.24,24.17-20.24h221.87c11.18,0,18.48,9.06,16.3,20.24h0c-2.17,11.18-13,20.24-24.17,20.24Z"/>
                <path class="cls-5" d="M1649.77,2379.55h-221.87c-11.18,0-18.48-9.06-16.3-20.24h0c2.17-11.18,13-20.24,24.17-20.24h221.87c11.18,0,18.48,9.06,16.3,20.24h0c-2.17,11.18-13,20.24-24.17,20.24Z"/>
                <path class="cls-5" d="M1907.34,2379.55h-170.38c-11.18,0-18.48-9.06-16.3-20.24h0c2.17-11.18,13-20.24,24.17-20.24h170.38c11.18,0,18.48,9.06,16.3,20.24h0c-2.17,11.18-13,20.24-24.17,20.24Z"/>
                <path class="cls-5" d="M1832.39,2294.37h-78.87c-11.18,0-18.48-9.06-16.3-20.24h0c2.17-11.18,13-20.24,24.17-20.24h78.87c11.18,0,18.48,9.06,16.3,20.24h0c-2.17,11.18-13,20.24-24.17,20.24Z"/>
                <path class="cls-5" d="M1589.97,2209.2h-128.96c-11.18,0-18.48-9.06-16.3-20.24h0c2.17-11.18,13-20.24,24.17-20.24h128.96c11.18,0,18.48,9.06,16.3,20.24h0c-2.17,11.18-13,20.24-24.17,20.24Z"/>
                <path class="cls-5" d="M1682.88,2209.2h-31.79c-11.18,0-18.48-9.06-16.3-20.24h0c2.17-11.18,13-20.24,24.17-20.24h31.79c11.18,0,18.48,9.06,16.3,20.24h0c-2.17,11.18-13,20.24-24.17,20.24Z"/>
              </g>
              <g class="cls-50">
                <path class="cls-30" d="M2309.88,2154.25h-.29l-23.49,10.3,2.12-10.89,27.27-12.36h9.86l-19.91,102.43h-12.95l17.39-89.48Z"/>
                <path class="cls-30" d="M2372.38,2245.35c-7.56,0-13.6-2.08-18.14-6.26-4.54-4.17-7.39-10.18-8.56-18.03-1.17-7.85-.69-17.27,1.44-28.26,2.16-11.09,5.34-20.55,9.57-28.4,4.22-7.85,9.42-13.88,15.59-18.1s13.03-6.33,20.58-6.33,13.55,2.11,17.98,6.33c4.43,4.22,7.25,10.25,8.48,18.1,1.22,7.85.75,17.32-1.4,28.4-2.14,10.99-5.34,20.41-9.61,28.26-4.27,7.85-9.44,13.86-15.5,18.03-6.06,4.17-12.87,6.26-20.42,6.26ZM2374.27,2234.9c5.3,0,9.9-1.72,13.81-5.15,3.9-3.43,7.2-8.29,9.9-14.57,2.69-6.28,4.88-13.73,6.56-22.37,1.7-8.73,2.43-16.26,2.18-22.59-.24-6.33-1.65-11.21-4.22-14.64-2.57-3.43-6.46-5.15-11.66-5.15s-9.92,1.72-13.88,5.15c-3.96,3.44-7.28,8.32-9.98,14.64-2.7,6.33-4.9,13.86-6.6,22.59-1.68,8.63-2.39,16.09-2.14,22.37.25,6.28,1.68,11.14,4.31,14.57,2.62,3.44,6.53,5.15,11.73,5.15Z"/>
                <path class="cls-30" d="M2466.77,2154.25h-.29l-23.49,10.3,2.12-10.89,27.27-12.36h9.86l-19.91,102.43h-12.95l17.39-89.48Z"/>
                <path class="cls-30" d="M2529.27,2245.35c-7.56,0-13.6-2.08-18.14-6.26-4.54-4.17-7.39-10.18-8.56-18.03-1.17-7.85-.69-17.27,1.45-28.26,2.16-11.09,5.34-20.55,9.57-28.4,4.22-7.85,9.42-13.88,15.59-18.1,6.17-4.22,13.03-6.33,20.58-6.33s13.55,2.11,17.97,6.33c4.43,4.22,7.25,10.25,8.48,18.1,1.22,7.85.75,17.32-1.4,28.4-2.14,10.99-5.34,20.41-9.61,28.26-4.27,7.85-9.44,13.86-15.5,18.03-6.06,4.17-12.87,6.26-20.42,6.26ZM2531.15,2234.9c5.3,0,9.9-1.72,13.81-5.15,3.91-3.43,7.2-8.29,9.9-14.57,2.69-6.28,4.88-13.73,6.56-22.37,1.7-8.73,2.42-16.26,2.18-22.59-.24-6.33-1.65-11.21-4.22-14.64-2.57-3.43-6.46-5.15-11.65-5.15s-9.93,1.72-13.88,5.15c-3.96,3.44-7.28,8.32-9.98,14.64-2.7,6.33-4.9,13.86-6.6,22.59-1.68,8.63-2.39,16.09-2.14,22.37.25,6.28,1.68,11.14,4.31,14.57,2.62,3.44,6.53,5.15,11.73,5.15Z"/>
                <path class="cls-30" d="M2623.65,2154.25h-.3l-23.49,10.3,2.12-10.89,27.27-12.36h9.86l-19.91,102.43h-12.95l17.39-89.48Z"/>
                <path class="cls-30" d="M2686.15,2245.35c-7.56,0-13.6-2.08-18.14-6.26-4.54-4.17-7.39-10.18-8.56-18.03-1.17-7.85-.69-17.27,1.45-28.26,2.16-11.09,5.34-20.55,9.57-28.4,4.22-7.85,9.42-13.88,15.59-18.1,6.17-4.22,13.03-6.33,20.58-6.33s13.55,2.11,17.97,6.33c4.43,4.22,7.25,10.25,8.48,18.1,1.22,7.85.75,17.32-1.4,28.4-2.14,10.99-5.34,20.41-9.61,28.26-4.27,7.85-9.44,13.86-15.5,18.03-6.06,4.17-12.87,6.26-20.42,6.26ZM2688.03,2234.9c5.3,0,9.9-1.72,13.81-5.15,3.91-3.43,7.2-8.29,9.9-14.57,2.69-6.28,4.88-13.73,6.56-22.37,1.7-8.73,2.42-16.26,2.18-22.59-.24-6.33-1.65-11.21-4.22-14.64-2.57-3.43-6.46-5.15-11.65-5.15s-9.93,1.72-13.88,5.15c-3.96,3.44-7.28,8.32-9.98,14.64-2.7,6.33-4.9,13.86-6.6,22.59-1.68,8.63-2.39,16.09-2.14,22.37.25,6.28,1.68,11.14,4.31,14.57,2.62,3.44,6.53,5.15,11.73,5.15Z"/>
                <path class="cls-30" d="M2275.55,2330.85h-.29l-23.49,10.3,2.12-10.89,27.27-12.36h9.86l-19.91,102.43h-12.95l17.39-89.48Z"/>
                <path class="cls-30" d="M2338.05,2421.95c-7.56,0-13.6-2.08-18.14-6.26-4.54-4.17-7.39-10.18-8.56-18.03-1.17-7.85-.69-17.27,1.44-28.26,2.16-11.09,5.34-20.55,9.57-28.4,4.22-7.85,9.42-13.88,15.59-18.1s13.03-6.33,20.58-6.33,13.55,2.11,17.98,6.33c4.43,4.22,7.25,10.25,8.48,18.1,1.22,7.85.75,17.32-1.4,28.4-2.14,10.99-5.34,20.41-9.61,28.26-4.27,7.85-9.44,13.86-15.5,18.03-6.06,4.17-12.87,6.26-20.42,6.26ZM2339.94,2411.5c5.3,0,9.9-1.72,13.81-5.15,3.9-3.43,7.2-8.29,9.9-14.57,2.69-6.28,4.88-13.73,6.56-22.37s2.43-16.26,2.18-22.59c-.24-6.33-1.65-11.21-4.22-14.64-2.57-3.43-6.46-5.15-11.66-5.15s-9.92,1.72-13.88,5.15c-3.96,3.44-7.28,8.32-9.98,14.64-2.7,6.33-4.9,13.86-6.6,22.59-1.68,8.63-2.39,16.09-2.14,22.37.25,6.28,1.68,11.14,4.31,14.57,2.62,3.44,6.53,5.15,11.73,5.15Z"/>
                <path class="cls-30" d="M2432.44,2330.85h-.29l-23.49,10.3,2.12-10.89,27.27-12.36h9.86l-19.91,102.43h-12.95l17.39-89.48Z"/>
                <path class="cls-30" d="M2494.94,2421.95c-7.56,0-13.6-2.08-18.14-6.26-4.54-4.17-7.39-10.18-8.56-18.03-1.17-7.85-.69-17.27,1.45-28.26,2.16-11.09,5.34-20.55,9.57-28.4,4.22-7.85,9.42-13.88,15.59-18.1,6.17-4.22,13.03-6.33,20.58-6.33s13.55,2.11,17.97,6.33c4.43,4.22,7.25,10.25,8.48,18.1,1.22,7.85.75,17.32-1.4,28.4s-5.34,20.41-9.61,28.26c-4.27,7.85-9.44,13.86-15.5,18.03-6.06,4.17-12.87,6.26-20.42,6.26ZM2496.82,2411.5c5.3,0,9.9-1.72,13.81-5.15,3.91-3.43,7.2-8.29,9.9-14.57,2.69-6.28,4.88-13.73,6.56-22.37,1.7-8.73,2.42-16.26,2.18-22.59-.24-6.33-1.65-11.21-4.22-14.64-2.57-3.43-6.46-5.15-11.65-5.15s-9.93,1.72-13.88,5.15c-3.96,3.44-7.28,8.32-9.98,14.64-2.7,6.33-4.9,13.86-6.6,22.59-1.68,8.63-2.39,16.09-2.14,22.37.25,6.28,1.68,11.14,4.31,14.57,2.62,3.44,6.53,5.15,11.73,5.15Z"/>
                <path class="cls-30" d="M2589.32,2330.85h-.3l-23.49,10.3,2.12-10.89,27.27-12.36h9.86l-19.91,102.43h-12.95l17.39-89.48Z"/>
                <path class="cls-30" d="M2651.82,2421.95c-7.56,0-13.6-2.08-18.14-6.26-4.54-4.17-7.39-10.18-8.56-18.03-1.17-7.85-.69-17.27,1.45-28.26,2.16-11.09,5.34-20.55,9.57-28.4,4.22-7.85,9.42-13.88,15.59-18.1,6.17-4.22,13.03-6.33,20.58-6.33s13.55,2.11,17.97,6.33c4.43,4.22,7.25,10.25,8.48,18.1,1.22,7.85.75,17.32-1.4,28.4s-5.34,20.41-9.61,28.26c-4.27,7.85-9.44,13.86-15.5,18.03-6.06,4.17-12.87,6.26-20.42,6.26ZM2653.7,2411.5c5.3,0,9.9-1.72,13.81-5.15,3.91-3.43,7.2-8.29,9.9-14.57,2.69-6.28,4.88-13.73,6.56-22.37,1.7-8.73,2.42-16.26,2.18-22.59-.24-6.33-1.65-11.21-4.22-14.64-2.57-3.43-6.46-5.15-11.65-5.15s-9.93,1.72-13.88,5.15c-3.96,3.44-7.28,8.32-9.98,14.64-2.7,6.33-4.9,13.86-6.6,22.59-1.68,8.63-2.39,16.09-2.14,22.37.25,6.28,1.68,11.14,4.31,14.57,2.62,3.44,6.53,5.15,11.73,5.15Z"/>
                <path class="cls-30" d="M2746.2,2330.85h-.3l-23.49,10.3,2.12-10.89,27.27-12.36h9.86l-19.91,102.43h-12.95l17.39-89.48Z"/>
                <path class="cls-30" d="M2241.23,2507.45h-.29l-23.49,10.3,2.12-10.89,27.27-12.36h9.86l-19.91,102.43h-12.95l17.39-89.48Z"/>
                <path class="cls-30" d="M2303.73,2598.55c-7.56,0-13.6-2.08-18.14-6.26-4.54-4.17-7.39-10.18-8.56-18.03-1.17-7.85-.69-17.27,1.44-28.26,2.16-11.09,5.34-20.55,9.57-28.4,4.22-7.85,9.42-13.88,15.59-18.1s13.03-6.33,20.58-6.33,13.55,2.11,17.98,6.33c4.43,4.22,7.25,10.25,8.48,18.1,1.22,7.85.75,17.32-1.4,28.4-2.14,10.99-5.34,20.41-9.61,28.26-4.27,7.85-9.44,13.86-15.5,18.03-6.06,4.17-12.87,6.26-20.42,6.26ZM2305.61,2588.1c5.3,0,9.9-1.72,13.81-5.15,3.9-3.43,7.2-8.29,9.9-14.57,2.69-6.28,4.88-13.73,6.56-22.37s2.43-16.26,2.18-22.59c-.24-6.33-1.65-11.21-4.22-14.64-2.57-3.43-6.46-5.15-11.66-5.15s-9.92,1.72-13.88,5.15c-3.96,3.44-7.28,8.32-9.98,14.64-2.7,6.33-4.9,13.86-6.6,22.59s-2.39,16.09-2.14,22.37c.25,6.28,1.68,11.14,4.31,14.57,2.62,3.44,6.53,5.15,11.73,5.15Z"/>
                <path class="cls-30" d="M2398.11,2507.45h-.29l-23.49,10.3,2.12-10.89,27.27-12.36h9.86l-19.91,102.43h-12.95l17.39-89.48Z"/>
                <path class="cls-30" d="M2460.61,2598.55c-7.56,0-13.6-2.08-18.14-6.26-4.54-4.17-7.39-10.18-8.56-18.03-1.17-7.85-.69-17.27,1.45-28.26,2.16-11.09,5.34-20.55,9.57-28.4,4.22-7.85,9.42-13.88,15.59-18.1,6.17-4.22,13.03-6.33,20.58-6.33s13.55,2.11,17.97,6.33c4.43,4.22,7.25,10.25,8.48,18.1,1.22,7.85.75,17.32-1.4,28.4-2.14,10.99-5.34,20.41-9.61,28.26-4.27,7.85-9.44,13.86-15.5,18.03-6.06,4.17-12.87,6.26-20.42,6.26ZM2462.49,2588.1c5.3,0,9.9-1.72,13.81-5.15,3.91-3.43,7.2-8.29,9.9-14.57,2.69-6.28,4.88-13.73,6.56-22.37s2.42-16.26,2.18-22.59c-.24-6.33-1.65-11.21-4.22-14.64-2.57-3.43-6.46-5.15-11.65-5.15s-9.93,1.72-13.88,5.15c-3.96,3.44-7.28,8.32-9.98,14.64-2.7,6.33-4.9,13.86-6.6,22.59-1.68,8.63-2.39,16.09-2.14,22.37.25,6.28,1.68,11.14,4.31,14.57,2.62,3.44,6.53,5.15,11.73,5.15Z"/>
                <path class="cls-30" d="M2554.99,2507.45h-.3l-23.49,10.3,2.12-10.89,27.27-12.36h9.86l-19.91,102.43h-12.95l17.39-89.48Z"/>
                <path class="cls-30" d="M2617.49,2598.55c-7.56,0-13.6-2.08-18.14-6.26-4.54-4.17-7.39-10.18-8.56-18.03-1.17-7.85-.69-17.27,1.45-28.26,2.16-11.09,5.34-20.55,9.57-28.4,4.22-7.85,9.42-13.88,15.59-18.1,6.17-4.22,13.03-6.33,20.58-6.33s13.55,2.11,17.97,6.33c4.43,4.22,7.25,10.25,8.48,18.1,1.22,7.85.75,17.32-1.4,28.4-2.14,10.99-5.34,20.41-9.61,28.26-4.27,7.85-9.44,13.86-15.5,18.03-6.06,4.17-12.87,6.26-20.42,6.26ZM2619.38,2588.1c5.3,0,9.9-1.72,13.81-5.15,3.91-3.43,7.2-8.29,9.9-14.57,2.69-6.28,4.88-13.73,6.56-22.37,1.7-8.73,2.42-16.26,2.18-22.59-.24-6.33-1.65-11.21-4.22-14.64-2.57-3.43-6.46-5.15-11.65-5.15s-9.93,1.72-13.88,5.15c-3.96,3.44-7.28,8.32-9.98,14.64s-4.9,13.86-6.6,22.59c-1.68,8.63-2.39,16.09-2.14,22.37.25,6.28,1.68,11.14,4.31,14.57,2.62,3.44,6.53,5.15,11.73,5.15Z"/>
                <path class="cls-30" d="M2711.87,2507.45h-.3l-23.49,10.3,2.12-10.89,27.27-12.36h9.86l-19.91,102.43h-12.95l17.39-89.48Z"/>
                <path class="cls-30" d="M2774.37,2598.55c-7.56,0-13.6-2.08-18.14-6.26-4.54-4.17-7.39-10.18-8.56-18.03-1.17-7.85-.69-17.27,1.44-28.26,2.16-11.09,5.34-20.55,9.57-28.4,4.22-7.85,9.42-13.88,15.59-18.1,6.17-4.22,13.03-6.33,20.58-6.33s13.55,2.11,17.98,6.33c4.43,4.22,7.25,10.25,8.48,18.1,1.22,7.85.75,17.32-1.4,28.4-2.14,10.99-5.34,20.41-9.61,28.26-4.27,7.85-9.44,13.86-15.5,18.03-6.06,4.17-12.87,6.26-20.42,6.26ZM2776.26,2588.1c5.3,0,9.9-1.72,13.81-5.15,3.9-3.43,7.2-8.29,9.9-14.57,2.69-6.28,4.88-13.73,6.56-22.37,1.7-8.73,2.43-16.26,2.18-22.59-.24-6.33-1.65-11.21-4.22-14.64-2.57-3.43-6.46-5.15-11.66-5.15s-9.92,1.72-13.88,5.15c-3.96,3.44-7.28,8.32-9.98,14.64-2.7,6.33-4.9,13.86-6.6,22.59-1.68,8.63-2.39,16.09-2.14,22.37.25,6.28,1.68,11.14,4.31,14.57,2.62,3.44,6.53,5.15,11.73,5.15Z"/>
              </g>
            </g>
            <g id="privacy">
              <path class="cls-21" d="M2679.91,1886.2l-2.06,13.43c-.9,5.92-23.18,146.63-110.87,314.56-51.57,98.78-115.26,186.59-189.29,261.02-92.83,93.33-202.1,165.61-324.81,214.82l-16.35,6.56-15.86-7.67c-66.32-32.07-123.13-73.72-169.85-124.41-24.52-26.58-46.24-55.66-65.1-87.16-2.1-3.48-4.16-6.99-6.17-10.53-43.55-76.48-70.6-166.39-80.39-267.23-16.44-169.31,21.23-310.53,22.83-316.45l2.37-8.7c3.06-11.27,12.96-19.36,24.62-20.08l8.5-.53c2.43-.23,45.38-4.61,118.22-32.5,69.08-26.47,179.87-80.12,315.26-185.28l.58-.45.56-.43,1.19-.8c4.42-2.94,12.2-7.73,21.78-11.95,9.63-4.26,21.04-7.9,32.6-8.41.93-.04,1.83-.06,2.76-.06.37,0,.72,0,1.09.02,27.46.47,49.2,18.76,55.27,24.42l1.58,1.48,1.42,1.65c170.75,197.99,330.07,212.2,331.66,212.33l13.56,1.03c9.07.68,16.7,5.7,21.13,12.79v.02c3.31,5.33,4.81,11.81,3.78,18.53Z"/>
              <path class="cls-29" d="M2036.53,2696.59l-15.86-7.67c-66.32-32.07-123.13-73.72-169.85-124.41,34.56,29.97,75.06,57,122.43,79.92l63.27,52.17Z"/>
              <path class="cls-44" d="M2676.12,1867.65c-4.42-7.1-12.05-12.12-21.13-12.79l-13.56-1.03c-1.58-.12-160.9-14.34-331.66-212.33l-1.42-1.65-1.58-1.48c-6.07-5.66-27.81-23.94-55.27-24.42l-3.85.04-49.88.53v.02c6.52,1.36,12.74,4.78,17.28,7.85,4.44,3.02,7.3,5.68,7.3,5.68,152.34,176.63,299.22,219.95,350.72,230.14,5.8,1.15,10.48,4.73,13.23,9.45h89.81v-.02Z"/>
              <path class="cls-58" d="M2156.76,1902.08c-8-1.54-16.44-2.35-25.22-2.35-77.49,0-153.64,62.8-170.12,140.29-12.26,57.7,12.05,107.25,57.27,128.79l-41.86,196.96h111.29l41.86-196.96c54.39-21.54,99.77-71.09,112.03-128.79,14.6-68.7-22.61-125.87-85.24-137.94Z"/>
              <path class="cls-22" d="M2242.01,2040.02c-12.26,57.7-57.64,107.25-112.03,128.79l-41.86,196.96h-62.88l41.74-196.43c-45.21-21.54-69.55-71.09-57.27-128.79,14.81-69.77,78.04-127.66,147.06-138.48,62.64,12.07,99.85,69.24,85.24,137.94Z"/>
              <path class="cls-62" d="M2290.28,2040.02c-12.26,57.7-57.64,107.25-112.03,128.79l-41.86,196.96h-111.29l41.86-196.96c-45.21-21.54-69.53-71.09-57.27-128.79,16.48-77.49,92.63-140.29,170.12-140.29,8.78,0,17.22.8,25.22,2.35,62.64,12.07,99.85,69.24,85.24,137.94Z"/>
              <path class="cls-62" d="M2319.13,2052.38c-9.94,46.8-46.75,86.99-90.86,104.45l-33.95,159.74h-90.26l33.95-159.74c-36.67-17.47-56.39-57.66-46.45-104.45,13.36-62.85,75.12-113.78,137.97-113.78,7.12,0,13.96.65,20.45,1.9,50.8,9.79,80.98,56.16,69.14,111.88Z"/>
              <path class="cls-33" d="M2586.32,1867.67c-2.75-4.73-7.43-8.31-13.23-9.45-51.5-10.18-198.39-53.51-350.72-230.14,0,0-2.86-2.65-7.3-5.68-4.54-3.07-10.76-6.49-17.29-7.85-1.82-.38-3.65-.62-5.49-.62-14.87,0-36.08,14.15-36.08,14.15-228.48,177.46-394.28,220.36-449.34,230.28-12.4,2.23-22.19,11.74-24.86,24.06-17.58,81.28-67.21,379.22,91.3,597.56,21.72,29.93,47.35,58.36,77.51,84.52,34.56,29.97,75.06,57,122.43,79.92,471.87-189.28,593.84-659.21,615.34-762.8,1.03-4.98.08-9.89-2.28-13.95ZM2242.01,2040.02c-12.26,57.7-57.64,107.25-112.03,128.79l-41.86,196.96h-111.29l41.86-196.96c-45.21-21.54-69.53-71.09-57.27-128.79,16.48-77.49,92.63-140.29,170.12-140.29,8.78,0,17.22.8,25.22,2.35,62.64,12.07,99.85,69.24,85.24,137.94Z"/>
            </g>
          </g>
        </g>
      </g>
    </g>
  </g>
</svg>