<svg width="1600" height="900" viewBox="0 0 1600 900" fill="none" xmlns="http://www.w3.org/2000/svg">
  <rect width="1600" height="900" fill="#09090F"/>
  <rect x="72" y="72" width="1456" height="756" rx="36" fill="url(#bg)"/>
  <rect x="72" y="72" width="1456" height="756" rx="36" stroke="#FFFFFF" stroke-opacity="0.08"/>
  <circle cx="1290" cy="170" r="220" fill="url(#glow)"/>
  <circle cx="260" cy="760" r="240" fill="url(#glow2)"/>
  <rect x="134" y="140" width="180" height="44" rx="22" fill="#FFFFFF" fill-opacity="0.08"/>
  <text x="224" y="168" text-anchor="middle" fill="#D9E6FF" font-family="Arial, sans-serif" font-size="20" font-weight="700" letter-spacing="0.18em">TUTORIAL</text>
  <text x="134" y="292" fill="white" font-family="Arial, sans-serif" font-size="78" font-weight="700">
    <tspan x="134" dy="0">How to Use</tspan>
    <tspan x="134" dy="94">ASKLYZE.ai</tspan>
  </text>
  <text x="134" y="452" fill="#A8B0C4" font-family="Arial, sans-serif" font-size="30" font-weight="400">
    <tspan x="134" dy="0">Install the plug-in, connect your API key,</tspan>
    <tspan x="134" dy="46">validate the setup, and go live in Oracle APEX.</tspan>
  </text>
  <rect x="134" y="572" width="480" height="146" rx="28" fill="#050A14" fill-opacity="0.72" stroke="#FFFFFF" stroke-opacity="0.08"/>
  <text x="174" y="626" fill="#7FB0FF" font-family="Arial, sans-serif" font-size="24" font-weight="700">WHAT'S INSIDE</text>
  <text x="174" y="676" fill="white" font-family="Arial, sans-serif" font-size="28" font-weight="500">
    <tspan x="174" dy="0">Database install</tspan>
    <tspan x="174" dy="38">Plug-in import</tspan>
    <tspan x="174" dy="38">API key + connection test</tspan>
  </text>
  <rect x="980" y="180" width="420" height="500" rx="34" fill="#030710" fill-opacity="0.76" stroke="#FFFFFF" stroke-opacity="0.08"/>
  <rect x="1024" y="232" width="332" height="50" rx="16" fill="#FFFFFF" fill-opacity="0.06"/>
  <rect x="1024" y="314" width="248" height="18" rx="9" fill="#3B82F6"/>
  <rect x="1024" y="356" width="300" height="18" rx="9" fill="#FFFFFF" fill-opacity="0.18"/>
  <rect x="1024" y="398" width="332" height="18" rx="9" fill="#FFFFFF" fill-opacity="0.12"/>
  <rect x="1024" y="474" width="332" height="150" rx="24" fill="#3B82F6" fill-opacity="0.14" stroke="#7FB0FF" stroke-opacity="0.22"/>
  <path d="M1084 574C1118 536 1158 510 1202 492C1238 478 1274 468 1314 462" stroke="#9FC5FF" stroke-width="14" stroke-linecap="round"/>
  <circle cx="1084" cy="574" r="14" fill="#9FC5FF"/>
  <circle cx="1202" cy="492" r="14" fill="#9FC5FF"/>
  <circle cx="1314" cy="462" r="14" fill="#9FC5FF"/>
  <text x="1024" y="746" fill="#D8E8FF" font-family="Arial, sans-serif" font-size="24" font-weight="700">Built for Oracle APEX teams</text>
  <defs>
    <linearGradient id="bg" x1="72" y1="72" x2="1528" y2="828" gradientUnits="userSpaceOnUse">
      <stop stop-color="#101827"/>
      <stop offset="1" stop-color="#0B1020"/>
    </linearGradient>
    <radialGradient id="glow" cx="0" cy="0" r="1" gradientUnits="userSpaceOnUse" gradientTransform="translate(1290 170) rotate(90) scale(220)">
      <stop stop-color="#2563EB" stop-opacity="0.55"/>
      <stop offset="1" stop-color="#2563EB" stop-opacity="0"/>
    </radialGradient>
    <radialGradient id="glow2" cx="0" cy="0" r="1" gradientUnits="userSpaceOnUse" gradientTransform="translate(260 760) rotate(90) scale(240)">
      <stop stop-color="#0EA5E9" stop-opacity="0.32"/>
      <stop offset="1" stop-color="#0EA5E9" stop-opacity="0"/>
    </radialGradient>
  </defs>
</svg>
